<svg width="81" height="81" viewBox="0 0 81 81" fill="none" xmlns="http://www.w3.org/2000/svg">
<rect x="0.188171" y="0.796387" width="80" height="80" rx="10" fill="white"/>
<path d="M29.7066 14.486C28.6148 14.9062 27.817 15.6691 27.2816 16.819L26.9982 17.4271L26.9667 27.312L26.9457 37.1968L26.4208 37.1304C25.7699 37.053 25.1611 36.7213 24.6362 36.1685C23.9958 35.494 23.7649 34.9301 23.7124 33.8908C23.6704 33.0947 23.7019 32.9067 23.9328 32.3649C24.1113 31.9669 24.4367 31.5135 24.8461 31.1045C25.3815 30.5627 25.476 30.4079 25.476 30.0762C25.476 29.258 24.7622 28.8599 24.0798 29.3022C23.24 29.844 22.3792 31.0823 22.0747 32.177C21.8543 32.962 21.8543 34.51 22.0747 35.295C22.6416 37.3405 24.6467 39.0433 26.4838 39.0433H26.9457V41.6969V44.3505H26.5993H26.2528L26.0534 43.2891C25.9484 42.7031 25.7699 42.106 25.665 41.9733C25.5495 41.8185 25.1716 41.6084 24.7622 41.4647C24.3738 41.332 23.7439 41.0556 23.3555 40.8566C22.9671 40.6465 22.5366 40.4806 22.4002 40.4806C22.2637 40.4806 21.7598 40.746 21.2664 41.0777L20.3846 41.6748L19.8912 41.1772L19.3978 40.6686L19.6393 40.2706C19.7757 40.0494 20.0277 39.6293 20.2166 39.3307C20.3951 39.0211 20.5421 38.6673 20.5421 38.5236C20.5421 38.3798 20.3846 37.9265 20.1852 37.5174C19.9962 37.1083 19.7967 36.655 19.7547 36.5002C19.5133 35.6709 19.2509 35.0739 19.0934 35.0075C18.9989 34.9522 18.4635 34.8085 17.9176 34.6758L16.9204 34.4326V33.736V33.0394L17.9176 32.7961C18.4635 32.6635 18.9989 32.5197 19.0934 32.4644C19.2509 32.3981 19.5133 31.801 19.7547 30.9718C19.7967 30.817 19.9962 30.3636 20.1852 29.9545C20.3846 29.5454 20.5421 29.0921 20.5421 28.9484C20.5421 28.7936 20.2796 28.2628 19.9647 27.7542L19.3978 26.8255L19.8807 26.3058L20.3636 25.7861L20.7415 26.0404C20.9515 26.1842 21.3504 26.4495 21.6338 26.6485C21.9278 26.8365 22.2637 26.9913 22.4002 26.9913C22.5366 26.9913 22.9671 26.8255 23.3555 26.6154C23.7439 26.4164 24.3738 26.1399 24.7727 26.0072C25.5285 25.7419 25.7595 25.565 25.8434 25.189C26.1164 23.9949 26.4208 22.3806 26.4208 22.1816C26.4208 22.0489 26.3263 21.8057 26.2004 21.6398C26.0324 21.4076 25.8959 21.3523 25.539 21.3523C24.9091 21.3523 24.7517 21.5845 24.4682 22.9777C24.3318 23.619 24.2058 24.1608 24.1848 24.1718C24.1743 24.1718 23.7754 24.3487 23.303 24.5477L22.4422 24.9126L21.5184 24.3045C20.1012 23.3647 20.0697 23.3647 18.6735 24.8021C18.0751 25.4323 17.5082 26.0957 17.4347 26.2947C17.2563 26.737 17.3193 26.936 18.0331 28.108L18.5685 28.9815L18.2221 29.8993C18.0331 30.3968 17.8652 30.817 17.8547 30.8391C17.8442 30.8612 17.3193 31.0049 16.6999 31.1487C16.0805 31.2924 15.4822 31.5025 15.3772 31.602C15.2092 31.7568 15.1882 31.989 15.1882 33.736C15.1882 35.483 15.2092 35.7151 15.3772 35.8699C15.4822 35.9695 16.0805 36.1795 16.6999 36.3233C17.3193 36.467 17.8442 36.6108 17.8547 36.6329C17.8652 36.655 18.0331 37.0751 18.2221 37.5727L18.5685 38.4794L18.0016 39.4524C17.6762 39.9831 17.3928 40.5138 17.3613 40.6244C17.2353 41.0003 17.5712 41.531 18.6735 42.6588C20.0592 44.0852 20.1327 44.0962 21.5079 43.1785L22.4422 42.5593L23.303 42.9242C23.7754 43.1232 24.1743 43.3001 24.1848 43.3001C24.2058 43.3112 24.3318 43.853 24.4682 44.4943C24.7937 46.0643 24.8461 46.1196 26.0114 46.1196H26.9457L26.9667 55.1531L26.9982 64.1975L27.3026 64.861C27.7015 65.7123 28.4994 66.5526 29.3077 66.9728L29.9375 67.2935H40.3828H50.828L51.4579 66.9728C52.2662 66.5526 53.0641 65.7123 53.463 64.861L53.7674 64.1975L53.7989 54.3127L53.8199 44.4279L54.3448 44.4943C54.9956 44.5717 55.6045 44.9034 56.1294 45.4562C56.7698 46.1307 57.0007 46.6946 57.0532 47.7339C57.0952 48.53 57.0637 48.718 56.8327 49.2487C56.6753 49.6246 56.3184 50.1222 55.9299 50.5202C55.2896 51.1947 55.1636 51.5043 55.3526 52.035C55.4575 52.3115 56.0034 52.5547 56.3498 52.4773C56.7488 52.3888 57.6936 51.4711 58.124 50.7635C59.0688 49.2155 59.1213 46.8162 58.2499 45.2351C57.4206 43.7313 55.7095 42.5814 54.2818 42.5814H53.8199V39.9278V37.2742H54.1663H54.5127L54.7122 38.3356C54.8172 38.9216 54.9956 39.5187 55.1006 39.6514C55.2056 39.8062 55.5835 40.0052 55.9824 40.1489C56.3708 40.2816 57.0112 40.558 57.3996 40.7681C57.7985 40.9782 58.2289 41.1441 58.3654 41.1441C58.5019 41.1441 59.0058 40.8787 59.4992 40.547L60.381 39.9499L60.8744 40.4475L61.3678 40.9561L61.1263 41.3541C60.9898 41.5753 60.7379 41.9954 60.5489 42.294C60.3705 42.6036 60.2235 42.9574 60.2235 43.1011C60.2235 43.2449 60.381 43.6982 60.5804 44.1073C60.7694 44.5164 61.0318 45.1798 61.1578 45.6C61.4098 46.396 61.5777 46.6393 61.9346 46.7278C62.0606 46.7609 62.5435 46.8715 63.0054 46.9821L63.8452 47.1811V47.8887V48.5964L63.0054 48.7954C62.5435 48.9059 62.0606 49.0165 61.9346 49.0497C61.5777 49.1381 61.4098 49.3814 61.1578 50.1775C61.0318 50.5976 60.7694 51.2611 60.5804 51.6702C60.381 52.0793 60.2235 52.5326 60.2235 52.6763C60.2235 52.8201 60.4755 53.3508 60.7904 53.8705L61.3573 54.7992L60.8849 55.3189L60.402 55.8386L60.0241 55.5843C59.8141 55.4405 59.4152 55.1752 59.1318 54.9761C58.8378 54.7882 58.5019 54.6334 58.3654 54.6334C58.2289 54.6334 57.7985 54.7992 57.3996 55.0093C57.0112 55.2194 56.3708 55.4958 56.0034 55.6285C55.6255 55.7612 55.2266 55.9602 55.1321 56.0708C54.9641 56.2698 54.3448 58.9234 54.3448 59.4542C54.3448 59.5868 54.4393 59.819 54.5652 59.9849C54.7332 60.2171 54.8697 60.2724 55.2266 60.2724C55.8565 60.2724 56.0139 60.0402 56.2974 58.647C56.4338 58.0057 56.5598 57.4639 56.5808 57.4529C56.5913 57.4529 56.9902 57.276 57.4626 57.0769L58.3234 56.7121L59.2577 57.3313C60.6434 58.249 60.7169 58.2379 62.0921 56.8226C62.6905 56.1924 63.2574 55.529 63.3308 55.33C63.5093 54.8877 63.4358 54.6444 62.722 53.5056L62.1971 52.6432L62.5435 51.7365C62.7325 51.2279 62.9004 50.8077 62.9109 50.7856C62.9214 50.7635 63.4358 50.6308 64.0552 50.4871C64.6851 50.3323 65.2729 50.1333 65.3884 50.0337C65.5564 49.8679 65.5774 49.6468 65.5774 47.8887C65.5774 46.1307 65.5564 45.9095 65.3884 45.7437C65.2729 45.6442 64.6851 45.4452 64.0552 45.2904C63.4358 45.1466 62.9214 45.0139 62.9109 44.9918C62.9004 44.9697 62.7325 44.5496 62.5435 44.052L62.1971 43.1453L62.764 42.1723C63.0894 41.6416 63.3728 41.1109 63.4043 41.0003C63.5303 40.6244 63.1944 40.0937 62.0921 38.9548C60.7169 37.5395 60.6434 37.5285 59.2577 38.4462L58.3234 39.0654L57.4626 38.7005C56.9902 38.5015 56.5913 38.3246 56.5808 38.3246C56.5598 38.3135 56.4338 37.7717 56.2974 37.1304C55.9719 35.5604 55.9194 35.5051 54.7542 35.5051H53.8199L53.7989 26.4606L53.7674 17.4271L53.463 16.7637C53.0641 15.9124 52.2662 15.072 51.4579 14.6519L50.828 14.3312L40.5403 14.3091C30.7144 14.287 30.2315 14.287 29.7066 14.486ZM50.5656 16.3325C51.1325 16.6089 51.7518 17.2945 51.9408 17.8805C52.1613 18.5218 52.1613 63.1029 51.9408 63.7442C51.7413 64.3634 51.059 65.0931 50.4816 65.3253C50.0197 65.5133 49.3899 65.5244 40.3828 65.5244C31.3757 65.5244 30.7459 65.5133 30.284 65.3253C29.7066 65.0931 29.0242 64.3634 28.8248 63.7442C28.6988 63.3793 28.6778 59.6753 28.6778 40.8123C28.6778 16.0672 28.6253 17.8473 29.3392 17.018C29.7801 16.5094 30.2 16.2551 30.7774 16.1446C31.0083 16.1003 35.4489 16.0782 40.6452 16.0893C49.9882 16.1003 50.0932 16.1003 50.5656 16.3325Z" fill="#FF3E54"/>
<path d="M37.2334 18.0353C37.0969 18.179 37.0234 18.4002 37.0234 18.6987C37.0234 18.9972 37.0969 19.2184 37.2334 19.3621C37.4328 19.5722 37.5798 19.5833 40.3827 19.5833C43.1856 19.5833 43.3326 19.5722 43.532 19.3621C43.6685 19.2184 43.742 18.9972 43.742 18.6987C43.742 18.4002 43.6685 18.179 43.532 18.0353C43.3326 17.8252 43.1856 17.8142 40.3827 17.8142C37.5798 17.8142 37.4328 17.8252 37.2334 18.0353Z" fill="#FF3E54"/>
<path d="M33.8536 38.3576C31.9955 40.3147 31.985 40.3258 31.985 40.8123C31.985 41.2988 31.9955 41.3098 33.8536 43.2669C35.6802 45.1908 35.7222 45.235 36.1631 45.235C36.751 45.235 37.0239 44.9475 37.0239 44.3283C37.0239 43.8861 36.9714 43.8197 35.5857 42.3381L34.1475 40.8123L35.5857 39.2864C36.9714 37.8048 37.0239 37.7385 37.0239 37.2962C37.0239 36.677 36.751 36.3895 36.1631 36.3895C35.7222 36.3895 35.6802 36.4337 33.8536 38.3576Z" fill="#FF3E54"/>
<path d="M40.6137 36.5885C40.3933 36.8207 38.7031 43.7423 38.7031 44.4057C38.7031 44.9365 39.0076 45.235 39.5429 45.235C39.8054 45.235 40.0363 45.1576 40.1518 45.036C40.3723 44.8038 42.0624 37.8822 42.0624 37.2188C42.0624 36.6881 41.758 36.3895 41.2226 36.3895C40.9601 36.3895 40.7292 36.4669 40.6137 36.5885Z" fill="#FF3E54"/>
<path d="M43.9524 36.6107C43.8054 36.7655 43.7424 36.9755 43.7424 37.2962C43.7424 37.7385 43.7949 37.8048 45.1806 39.2864L46.6188 40.8123L45.1806 42.3381C43.7949 43.8197 43.7424 43.8861 43.7424 44.3283C43.7424 44.9475 44.0154 45.235 44.6032 45.235C45.0442 45.235 45.0861 45.1908 46.9127 43.2669C48.7708 41.3098 48.7813 41.2988 48.7813 40.8123C48.7813 40.3258 48.7708 40.3147 46.9127 38.3576C45.0861 36.4337 45.0442 36.3895 44.6032 36.3895C44.2988 36.3895 44.0994 36.4559 43.9524 36.6107Z" fill="#FF3E54"/>
<path d="M57.3892 21.5733C57.2317 21.7391 57.1792 21.9382 57.1792 22.3362C57.1792 22.9886 57.4101 23.2318 58.0295 23.2318C58.5334 23.2318 58.8588 22.8338 58.8588 22.2256C58.8588 21.6507 58.5754 21.3522 58.019 21.3522C57.7356 21.3522 57.5256 21.4295 57.3892 21.5733Z" fill="#FF3E54"/>
<path d="M57.3892 25.1115C57.2317 25.2773 57.1792 25.4764 57.1792 25.8744C57.1792 26.5268 57.4101 26.77 58.0295 26.77C58.5334 26.77 58.8588 26.372 58.8588 25.7638C58.8588 25.1889 58.5754 24.8904 58.019 24.8904C57.7356 24.8904 57.5256 24.9678 57.3892 25.1115Z" fill="#FF3E54"/>
<path d="M57.3892 28.6498C57.2317 28.8157 57.1792 29.0147 57.1792 29.4127C57.1792 30.0651 57.4101 30.3083 58.0295 30.3083C58.5334 30.3083 58.8588 29.9103 58.8588 29.3022C58.8588 28.7272 58.5754 28.4287 58.019 28.4287C57.7356 28.4287 57.5256 28.5061 57.3892 28.6498Z" fill="#FF3E54"/>
<path d="M22.1803 51.4379C21.9493 51.6259 21.9073 51.7585 21.9073 52.1898C21.9073 52.7647 22.0753 53.019 22.5582 53.1407C23.1146 53.2844 23.5765 52.8311 23.587 52.1234C23.587 51.7585 23.5345 51.6148 23.314 51.4379C23.1566 51.3052 22.9046 51.2057 22.7472 51.2057C22.5897 51.2057 22.3378 51.3052 22.1803 51.4379Z" fill="#FF3E54"/>
<path d="M22.1803 54.976C21.9493 55.164 21.9073 55.2966 21.9073 55.7279C21.9073 56.3028 22.0753 56.5571 22.5582 56.6787C23.1146 56.8225 23.5765 56.3691 23.587 55.6615C23.587 55.2966 23.5345 55.1529 23.314 54.976C23.1566 54.8433 22.9046 54.7438 22.7472 54.7438C22.5897 54.7438 22.3378 54.8433 22.1803 54.976Z" fill="#FF3E54"/>
<path d="M22.1803 58.5142C21.9493 58.7022 21.9073 58.8348 21.9073 59.2661C21.9073 59.841 22.0753 60.0953 22.5582 60.2169C23.1146 60.3607 23.5765 59.9074 23.587 59.1997C23.587 58.8348 23.5345 58.6911 23.314 58.5142C23.1566 58.3815 22.9046 58.282 22.7472 58.282C22.5897 58.282 22.3378 58.3815 22.1803 58.5142Z" fill="#FF3E54"/>
</svg>
