<svg width="83" height="87" viewBox="0 0 83 87" fill="none" xmlns="http://www.w3.org/2000/svg">
<rect x="0.5" y="0.0909424" width="82.3482" height="86" rx="10" fill="white"/>
<path d="M16.1463 16.7906C15.7056 17.1011 15.5 17.5151 15.5 18.0844C15.5 18.6433 17.6935 27.938 18.0852 29.0351C18.8784 31.2708 19.1819 31.6745 24.3327 37.1395L28.9155 42.0042L22.5407 48.7319C15.1083 56.5879 15.549 56.0082 15.549 57.9955C15.549 59.1237 15.5685 59.2169 15.8721 59.9103C16.1757 60.5831 16.4792 60.935 20.0828 64.744C23.6864 68.5529 24.0193 68.8738 24.6558 69.1946C25.3119 69.5155 25.4001 69.5362 26.4674 69.5362C28.328 69.5362 27.6817 70.0744 35.1337 62.2288L41.5966 55.4079L47.3741 61.525C50.5566 64.8889 53.4258 67.8491 53.7587 68.0975C55.0709 69.1015 56.5202 69.588 58.1947 69.588C59.4677 69.588 60.3783 69.3706 61.4751 68.8117C63.0517 68.0043 64.2072 66.7726 64.9612 65.0855C65.5095 63.8435 65.676 62.8912 65.6075 61.318C65.5389 59.5481 65.1766 58.4406 64.217 57.0122C63.9819 56.6707 61.1911 53.6483 58.0086 50.2845L52.2213 44.1777L58.6745 37.3465C66.0971 29.4698 65.5879 30.153 65.5879 28.1864C65.5879 27.0582 65.5683 26.965 65.2647 26.2716C64.9612 25.5988 64.6576 25.2469 61.054 21.4379C57.4504 17.629 57.1175 17.3081 56.481 16.9873C55.8249 16.6664 55.7368 16.6457 54.6694 16.6457C52.7893 16.6457 53.3377 16.1799 45.9053 24.0359L39.5402 30.774L34.9378 25.93C29.7577 20.4857 29.3856 20.1648 27.2606 19.3161C26.2128 18.9021 17.4487 16.5939 16.9101 16.5939C16.6065 16.5939 16.3323 16.6664 16.1463 16.7906ZM58.8507 23.7668L62.6012 27.7206V28.176C62.6012 28.6004 62.5523 28.6728 61.8178 29.4698L61.0442 30.3082L58.7626 27.9069C57.5092 26.5924 56.3439 25.4435 56.1676 25.3504C55.4528 24.9778 54.4931 25.309 54.1798 26.0335C53.7196 27.1099 53.8566 27.3687 56.5593 30.2358L58.8312 32.637L57.754 33.7756L56.6768 34.9141L55.4528 33.6307C54.7771 32.9269 54.1308 32.2955 54.0133 32.2334C53.7098 32.0678 52.946 32.0885 52.613 32.2748C52.0255 32.5956 51.7415 33.2891 51.8786 34.0551C51.9373 34.3759 52.1822 34.6968 53.2299 35.825L54.5127 37.1912L53.416 38.3608L52.3192 39.5201L49.9985 37.067C48.7157 35.7215 47.57 34.5726 47.4524 34.5105C47.3349 34.4484 47.0608 34.3966 46.8355 34.3966C45.7877 34.3966 45.1023 35.3282 45.3765 36.3942C45.4646 36.7669 45.8269 37.1912 47.8246 39.3131L50.1649 41.7971L49.0878 42.9357L48.0106 44.0639L46.8062 42.8011C45.4646 41.4038 45.1023 41.1658 44.3972 41.2796C43.8293 41.3728 43.2613 41.9317 43.1634 42.5113C43.0263 43.2773 43.2221 43.6499 44.5637 45.0886L45.7975 46.4031L44.7498 47.5209L43.702 48.6284L41.4301 46.2271C40.1767 44.9126 39.0114 43.7637 38.8352 43.6706C38.1203 43.298 37.1607 43.6292 36.8473 44.3537C36.3871 45.4301 36.5242 45.6889 39.2269 48.556L41.4987 50.9572L40.4215 52.0958L39.3444 53.2343L38.1203 51.9509C37.4447 51.2471 36.7984 50.6157 36.6809 50.5536C36.3773 50.388 35.6135 50.4087 35.2806 50.595C34.693 50.9158 34.409 51.6093 34.5461 52.3856C34.6049 52.6961 34.8497 53.017 35.8975 54.1452L37.1803 55.5114L36.0835 56.681L34.9868 57.8403L32.666 55.3872C31.3832 54.0417 30.2375 52.8928 30.12 52.8307C30.0025 52.7686 29.7283 52.7168 29.5031 52.7168C28.4553 52.7168 27.7698 53.6483 28.044 54.7144C28.1321 55.0871 28.4945 55.5114 30.4921 57.6332L32.8325 60.1173L31.7553 61.2559L30.6781 62.3841L29.4737 61.1213C28.1321 59.724 27.7698 59.486 27.0648 59.5998C26.4968 59.693 25.9289 60.2519 25.8309 60.8315C25.6938 61.5974 25.8897 61.9701 27.241 63.4088L28.4749 64.7336L27.6817 65.5513C26.9277 66.3276 26.8591 66.3793 26.4576 66.3793H26.0268L22.2861 62.4151L18.5356 58.4613V57.9955V57.5297L36.3871 38.6713L54.2288 19.8026H54.6694H55.1101L58.8507 23.7668ZM22.5897 21.3137C27.0158 22.4937 27.6327 22.7938 29.5324 24.7604L30.1885 25.4435L27.0354 28.7764L23.8725 32.1195L23.3535 31.571C22.433 30.6291 21.6496 29.5112 21.2187 28.5486C20.8956 27.8138 20.6214 26.8615 19.9653 24.0773C19.5051 22.1314 19.1232 20.5167 19.1232 20.4857C19.1232 20.3925 19.1036 20.3822 22.5897 21.3137ZM34.8889 30.4117L37.3859 33.0511L34.223 36.3942L31.0698 39.7271L28.5532 37.0567L26.0268 34.3966L29.1603 31.0845C30.8838 29.2628 32.3135 27.7724 32.3428 27.7724C32.3722 27.7724 33.5179 28.9627 34.8889 30.4117ZM53.181 49.7462L56.2362 52.9756L53.0733 56.3187L49.9201 59.6516L46.8355 56.3912L43.7509 53.1308L46.8845 49.8187C48.6079 47.997 50.0376 46.5066 50.067 46.5066C50.0964 46.5066 51.4967 47.966 53.181 49.7462ZM60.1237 57.095C61.573 58.6579 61.8374 58.9891 62.1703 59.7033C62.5523 60.5107 62.5523 60.5314 62.5523 61.7217C62.5523 62.9016 62.5425 62.943 62.1899 63.6986C61.7199 64.7129 61.0246 65.4478 60.065 65.9446C59.3502 66.3172 59.311 66.3276 58.1947 66.3276C57.0685 66.3276 57.049 66.3276 56.2851 65.9239C55.6095 65.572 55.2961 65.3029 53.7881 63.7296L52.0744 61.939L55.208 58.6165C56.9314 56.7949 58.3709 55.3044 58.4003 55.3044C58.4297 55.3044 59.2131 56.1117 60.1237 57.095Z" fill="#FF3E54"/>
</svg>
