<svg width="83" height="87" viewBox="0 0 83 87" fill="none" xmlns="http://www.w3.org/2000/svg">
<rect y="0.0909424" width="82.3482" height="86" rx="10" fill="white"/>
<path d="M14.9834 13.02C13.6787 13.5169 12.5856 14.5605 11.8922 15.9519C11.0341 17.6664 11.0929 16.2501 11.0929 37.0598C11.0929 57.8694 11.0341 56.4531 11.8922 58.1676C12.5974 59.5839 13.7022 60.615 15.0657 61.112C15.6534 61.3232 16.1 61.348 19.92 61.348H24.1279L24.4335 61.0623C24.6686 60.8635 24.7626 60.6275 24.8096 60.2175C24.8684 59.7081 24.8331 59.5963 24.5158 59.2236L24.1632 58.8012L20.0023 58.7391C15.9355 58.677 15.8414 58.677 15.4183 58.3912C14.8189 58.0061 14.2899 57.3228 13.9256 56.5028L13.62 55.8195L13.5847 43.8555L13.5612 31.9039H39.0671H64.5729V38.1779V44.4518H64.044C63.4093 44.4518 62.8921 44.663 62.3749 45.1227L61.9988 45.4582L60.9645 45.0233L59.9301 44.5885L59.8596 43.9797C59.7538 43.1474 59.46 42.5386 58.9076 42.0417C58.2376 41.4329 57.6852 41.3087 55.8045 41.3708C54.2648 41.408 54.1355 41.4329 53.6066 41.7559C52.8778 42.2156 52.3489 43.1474 52.3489 43.9922C52.3489 44.514 52.3136 44.6009 52.0315 44.7252C51.8435 44.7997 51.3733 45.0109 50.9737 45.2097C50.2685 45.5451 50.245 45.5451 50.0451 45.3091C49.4104 44.5637 47.8942 44.2406 46.9656 44.6382C46.4485 44.8743 44.4268 46.9366 44.1212 47.5578C43.6275 48.5889 43.7451 49.7816 44.4386 50.7506L44.8382 51.3097L44.4268 52.316L44.0154 53.3348L43.4395 53.4093C42.6637 53.5211 42.0878 53.8193 41.6059 54.3908C41.0652 55.0244 40.9477 55.5338 40.9477 57.2731V58.7391H37.4215C33.5192 58.7391 33.3664 58.7639 33.0021 59.4969C32.7787 59.9566 32.861 60.5653 33.1784 61.0002L33.4017 61.2859L38.7144 61.348L44.0154 61.4102L44.4268 62.491L44.8499 63.5843L44.5208 63.9819C44.0507 64.5782 43.8861 65.1 43.8861 65.9448C43.8861 66.9884 44.1212 67.3984 45.5552 68.8768C46.6718 70.0322 46.8246 70.1564 47.424 70.2931C48.2938 70.4919 49.0931 70.3055 49.8218 69.7216C50.339 69.2992 50.3507 69.2868 50.7269 69.498C50.9384 69.6098 51.3733 69.7961 51.6907 69.9204L52.2901 70.1316L52.3607 70.8273C52.4547 71.7094 52.9131 72.5542 53.5478 73.0014C54.0179 73.3245 54.1002 73.3369 55.9103 73.3742C58.0848 73.4238 58.5549 73.2996 59.1779 72.5666C59.6598 71.9827 59.8714 71.4236 59.8714 70.7652V70.231L60.941 69.7464L62.0106 69.2743L62.3162 69.5849C62.8921 70.144 63.3975 70.3428 64.232 70.3428C64.8432 70.3428 65.1018 70.2807 65.525 70.0198C66.1362 69.6346 67.864 67.7959 68.1343 67.2369C68.6162 66.243 68.4752 64.9385 67.8052 64.1061L67.4056 63.6216L67.8405 62.4786L68.2636 61.348H68.8043C69.8386 61.3356 70.873 60.5405 71.1551 59.5218C71.2373 59.2236 71.2726 58.3042 71.2491 57.1116C71.2138 55.1983 71.2138 55.1735 70.873 54.6517C70.4263 53.9808 69.6858 53.5211 68.8866 53.4342L68.2636 53.372L67.8405 52.316L67.4173 51.26L67.817 50.7134C68.2989 50.0425 68.4987 49.3095 68.4164 48.5268C68.3341 47.8062 68.1461 47.4087 67.5231 46.6633L67.0412 46.0918V32.4382C67.0412 20.8841 67.006 18.6603 66.8649 17.9273C66.4535 15.865 65.2546 14.1381 63.6561 13.3057L62.7628 12.8336L39.1963 12.8088C16.0413 12.7839 15.6064 12.7839 14.9834 13.02ZM62.657 15.7532C63.3623 16.1756 63.7266 16.6352 64.185 17.6788L64.5141 18.4243L64.5494 23.8534L64.5847 29.295H39.0671H13.5494L13.5847 23.7913L13.62 18.3L13.9608 17.5298C14.3252 16.6974 15.0657 15.8526 15.7122 15.5668C16.0295 15.4177 19.7202 15.3929 39.0671 15.3805H62.0458L62.657 15.7532ZM57.4031 45.073C57.4853 46.6136 57.4853 46.6136 59.2249 47.1851C59.6833 47.3341 60.4356 47.682 60.9057 47.9429C62.1751 48.6635 62.563 48.6262 63.5033 47.7193L64.232 47.0235L65.1136 47.9429L65.9834 48.8498L65.4074 49.4834C64.3848 50.5891 64.3613 50.85 65.0901 52.3781C65.3722 52.9869 65.7248 53.8938 65.8658 54.4032C66.2537 55.745 66.4535 55.9313 67.7229 56.0059L68.7455 56.068L68.7808 57.3973L68.816 58.7391H67.8992C66.477 58.7391 66.289 58.9254 65.7953 60.6523C65.6778 61.0623 65.3604 61.8574 65.0783 62.4289C64.3613 63.8949 64.3848 64.1434 65.2899 65.1497L66.0186 65.9324L65.2194 66.8145C64.7727 67.2866 64.3378 67.6841 64.2438 67.6841C64.1498 67.6841 63.7619 67.3735 63.3858 67.0008C62.5395 66.156 62.1869 66.1063 61.1055 66.7399C60.7176 66.976 59.8361 67.3735 59.1661 67.6096C57.5441 68.1935 57.4736 68.2804 57.4148 69.6843L57.3796 70.8025L56.1219 70.7652L54.876 70.7279L54.8172 69.6471C54.7467 68.3053 54.5704 68.0941 53.3127 67.6965C52.8426 67.5475 51.9963 67.1747 51.4439 66.8766C49.9981 66.0815 49.716 66.1063 48.7757 67.0629L48.047 67.7959L47.2007 66.9014C46.7306 66.4045 46.3544 65.9448 46.3544 65.8827C46.3544 65.8206 46.6483 65.4479 47.0127 65.0627C47.8707 64.1558 47.8942 63.7955 47.2007 62.4662C46.9421 61.9568 46.5895 61.0499 46.4132 60.4535C45.9783 58.9875 45.802 58.826 44.4973 58.7391L43.4747 58.677V57.3725V56.068L44.4856 56.0307C45.7785 55.981 45.9901 55.8071 46.3544 54.5026C46.4955 53.9932 46.8481 53.0863 47.1302 52.49C47.8472 50.9619 47.8354 50.6513 47.0009 49.6946C46.6483 49.2847 46.3544 48.8995 46.3544 48.8374C46.3544 48.7753 46.7188 48.3405 47.1655 47.8808L47.9882 47.0235L48.6935 47.7193C49.7043 48.7007 49.9041 48.7256 51.3616 47.9553C51.9963 47.6075 52.9013 47.2099 53.3597 47.0732C54.5351 46.713 54.7467 46.4396 54.7937 45.2221C54.8172 44.7003 54.8525 44.191 54.876 44.104C54.923 43.9922 55.2403 43.9549 56.1336 43.9797L57.3443 44.017L57.4031 45.073Z" fill="#FF3E54"/>
<path d="M20.6015 18.3993C19.3321 18.9708 18.5329 19.9399 18.192 21.3313C17.7336 23.2694 18.6151 25.3069 20.3194 26.2014C20.8249 26.4623 21.0717 26.4996 22.0825 26.4996C23.0698 26.4996 23.3519 26.4499 23.7986 26.2138C24.6684 25.7666 25.2678 25.133 25.691 24.226C26.0436 23.4806 26.0788 23.2943 26.0788 22.3376C26.0671 21.5177 26.0083 21.145 25.8085 20.6729C25.4089 19.7411 24.8212 19.0702 23.9984 18.6105C23.3519 18.2378 23.1286 18.1881 22.2588 18.1509C21.4126 18.1136 21.154 18.1509 20.6015 18.3993ZM22.8583 21.0083C23.0816 21.1574 23.3519 21.5053 23.4812 21.7662C23.7516 22.3625 23.6105 22.9712 23.0816 23.5179C22.7642 23.8409 22.6232 23.8906 22.0825 23.8906C21.5418 23.8906 21.4008 23.8409 21.0952 23.5303C20.6603 23.0831 20.4722 22.4743 20.6133 21.9525C20.7426 21.4804 20.9189 21.2444 21.3773 20.9462C21.8474 20.648 22.3764 20.6604 22.8583 21.0083Z" fill="#FF3E54"/>
<path d="M31.0742 18.3249C30.0163 18.71 29.2994 19.4057 28.7117 20.5984C28.4766 21.0705 28.4413 21.3438 28.4296 22.3377C28.4296 23.7664 28.6764 24.4125 29.605 25.3939C30.4512 26.2884 31.274 26.599 32.6022 26.5369C33.7776 26.4748 34.4946 26.1518 35.2821 25.307C37.7621 22.6483 35.9285 18.0888 32.3906 18.1137C31.9557 18.1261 31.368 18.213 31.0742 18.3249ZM33.0841 20.909C33.8481 21.3314 34.1537 22.5862 33.6483 23.2571C32.9078 24.251 31.5208 24.1267 31.0272 23.0334C30.7921 22.5116 30.7921 22.1762 31.0037 21.7414C31.4503 20.8344 32.3083 20.4866 33.0841 20.909Z" fill="#FF3E54"/>
<path d="M45.0967 18.2876C43.9801 18.6603 43.0045 19.6418 42.5814 20.8345C42.2523 21.7787 42.2993 23.3689 42.6989 24.2013C43.0633 24.9591 43.8155 25.7667 44.5325 26.1642L45.1202 26.4997L51.3498 26.5369C58.2845 26.5742 58.214 26.5866 59.3071 25.7418C60.4355 24.8597 61.0937 23.1329 60.8351 21.6917C60.5765 20.2257 59.789 19.1076 58.5784 18.4988L57.9319 18.1758L51.7611 18.151C46.9303 18.1385 45.4846 18.1634 45.0967 18.2876ZM57.5205 20.909C58.6489 21.5178 58.6489 23.1577 57.5205 23.7665C57.2384 23.928 56.2981 23.9528 51.5848 23.9528C45.4141 23.9528 45.5199 23.9652 45.0615 23.1701C44.6031 22.375 44.9087 21.2569 45.6844 20.909C46.2603 20.6357 57.0269 20.6357 57.5205 20.909Z" fill="#FF3E54"/>
<path d="M54.5819 49.8561C53.289 50.1667 51.9491 50.9494 50.997 51.9681C47.941 55.1859 48.1643 60.4162 51.4907 63.3482C52.2311 64.0067 53.7474 64.7769 54.6759 64.9633C55.675 65.1621 57.4969 65.0503 58.4724 64.7148C60.4941 64.0439 62.2807 62.168 63.0094 59.9814C63.4091 58.7515 63.5148 56.8134 63.2327 55.6331C62.6098 53.0241 60.7527 50.8873 58.4019 50.0922C57.2148 49.6946 55.6633 49.5952 54.5819 49.8561ZM56.9444 52.403C58.4607 52.7011 59.7301 53.7323 60.4236 55.2356C60.8467 56.1301 60.8702 56.2419 60.8702 57.36C60.8585 59.0372 60.5764 59.7578 59.4715 60.9256C58.3667 62.0934 57.6849 62.3916 56.1099 62.404C55.0991 62.404 54.9228 62.3667 54.2058 62.0065C52.1959 61.0001 51.0323 58.7763 51.3966 56.6519C51.7727 54.5274 53.1479 52.9745 55.1108 52.4527C55.8631 52.2539 56.1687 52.2539 56.9444 52.403Z" fill="#FF3E54"/>
<path d="M29.3699 39.1469C29.0879 39.3953 28.9351 39.9544 27.8419 44.8245C27.1602 47.7937 26.6078 50.4151 26.6078 50.6388C26.6078 51.8687 28.5354 52.2538 28.9586 51.1109C29.0173 50.9494 29.5933 48.4522 30.2515 45.5575C31.5327 39.9047 31.5562 39.6438 31.0155 39.1344C30.5923 38.7617 29.7931 38.7617 29.3699 39.1469Z" fill="#FF3E54"/>
<path d="M21.9531 39.8427C21.624 39.9918 18.4504 43.6568 18.0155 44.3898C17.6982 44.9364 17.7099 45.9303 18.0508 46.39C18.7325 47.3093 21.4829 50.5022 21.765 50.6886C22.2822 51.0488 22.8111 50.9743 23.2695 50.4898C23.7044 50.0301 23.7867 49.5207 23.5281 49.0114C23.4576 48.8623 22.7641 48.005 22.0001 47.0981C21.2361 46.2036 20.6131 45.4085 20.6131 45.3464C20.6131 45.2843 21.2243 44.514 21.9766 43.6319C23.5163 41.8056 23.7397 41.4329 23.6221 40.8242C23.4928 40.0539 22.623 39.5445 21.9531 39.8427Z" fill="#FF3E54"/>
<path d="M35.1172 39.8426C34.6941 40.0414 34.365 40.5881 34.365 41.1098C34.365 41.6192 34.3062 41.5447 36.751 44.4394C37.1154 44.8866 37.421 45.2966 37.421 45.3463C37.421 45.396 36.798 46.1787 36.034 47.0856C35.2583 47.9926 34.5765 48.8622 34.506 49.0113C33.9418 50.117 35.176 51.3718 36.1986 50.7506C36.4924 50.5767 39.713 46.7875 40.0186 46.2532C40.2772 45.8308 40.3124 44.8991 40.0891 44.5015C39.9363 44.2033 36.9273 40.6005 36.4454 40.1284C36.128 39.8178 35.4933 39.6811 35.1172 39.8426Z" fill="#FF3E54"/>
<path d="M28.3235 58.9254C27.8298 59.1987 27.677 59.4845 27.6653 60.0808C27.6653 60.8511 28.1354 61.348 28.8877 61.348C29.6164 61.348 30.0161 60.9753 30.0983 60.2175C30.1571 59.7205 30.1218 59.5963 29.828 59.2484C29.4166 58.7639 28.8172 58.6397 28.3235 58.9254Z" fill="#FF3E54"/>
</svg>
