<svg width="81" height="81" viewBox="0 0 81 81" fill="none" xmlns="http://www.w3.org/2000/svg">
<rect x="0.714966" y="0.796387" width="80" height="80" rx="10" fill="white"/>
<path d="M55.4772 14.5051C53.6209 15.1247 52.282 16.5029 51.6734 18.3939C51.4299 19.1739 51.4198 19.2914 51.4198 21.9623C51.4198 25.0392 51.4604 25.3277 52.0994 26.6097C52.9312 28.2978 54.97 29.6866 56.6133 29.6866H57.1002V28.7892V27.9025L56.5423 27.8384C55.7409 27.7529 54.9497 27.3362 54.3006 26.6525C53.3166 25.6055 53.0428 24.6226 53.0428 21.9944C53.0428 20.2315 53.1746 19.238 53.4992 18.5008C53.8238 17.7529 54.7164 16.8234 55.4468 16.4602C55.9742 16.2038 56.1568 16.1717 57.1002 16.1717C58.0435 16.1717 58.2261 16.2038 58.7535 16.4602C59.4839 16.8234 60.3765 17.7529 60.7011 18.5008C61.0663 19.3341 61.1576 20.2529 61.1576 23.3619C61.1576 26.4495 61.0967 26.8448 60.6098 26.973C60.1635 27.0905 59.8389 26.9302 59.6766 26.5349C59.565 26.2465 59.5346 25.4986 59.5346 22.9025C59.5346 19.3021 59.5143 19.1739 58.8956 18.4794C58.429 17.9666 57.8711 17.7209 57.1204 17.7209C56.38 17.7209 55.8627 17.9239 55.3859 18.3939C54.7164 19.067 54.6657 19.3127 54.6657 21.9944C54.6657 24.7294 54.7164 24.9431 55.4569 25.6482C55.9641 26.1396 56.4713 26.2999 57.2827 26.2465L57.9116 26.2144V26.5884C57.9218 27.379 58.571 28.3191 59.352 28.661C59.565 28.7572 60.0113 28.8319 60.3461 28.8319C61.3706 28.8319 62.1821 28.3084 62.5878 27.3896C62.7602 26.9943 62.7805 26.6311 62.7805 23.1055C62.7805 18.8427 62.7704 18.7145 62.111 17.3897C61.4619 16.0863 60.2954 15.0713 58.8956 14.5692C57.9319 14.238 56.3698 14.2059 55.4772 14.5051ZM57.5059 19.6439C57.8203 19.8149 57.9116 20.3597 57.9116 22.0157C57.9116 23.8106 57.8001 24.2914 57.3639 24.4089C56.9176 24.5264 56.593 24.3661 56.4307 23.9708C56.2582 23.5328 56.2278 20.5734 56.3901 20.1033C56.5828 19.5798 57.0494 19.3875 57.5059 19.6439Z" fill="#FF3E54"/>
<path d="M38.1828 25.6162C37.6655 25.8619 37.067 26.5671 36.9149 27.0906C36.8236 27.4218 36.6511 27.6034 36.073 28.0414C34.1153 29.5051 32.0054 30.4773 29.7231 30.9688C28.4248 31.2359 27.8973 31.2893 25.4933 31.3854C23.5255 31.4602 23.4443 31.4709 22.856 31.7701C22.0851 32.1654 21.3142 32.988 20.9287 33.8L20.6346 34.441V37.379V40.317L20.9084 40.9046C21.2635 41.6632 21.7808 42.3042 22.359 42.6888C22.6125 42.8491 22.8053 43.02 22.785 43.0628C22.7748 43.0948 21.1823 44.4089 19.2449 45.9794L15.715 48.832V58.0627V67.2935H29.5101H43.3053V58.0627V48.832L42.4938 48.1696L41.6823 47.5072L41.7026 44.5692L41.733 41.6205L42.1591 41.4922C43.1531 41.1824 44.0863 40.3064 44.6037 39.1952C44.8572 38.6611 44.8775 38.5008 44.8775 37.379C44.8775 36.2572 44.8572 36.097 44.6037 35.5628C44.0863 34.4517 43.1531 33.5756 42.1591 33.2658L41.733 33.1376L41.6823 30.1034C41.6316 26.7701 41.6215 26.7594 40.952 26.0863C40.7694 25.894 40.4448 25.6696 40.2419 25.5842C39.7246 25.3491 38.69 25.3705 38.1828 25.6162ZM39.6536 27.3363C39.7551 27.3897 39.8869 27.5927 39.9478 27.7743C40.0289 28.0094 40.0594 30.894 40.0594 37.4004C40.0594 47.5072 40.0695 47.3362 39.5116 47.4858C39.3696 47.5179 39.1262 47.5179 38.9842 47.4858C38.4263 47.3362 38.4364 47.5072 38.4364 37.3897C38.4364 31.1931 38.4668 27.9987 38.5378 27.7957C38.7306 27.2722 39.1972 27.0799 39.6536 27.3363ZM36.7932 41.1717L36.7627 44.9645L36.3063 44.6333C35.6571 44.1739 33.9733 43.2871 32.9589 42.8704C31.4272 42.2508 28.7798 41.6632 27.5119 41.6525H27.0757V37.379V33.1055H27.5119C28.8001 33.0948 31.5895 32.4645 33.1111 31.8235C34.0646 31.4282 35.7078 30.5521 36.3063 30.1248L36.7627 29.7936L36.7932 33.5863C36.8033 35.6696 36.8033 39.0884 36.7932 41.1717ZM25.4527 37.3897V41.6846L24.7833 41.6098C24.4079 41.567 23.9413 41.4602 23.7385 41.3747C23.3124 41.1931 22.7647 40.6589 22.5517 40.2316L22.3995 39.9431H23.1197H23.8298V39.0884V38.2337H23.0183H22.2068V37.379V36.5243H23.0183H23.8298V35.6696V34.8149H23.1197H22.3995L22.5517 34.5158C22.7241 34.1846 23.2719 33.6183 23.6066 33.4367C23.8906 33.2765 24.5601 33.1376 25.0774 33.1162L25.4527 33.1055V37.3897ZM42.5648 35.691C42.9908 36.1611 43.2038 36.7166 43.2038 37.379C43.2038 38.2871 42.6967 39.1739 41.9663 39.5799L41.6823 39.7401V37.379V35.0179L41.9663 35.1782C42.1185 35.2636 42.3822 35.488 42.5648 35.691ZM28.1205 43.5328L28.6986 43.5969V46.8982V50.1995H27.8466H26.9844L26.883 49.6333C26.8221 49.3341 26.5279 47.785 26.2236 46.2145L25.6759 43.3405L26.6091 43.4046C27.1163 43.4474 27.7959 43.5008 28.1205 43.5328ZM31.4374 44.2807C33.1821 44.8683 34.6022 45.6162 36.073 46.7166C36.6511 47.1546 36.8236 47.3362 36.9149 47.6674C37.067 48.1909 37.6655 48.8961 38.1828 49.1418C38.7001 49.3875 39.7145 49.4089 40.2622 49.1739C40.6477 49.0136 40.6883 49.0136 40.881 49.1952C40.9926 49.2914 41.0636 49.4089 41.0534 49.4516C41.0331 49.505 37.1279 53.3085 33.953 56.3747L33.6791 56.6418L33.0299 55.9794L32.3807 55.3277H29.5101H26.6395L25.9903 55.9794L25.3411 56.6418L25.0673 56.3747C21.7503 53.1696 17.9871 49.505 17.9668 49.4409C17.9364 49.3555 24.0326 44.3875 24.0935 44.4623C24.1138 44.4837 24.4282 46.0649 24.7934 47.9666C25.1586 49.8683 25.473 51.535 25.5034 51.6632L25.5542 51.9089H27.9379H30.3216V47.9025C30.3216 44.7508 30.352 43.9068 30.4535 43.9495C30.5143 43.9709 30.9606 44.1204 31.4374 44.2807ZM20.7664 54.7187C22.501 56.4174 23.9312 57.849 23.9312 57.8918C23.9312 57.9772 17.7132 64.067 17.4698 64.2379C17.3684 64.302 17.3379 62.9986 17.3379 57.8918C17.3379 52.785 17.3684 51.4815 17.4698 51.5456C17.5307 51.5991 19.0217 53.02 20.7664 54.7187ZM41.662 61.1183L41.6316 64.3447L38.3654 61.161C36.5599 59.4089 35.0891 57.9345 35.0891 57.8918C35.0891 57.849 36.5599 56.3747 38.3654 54.6226L41.6316 51.4388L41.662 54.6653C41.6722 56.4388 41.6722 59.3448 41.662 61.1183ZM35.9005 61.2785L40.2724 65.5306L34.8862 65.5627C31.9344 65.5734 27.0858 65.5734 24.1341 65.5627L18.7479 65.5306L23.1197 61.2785L27.4916 57.0371H29.5101H31.5287L35.9005 61.2785Z" fill="#FF3E54"/>
<path d="M45.9629 30.6802L44.2183 32.5178L44.8573 33.1909L45.4862 33.8533L47.241 32.005L48.9857 30.1674L48.3467 29.4943L47.7178 28.8319L45.9629 30.6802Z" fill="#FF3E54"/>
<path d="M51.4198 39.0883V45.0712H57.1002H62.7805V39.0883V33.1054H57.1002H51.4198V39.0883ZM61.1576 39.0883V43.3618H57.1002H53.0428V39.0883V34.8148H57.1002H61.1576V39.0883Z" fill="#FF3E54"/>
<path d="M54.6663 37.3789V38.2336H57.1007H59.5351V37.3789V36.5242H57.1007H54.6663V37.3789Z" fill="#FF3E54"/>
<path d="M54.6663 40.7976V41.6523H57.1007H59.5351V40.7976V39.9429H57.1007H54.6663V40.7976Z" fill="#FF3E54"/>
<path d="M46.5509 37.3789V38.2336H48.1739H49.7968V37.3789V36.5242H48.1739H46.5509V37.3789Z" fill="#FF3E54"/>
<path d="M44.7964 41.631L44.2183 42.24L45.9731 44.0883L47.7178 45.9259L48.3568 45.2528L48.9857 44.5904L47.2816 42.7956C46.3484 41.8127 45.5369 41.0114 45.4862 41.0114C45.4253 41.0114 45.121 41.2892 44.7964 41.631Z" fill="#FF3E54"/>
<path d="M54.9196 48.7144C51.7751 49.5264 49.1378 52.3255 48.3771 55.6481C48.0931 56.8981 48.0931 58.8853 48.3771 60.1353C49.1784 63.6396 51.9172 66.428 55.2949 67.1438C56.3093 67.3575 58.551 67.2934 59.4842 67.0263C60.4783 66.7485 62.0505 65.8618 62.8721 65.1353C64.2821 63.8853 65.3979 61.9836 65.8239 60.1353C66.1079 58.8853 66.1079 56.8981 65.8239 55.6481C65.0631 52.2934 62.4157 49.505 59.2306 48.7037C58.0641 48.4153 56.076 48.4153 54.9196 48.7144ZM58.5713 50.4345C60.0015 50.755 61.3303 51.5563 62.3447 52.6994C63.1156 53.5541 63.6025 54.3981 63.9676 55.4879C64.2314 56.2785 64.2517 56.4601 64.2517 57.8917C64.2517 59.3554 64.2314 59.4943 63.9372 60.3597C63.5518 61.5135 62.8721 62.5926 62.0201 63.4259C58.1554 67.24 52.0186 65.584 50.2232 60.2528C49.9696 59.5156 49.9493 59.302 49.9493 57.8917C49.9493 56.4601 49.9696 56.2785 50.2333 55.4879C51.4708 51.8127 55.0515 49.6332 58.5713 50.4345Z" fill="#FF3E54"/>
<path d="M54.2095 53.7999C53.7632 54.0456 53.4589 54.3662 53.2357 54.8149C53.0633 55.1781 53.043 55.4666 53.043 57.8918C53.043 60.317 53.0633 60.6055 53.2357 60.9687C53.6313 61.77 54.2703 62.1653 55.1731 62.1653C55.7513 62.1653 55.9136 62.1012 58.0437 60.9794C59.2812 60.3277 60.4071 59.6867 60.5289 59.5585C60.9448 59.1632 61.1578 58.5969 61.1578 57.8918C61.1578 57.1867 60.9448 56.6204 60.5289 56.2251C60.4071 56.0969 59.2812 55.4559 58.0437 54.8042C55.873 53.6717 55.7614 53.6183 55.1528 53.6183C54.7775 53.629 54.3921 53.6931 54.2095 53.7999ZM57.354 56.4815C58.4089 57.0478 59.3218 57.6033 59.3725 57.6995C59.4537 57.8384 59.4537 57.9452 59.3725 58.0734C59.2508 58.3085 55.5078 60.3384 55.2035 60.349C54.7369 60.3597 54.6659 60.0285 54.6659 57.9238C54.6659 55.7337 54.7268 55.4345 55.1427 55.4345C55.305 55.4452 56.2889 55.9153 57.354 56.4815Z" fill="#FF3E54"/>
</svg>
