<svg width="83" height="85" viewBox="0 0 83 85" fill="none" xmlns="http://www.w3.org/2000/svg">
<rect y="0.181885" width="82.3482" height="84.7904" rx="10" fill="white"/>
<g clip-path="url(#clip0_729_212)">
<path fill-rule="evenodd" clip-rule="evenodd" d="M40.6324 16.5879C41.7807 16.5771 42.1707 16.6204 43.2324 16.8912C43.9149 17.0537 44.8465 17.3679 45.2907 17.5737C45.7349 17.7796 46.439 18.1587 46.8615 18.4296C47.2732 18.7004 47.9557 19.2312 48.3674 19.6212C48.779 20.0004 49.4074 20.7046 49.7649 21.1812C50.1115 21.6579 50.5882 22.4379 50.8265 22.9146C51.054 23.3912 51.3682 24.2146 51.5199 24.7562C51.6715 25.2871 51.8557 26.2187 51.9207 26.8146C51.9965 27.6054 51.9965 28.1904 51.9099 28.9812C51.8449 29.5771 51.6824 30.4329 51.5632 30.8771C51.4332 31.3212 51.1949 32.0037 51.0215 32.3937C50.8482 32.7837 50.7074 33.1087 50.7074 33.1304C50.7074 33.1412 51.1299 33.4879 52.6032 34.6362L53.4157 34.5929C54.1199 34.5496 54.2932 34.5712 54.694 34.7987C54.9432 34.9287 56.384 36.0012 57.8899 37.1604C59.3849 38.3196 60.8365 39.4679 61.0965 39.7062C61.3565 39.9446 61.6599 40.3346 61.7682 40.5729C61.8765 40.8112 61.974 41.2554 61.974 41.5696C61.974 41.8837 61.8982 42.3279 61.8007 42.5446C61.714 42.7721 61.389 43.2596 61.0965 43.6279C60.804 44.0179 60.5874 44.3862 60.6199 44.4729C60.6524 44.5596 61.7465 45.9787 63.0574 47.6146C64.3682 49.2504 65.5165 50.7779 65.6032 51.0054C65.7115 51.2437 65.7549 51.5579 65.7115 51.7854C65.679 51.9912 65.5382 52.3487 65.4082 52.5654C65.2782 52.7821 64.5849 53.4321 63.8699 54.0171C63.1549 54.5912 62.4074 55.1329 62.2124 55.2087C62.0282 55.2954 61.6599 55.3604 61.3999 55.3604C61.1399 55.3604 60.7499 55.2521 60.024 54.8729L58.4315 55.4579C57.1099 55.9454 56.7307 56.1296 56.2865 56.5304C55.9832 56.7904 55.5499 57.1479 55.3115 57.3104C55.0732 57.4729 54.694 57.6679 54.4665 57.7546C54.1307 57.8737 54.0657 57.9496 54.1199 58.1229C54.1632 58.2421 54.2174 58.5779 54.2499 58.8812C54.2824 59.1954 54.2499 59.6071 54.174 59.8562C54.0982 60.0946 53.8924 60.4954 53.7299 60.7446C53.5565 61.0046 53.2099 61.3296 52.9499 61.4812C52.7007 61.6329 52.1915 61.8062 51.8232 61.8821C51.1732 62.0229 51.1515 62.0337 51.0974 62.4021C51.0649 62.6079 50.8915 62.9979 50.7182 63.2687C50.534 63.5396 50.1765 63.8971 49.9274 64.0596C49.6674 64.2221 49.2882 64.4062 49.0824 64.4604C48.8765 64.5254 48.5515 64.5687 48.3782 64.5687C48.0857 64.5687 48.0315 64.6229 47.8582 65.1104C47.7607 65.4029 47.5115 65.8362 47.3165 66.0529C47.1324 66.2696 46.7532 66.5404 46.4824 66.6596C46.2115 66.7787 45.7565 66.8762 45.4532 66.8762C45.1499 66.8762 44.8032 66.8437 44.6624 66.8004C44.4674 66.7462 44.4024 66.7896 44.3049 67.0821C44.2399 67.2771 44.0882 67.5804 43.9582 67.7537C43.8282 67.9271 43.5357 68.1871 43.3082 68.3279C43.0049 68.5121 42.7449 68.5771 42.279 68.5771C41.7915 68.5771 41.499 68.4904 40.9032 68.1979C40.4807 67.9921 39.7332 67.5262 38.3032 66.5079L37.8915 66.6704C37.6749 66.7679 37.2957 66.8437 37.0574 66.8437C36.8082 66.8437 36.3857 66.7246 36.0824 66.5729C35.779 66.4212 35.4107 66.1396 35.2374 65.9337C34.9557 65.5762 34.934 65.5654 34.6415 65.7171C34.479 65.8037 34.1649 65.8687 33.9374 65.8687C33.7207 65.8687 33.2874 65.7496 32.9949 65.6196C32.6915 65.4787 32.334 65.2187 32.1715 65.0454C32.0199 64.8721 31.8682 64.6229 31.8249 64.4821C31.7599 64.2762 31.6732 64.2437 31.229 64.2437C30.9257 64.2437 30.5032 64.1462 30.1782 63.9946C29.8749 63.8537 29.5065 63.5829 29.3332 63.3987C29.1707 63.2037 28.9865 62.8679 28.9215 62.6404C28.8132 62.2721 28.759 62.2287 28.2499 62.0987C27.9357 62.0337 27.4915 61.8387 27.264 61.6654C27.0257 61.5029 26.7224 61.1562 26.5707 60.8854C26.3649 60.4846 26.3215 60.2787 26.354 59.7479C26.3865 59.2604 26.4949 58.9462 26.7549 58.5021C26.9499 58.1771 27.0907 57.8304 27.069 57.7437C27.0474 57.6571 26.6465 57.2996 26.1699 56.9637C25.5524 56.5304 25.1624 56.3246 24.8157 56.2812C24.5449 56.2379 23.9599 56.0862 23.5157 55.9454C23.0715 55.8046 22.5299 55.5771 22.324 55.4254C21.9882 55.1979 21.869 55.1762 21.1865 55.2304C20.5582 55.2737 20.3632 55.2521 20.049 55.0787C19.8432 54.9596 19.0849 54.3962 18.3699 53.8221C17.3299 52.9987 17.0157 52.6846 16.8099 52.2621C16.5824 51.7746 16.5715 51.6879 16.6799 51.1896C16.7557 50.8862 16.9399 50.4746 17.1024 50.2687C17.2649 50.0629 19.5074 47.2571 22.0857 44.0396C25.1299 40.2479 26.9282 38.1029 27.1774 37.9512C27.4446 37.7851 27.7479 37.7021 28.0874 37.7021C28.3799 37.7021 28.7699 37.7671 28.954 37.8537C29.149 37.9404 29.8965 38.4929 30.6115 39.0779C31.5649 39.8579 31.9765 40.2696 32.1607 40.6271C32.2907 40.8979 32.399 41.2879 32.399 41.4937C32.399 41.6996 32.2799 42.1004 31.8574 42.9021L33.7749 43.6496C34.8365 44.0721 35.9199 44.4621 36.1907 44.5162C36.4615 44.5812 36.9382 44.6354 37.2415 44.6354C37.6749 44.6354 38.0974 44.5162 38.9749 44.1587C39.6249 43.8879 40.4807 43.5954 40.9032 43.4979C41.4774 43.3571 41.9215 43.3246 42.6907 43.3787C43.254 43.4221 44.3049 43.4762 45.0199 43.5087C45.8107 43.5521 46.6449 43.5304 47.1324 43.4546C47.5765 43.3896 48.3565 43.2054 48.8657 43.0537C49.3749 42.8912 49.8949 42.7287 50.0249 42.6746C50.2632 42.5771 50.274 42.5662 50.1007 42.2304C49.9599 41.9704 49.9382 41.7321 49.9815 41.3312C50.0249 41.0387 50.144 40.6704 50.2632 40.5187C50.469 40.2479 50.469 40.2479 50.209 39.7062C50.0574 39.4029 49.949 38.9804 49.949 38.7312C49.949 38.3087 49.9274 38.2871 48.9524 37.5829C48.3999 37.1929 47.8799 36.8462 47.804 36.8029C47.7282 36.7596 47.3599 36.9437 46.9374 37.2254C46.5365 37.5071 45.8432 37.8971 45.399 38.1029C44.9549 38.3087 44.1207 38.6121 43.5574 38.7637C42.6365 39.0237 42.3332 39.0562 40.7407 39.0562C39.2132 39.0562 38.8124 39.0237 37.9782 38.8071C37.4365 38.6662 36.559 38.3412 36.0282 38.0921C35.4865 37.8429 34.7824 37.4637 34.4574 37.2471C34.1324 37.0304 33.504 36.5212 33.0599 36.1096C32.6157 35.7087 32.0524 35.1021 31.8032 34.7771C31.5432 34.4521 31.1749 33.8887 30.9582 33.5312C30.7524 33.1737 30.4165 32.4912 30.2324 32.0146C30.0374 31.5379 29.7882 30.7037 29.6799 30.1729C29.5499 29.5337 29.474 28.7321 29.474 27.8762C29.474 27.0746 29.539 26.2079 29.6474 25.7096C29.7449 25.2437 29.9182 24.5721 30.0374 24.2146C30.1674 23.8571 30.4382 23.2179 30.644 22.8062C30.8499 22.3837 31.2074 21.7771 31.424 21.4521C31.6515 21.1271 32.0957 20.5637 32.4207 20.2062C32.7457 19.8487 33.3957 19.2637 33.8724 18.9062C34.3382 18.5487 35.064 18.0829 35.4865 17.8662C35.8982 17.6496 36.7324 17.3246 37.3282 17.1404C37.924 16.9671 38.6065 16.7721 38.8449 16.7071C39.0832 16.6529 39.8849 16.5987 40.6324 16.5879ZM37.5449 18.4729C37.2415 18.5812 36.6565 18.8304 36.2449 19.0362C35.8224 19.2421 35.2699 19.5671 34.999 19.7512C34.7282 19.9354 34.1432 20.4554 33.699 20.8996C33.244 21.3546 32.6374 22.1129 32.3449 22.5896C32.0524 23.0662 31.6732 23.8137 31.5107 24.2471C31.3374 24.6696 31.1315 25.3846 31.034 25.8179C30.9257 26.2946 30.8607 27.1071 30.8607 27.8979C30.8715 28.9487 30.9257 29.4037 31.1532 30.2812C31.3049 30.8771 31.6299 31.7546 31.8682 32.2312C32.1065 32.7079 32.5832 33.4554 32.919 33.8996C33.2549 34.3437 33.7532 34.8962 34.024 35.1346C34.2949 35.3729 34.7824 35.7412 35.1074 35.9687C35.4324 36.1854 35.9957 36.5212 36.3532 36.6946C36.7107 36.8787 37.3174 37.1279 37.7074 37.2471C38.0974 37.3771 38.704 37.5287 39.0615 37.5937C39.419 37.6479 40.1882 37.7021 40.7624 37.7021C41.3474 37.7021 42.2032 37.6262 42.6582 37.5287C43.124 37.4312 43.8715 37.2146 44.3157 37.0412C44.7599 36.8679 45.464 36.5212 45.8865 36.2721C46.2982 36.0229 47.0565 35.4271 47.5549 34.9396C48.0424 34.4629 48.6599 33.7587 48.9199 33.3687C49.1799 32.9787 49.5482 32.3179 49.7324 31.9062C49.9165 31.4837 50.1765 30.7579 50.3065 30.2812C50.4907 29.5879 50.534 29.1004 50.5449 27.8979C50.5449 26.7496 50.4907 26.1862 50.339 25.5687C50.2199 25.1246 49.9924 24.4096 49.819 23.9979C49.6457 23.5754 49.2449 22.8496 48.9307 22.3729C48.6057 21.8962 47.9665 21.1379 47.5007 20.6937C47.024 20.2387 46.2982 19.6646 45.8865 19.4154C45.464 19.1662 44.7599 18.8196 44.3157 18.6462C43.8715 18.4729 43.124 18.2562 42.6582 18.1587C42.1599 18.0504 41.3365 17.9854 40.5999 17.9962C39.939 18.0071 39.094 18.0721 38.7365 18.1479C38.379 18.2346 37.8374 18.3754 37.5449 18.4729ZM49.299 35.1346L48.7574 35.7521C50.0574 36.6729 50.4582 36.9221 50.4907 36.9004C50.5232 36.8787 50.7724 36.5646 51.054 36.1962L51.574 35.5354C50.3607 34.6146 49.9707 34.3437 49.9165 34.3437C49.8732 34.3437 49.8407 34.3762 49.8407 34.4196C49.8407 34.4737 49.6024 34.7879 49.299 35.1237V35.1346ZM51.9749 37.2796C51.4549 37.9729 51.3574 38.1571 51.3574 38.5471C51.3574 38.9046 51.4224 39.0887 51.6499 39.3379C51.8232 39.5112 53.2857 40.6812 54.8999 41.9379C57.5215 43.9529 57.9007 44.2129 58.2582 44.2129C58.529 44.2237 58.7782 44.1371 58.9949 43.9746C59.1682 43.8337 59.5907 43.3462 59.9374 42.8804C60.4357 42.2196 60.5657 41.9596 60.5657 41.6346C60.5765 41.4071 60.4899 41.1146 60.3707 40.9629C60.2624 40.8112 59.1032 39.8687 57.7924 38.8504C56.4924 37.8429 55.1165 36.7812 54.7374 36.4996C54.174 36.0662 53.9899 35.9796 53.5999 35.9796C53.2532 35.9796 53.0474 36.0446 52.8632 36.2179C52.7115 36.3587 52.3215 36.8354 51.9749 37.2796ZM22.8224 45.3179C20.1682 48.6437 17.9907 51.4279 17.9907 51.4929C17.9907 51.5687 18.0449 51.7096 18.1207 51.8071C18.1965 51.9046 18.814 52.4354 19.4857 52.9771C20.1465 53.5187 20.7749 53.9629 20.8615 53.9629C20.9482 53.9629 21.1432 53.8546 21.284 53.7137C21.4357 53.5837 23.6782 50.8212 26.2782 47.5712C29.4271 43.6351 30.9979 41.584 30.9907 41.4179C30.9907 41.2446 30.6765 40.9304 29.8857 40.2804C29.2682 39.7821 28.6507 39.2946 28.499 39.1971C28.3474 39.0887 28.174 39.0129 28.1199 39.0129C28.0549 39.0129 27.9249 39.0779 27.8382 39.1429C27.7407 39.2187 25.4874 42.0029 22.8224 45.3179ZM51.3357 41.5479C51.3465 41.6779 53.524 44.4837 56.1782 47.7879C58.8215 51.0921 61.1074 53.8546 61.2374 53.9304C61.4215 54.0279 61.5407 54.0279 61.7032 53.9412C61.8224 53.8762 62.429 53.4104 63.0574 52.9012C63.6857 52.4029 64.2382 51.9154 64.2924 51.8179C64.3465 51.7096 64.3357 51.5471 64.2707 51.4171C64.2057 51.2979 63.1115 49.9004 61.844 48.3079C59.5799 45.4587 59.5257 45.4046 59.2115 45.4804C59.0274 45.5237 58.594 45.5562 58.2365 45.5562C57.8249 45.5562 57.4457 45.4804 57.2074 45.3504C57.0015 45.2421 55.669 44.2562 54.2607 43.1621C52.8415 42.0787 51.639 41.1796 51.5957 41.1796C51.5415 41.1796 51.4657 41.2121 51.4115 41.2554C51.3574 41.2879 51.3249 41.4287 51.3357 41.5479ZM47.9449 44.7221C47.3382 44.8521 46.5907 44.9062 45.4532 44.9062C44.5649 44.9062 43.449 44.8412 42.994 44.7762C42.2899 44.6679 42.019 44.6787 41.4232 44.8087C41.0115 44.8954 40.3182 45.1121 39.874 45.2854C39.4299 45.4587 38.6282 45.8054 38.0974 46.0654C37.144 46.5312 37.1007 46.5637 36.0932 47.8421C35.5299 48.5571 34.7824 49.4562 34.4357 49.8462C33.9157 50.4312 33.8182 50.6154 33.8074 50.9512C33.8074 51.2221 33.894 51.4604 34.0565 51.6446C34.2515 51.8829 34.414 51.9479 34.9449 51.9912C35.4865 52.0346 35.6924 52.0021 36.1907 51.7637C36.5157 51.6121 37.2524 51.2112 37.8157 50.8754C38.379 50.5396 39.1807 50.1712 39.6032 50.0412C40.2315 49.8571 40.5565 49.8246 41.4449 49.8679C42.1707 49.9004 42.7557 49.9979 43.2324 50.1604C43.6224 50.2904 44.3482 50.6046 44.8574 50.8646C45.3665 51.1137 46.2115 51.6012 46.7532 51.9479C47.284 52.2946 48.2157 52.9554 48.8115 53.3996C49.4074 53.8546 50.5015 54.7104 51.249 55.3171C51.9965 55.9237 52.7224 56.4979 52.874 56.5954C53.1232 56.7687 53.1882 56.7687 53.6324 56.6062C53.9032 56.5196 54.2932 56.3354 54.499 56.2054C54.7049 56.0862 55.149 55.7287 55.474 55.4146C56.0049 54.9271 56.2432 54.7971 57.5324 54.3421C58.334 54.0496 59.0274 53.7896 59.0707 53.7571C59.114 53.7246 57.3699 51.4712 55.1924 48.7629C53.0149 46.0546 51.1732 43.8229 51.1082 43.8229C51.0324 43.8121 50.4907 43.9637 49.8949 44.1696C49.299 44.3754 48.4215 44.6246 47.9449 44.7221ZM22.8982 54.0712C22.8765 54.1254 23.0499 54.2771 23.2774 54.3854C23.494 54.4937 23.8949 54.6454 24.1657 54.7212C24.4365 54.7971 24.9132 54.8946 25.2274 54.9487C25.6282 55.0137 26.0182 55.2087 26.5815 55.5879C27.004 55.8804 27.4807 56.2162 27.6324 56.3246L27.9032 56.5412C28.4015 55.7612 28.7482 55.4254 28.9865 55.2846C29.344 55.0787 29.5499 55.0462 30.1457 55.0679C30.7415 55.1004 30.9365 55.1546 31.3374 55.4254C31.5865 55.6096 31.9115 55.9562 32.0415 56.1837C32.1824 56.4221 32.2907 56.7254 32.2907 56.8554C32.2907 57.0612 32.3557 57.1046 32.6482 57.1046C32.8324 57.1046 33.244 57.2237 33.5365 57.3537C33.8399 57.4946 34.1974 57.7546 34.3599 57.9279C34.5115 58.1012 34.6632 58.3504 34.7065 58.4804C34.7715 58.6971 34.8582 58.7296 35.3024 58.7296C35.584 58.7296 36.0282 58.8379 36.299 58.9571C36.5699 59.0762 36.949 59.3471 37.144 59.5529C37.4799 59.9104 37.5124 59.9212 37.9024 59.8021C38.119 59.7262 38.4982 59.6937 38.7365 59.7262C38.9749 59.7479 39.3974 59.8996 39.6899 60.0621C39.9715 60.2246 40.329 60.5496 40.5024 60.8096C40.7407 61.1887 40.7949 61.3729 40.7949 61.9687C40.7949 62.6512 40.7624 62.7379 40.0474 63.9837C39.6357 64.6987 39.289 65.3162 39.2674 65.3596C39.2457 65.4137 39.5815 65.7062 40.0149 66.0312C40.4374 66.3562 41.0549 66.7462 41.369 66.8979C41.6724 67.0496 42.0515 67.1796 42.2032 67.1796C42.3549 67.1796 42.5607 67.1362 42.669 67.0821C42.7665 67.0387 42.9399 66.7787 43.0482 66.5187L43.254 66.0421C42.7882 65.7062 42.3332 65.3596 41.9432 65.0671C41.3907 64.6446 41.2174 64.4496 41.1957 64.2004C41.174 64.0054 41.2282 63.7996 41.3365 63.6804C41.434 63.5829 41.6399 63.4962 41.8024 63.4962C41.9974 63.489 42.4668 63.7599 43.2107 64.3087C43.8174 64.7529 44.5107 65.2187 44.749 65.3379C44.9874 65.4571 45.2907 65.5546 45.4315 65.5546C45.5615 65.5546 45.8432 65.4462 46.049 65.3054C46.2982 65.1429 46.4715 64.9154 46.569 64.6337C46.634 64.3954 46.6882 64.1896 46.6774 64.1896C46.6557 64.1787 45.984 63.7021 45.1824 63.1171C44.3807 62.5321 43.5899 61.9254 43.4165 61.7737C43.2432 61.6112 43.124 61.3729 43.1132 61.2212C43.1132 61.0696 43.1999 60.8637 43.3082 60.7662C43.4165 60.6579 43.6224 60.5712 43.774 60.5712C43.9474 60.5712 44.6407 61.0046 45.7782 61.8387C47.349 62.9871 47.5657 63.1062 48.0532 63.1496C48.4432 63.1821 48.714 63.1387 49.0174 62.9979C49.2449 62.8787 49.494 62.6729 49.5699 62.5212C49.6457 62.3696 49.7432 62.0771 49.7865 61.8712L49.8624 61.4921C46.3632 58.9354 45.9299 58.5562 45.8757 58.3179C45.8432 58.1337 45.8757 57.9387 45.984 57.7762C46.1032 57.6246 46.2657 57.5379 46.4824 57.5379C46.7315 57.5379 47.284 57.8846 48.7357 58.9354C49.7865 59.7046 50.7832 60.3871 50.9565 60.4521C51.119 60.5171 51.3465 60.5712 51.4657 60.5712C51.5849 60.5712 51.8665 60.4846 52.0832 60.3762C52.2999 60.2787 52.5707 60.0404 52.679 59.8671C52.7874 59.6829 52.874 59.3579 52.874 59.1304C52.874 58.9137 52.809 58.5996 52.7224 58.4262C52.6465 58.2637 51.4765 57.2562 50.1224 56.1837C48.7682 55.1112 47.1432 53.8762 46.504 53.4429C45.8649 52.9987 44.8032 52.3812 44.1532 52.0562C43.4382 51.7096 42.6365 51.4062 42.149 51.2979C41.6507 51.1896 41.1199 51.1571 40.7732 51.1896C40.459 51.2221 39.939 51.3629 39.6357 51.4929C39.3215 51.6229 38.6932 51.9479 38.249 52.2079C37.8049 52.4679 37.144 52.8362 36.7865 53.0204C36.2015 53.3346 36.039 53.3671 35.1615 53.3671C34.3815 53.3671 34.0999 53.3237 33.7532 53.1396C33.5149 53.0096 33.1574 52.7171 32.9732 52.4896C32.7782 52.2621 32.5724 51.8612 32.5074 51.6012C32.4532 51.3521 32.399 51.0379 32.399 50.8971C32.399 50.7671 32.4532 50.4746 32.5074 50.2471C32.5724 50.0087 32.8974 49.5212 33.2982 49.0554C33.6774 48.6329 34.4032 47.7337 34.9232 47.0837L35.8765 45.8921C34.1432 45.2854 33.0382 44.8629 32.2907 44.5487C31.5432 44.2454 30.9257 43.9962 30.9257 43.9962C30.9149 43.9962 29.1057 46.2387 26.9174 48.9796C24.7182 51.7096 22.909 54.0062 22.8982 54.0712ZM28.5965 58.0796C28.0224 59.0762 27.7407 59.6504 27.7407 59.8887C27.7407 60.1054 27.8274 60.3329 27.9574 60.4629C28.0765 60.5821 28.304 60.7121 28.4774 60.7446C28.6507 60.7879 28.8782 60.7554 29.0407 60.6687C29.2032 60.5712 29.6365 59.9429 30.0915 59.1629C30.514 58.4154 30.8824 57.6896 30.904 57.5379C30.9257 57.3862 30.9257 57.1587 30.9149 57.0179C30.8932 56.8879 30.7307 56.6821 30.5357 56.5629C30.3407 56.4437 30.124 56.3462 30.0699 56.3462C30.0049 56.3462 29.8424 56.4112 29.7015 56.4871C29.5499 56.5629 29.0949 57.2237 28.5965 58.0796ZM31.0015 60.3221C30.449 61.2862 30.2324 61.7629 30.2324 62.0337C30.2324 62.3262 30.3082 62.4671 30.5357 62.6296C30.6982 62.7596 30.9907 62.8571 31.2074 62.8571C31.4349 62.8571 31.6624 62.7704 31.7599 62.6621C31.8574 62.5537 32.2907 61.8604 32.724 61.1129C33.2513 60.2101 33.5185 59.6396 33.5257 59.4012C33.5365 59.1304 33.4607 58.9679 33.244 58.7729C33.049 58.6104 32.8107 58.5129 32.5832 58.5129C32.3449 58.5129 32.139 58.5996 31.9982 58.7512C31.879 58.8921 31.4349 59.5962 31.0015 60.3221ZM33.8182 61.9471C33.2657 62.9112 33.049 63.3879 33.049 63.6587C33.049 63.9512 33.1249 64.0921 33.3524 64.2546C33.5149 64.3846 33.764 64.4821 33.9157 64.4821C34.089 64.4712 34.3382 64.3196 34.5765 64.0704C34.7932 63.8429 35.2699 63.1387 35.6382 62.4887C36.039 61.7846 36.299 61.1996 36.299 61.0046C36.299 60.7987 36.2015 60.5821 36.0282 60.4087C35.8477 60.2282 35.6382 60.1379 35.3999 60.1379C35.1615 60.1379 34.9557 60.2246 34.8149 60.3762C34.6957 60.5171 34.2407 61.2212 33.8182 61.9471ZM36.9599 62.9546C36.429 63.8862 36.1907 64.4171 36.1907 64.6554C36.1907 64.9154 36.2665 65.0779 36.494 65.2296C36.6565 65.3596 36.9274 65.4571 37.1115 65.4571C37.3065 65.4571 37.5232 65.3596 37.664 65.2079C37.794 65.0671 38.2382 64.3629 38.6715 63.6262C39.159 62.7921 39.4407 62.1854 39.4407 61.9796C39.4407 61.7629 39.3432 61.5643 39.1482 61.3837C38.9532 61.2104 38.7257 61.1021 38.509 61.1129C38.3032 61.1129 38.0974 61.2104 37.9565 61.3512C37.8374 61.4921 37.3824 62.2071 36.9599 62.9546ZM40.6324 19.3071C40.9032 19.3071 41.4557 19.3504 41.8782 19.4154C42.2899 19.4696 43.0049 19.6429 43.449 19.7946C43.8932 19.9462 44.5974 20.2712 45.0199 20.5096C45.4749 20.7804 46.1682 21.3437 46.7532 21.9396C47.4899 22.6871 47.8474 23.1421 48.1832 23.7921C48.4215 24.2687 48.7032 24.8971 48.8115 25.2004C48.909 25.4929 49.039 25.9804 49.0932 26.2837C49.1582 26.5762 49.2015 27.3346 49.2015 27.9629C49.2015 28.7537 49.1257 29.3604 48.974 29.9671C48.8549 30.4437 48.584 31.1696 48.3782 31.5921C48.1832 32.0037 47.7715 32.6754 47.4682 33.0762C47.1649 33.4879 46.5907 34.0837 46.1899 34.4087C45.7782 34.7446 45.0849 35.1996 44.6407 35.4379C44.1965 35.6654 43.4599 35.9579 43.0157 36.0879C42.5715 36.2071 41.7157 36.3371 41.1199 36.3696C40.264 36.4237 39.809 36.3912 38.9532 36.2071C38.2165 36.0554 37.5557 35.8279 36.8949 35.4921C36.3532 35.2321 35.6057 34.7337 35.2157 34.3979C34.8257 34.0512 34.2732 33.4771 33.9807 33.1196C33.699 32.7512 33.2657 32.0687 33.0382 31.5921C32.8107 31.1154 32.5399 30.4329 32.4424 30.0754C32.3449 29.7179 32.2474 28.9162 32.2149 28.2879C32.1824 27.5946 32.204 26.8579 32.2907 26.3921C32.3665 25.9696 32.5724 25.2437 32.7565 24.7671C32.9407 24.2904 33.3199 23.5537 33.6015 23.1421C33.8724 22.7196 34.4682 22.0371 34.9124 21.6254C35.4432 21.1162 36.039 20.7046 36.6782 20.3579C37.2199 20.0871 37.924 19.7837 38.249 19.6862C38.574 19.5887 39.1374 19.4696 39.4949 19.4154C39.8524 19.3612 40.3615 19.3179 40.6324 19.3071ZM37.3824 21.5387C36.8082 21.8312 36.3207 22.1996 35.6924 22.8171C35.0532 23.4562 34.7065 23.9112 34.3707 24.5504C34.1324 25.0271 33.8507 25.7529 33.7532 26.1754C33.6557 26.5871 33.5799 27.3671 33.569 27.9087C33.569 28.4721 33.6449 29.1871 33.7532 29.5879C33.8507 29.9779 34.0999 30.6279 34.2949 31.0504C34.5007 31.4621 34.9015 32.0904 35.1832 32.4262C35.4649 32.7729 35.9957 33.2712 36.3532 33.5421C36.7107 33.8237 37.2957 34.1812 37.6532 34.3437C38.0107 34.5171 38.639 34.7337 39.0615 34.8421C39.6357 34.9829 40.1124 35.0154 41.0115 34.9829C41.9324 34.9396 42.3874 34.8637 43.0157 34.6362C43.4599 34.4846 44.0882 34.1921 44.4132 33.9971C44.7382 33.8129 45.3232 33.3362 45.7132 32.9462C46.1032 32.5562 46.6124 31.9171 46.8399 31.5379C47.0674 31.1479 47.3707 30.4437 47.5224 29.9671C47.7499 29.2737 47.8149 28.8729 47.8149 27.9629C47.8257 27.2154 47.7607 26.5871 47.6415 26.1212C47.544 25.7312 47.2732 25.0487 47.0565 24.6046C46.7532 23.9979 46.4174 23.5537 45.724 22.8604C44.9874 22.1129 44.619 21.8421 43.8824 21.4737C43.3732 21.2246 42.6149 20.9537 42.2032 20.8671C41.7807 20.7804 41.0765 20.7154 40.6324 20.7154C40.1882 20.7154 39.4515 20.8129 39.0074 20.9212C38.5632 21.0296 37.8265 21.3112 37.3824 21.5387Z" fill="#F71E36"/>
</g>
<defs>
<clipPath id="clip0_729_212">
<rect width="49.1833" height="52" fill="white" transform="translate(16.5824 16.5771)"/>
</clipPath>
</defs>
</svg>
