<svg width="83" height="87" viewBox="0 0 83 87" fill="none" xmlns="http://www.w3.org/2000/svg">
<rect y="0.181885" width="82.3482" height="86.2275" rx="10" fill="white"/>
<path d="M65.7712 45.9785L64.2709 43.0759C63.9471 42.4468 63.7548 41.7585 63.7056 41.0527C63.6565 40.3469 63.7515 39.6385 63.9849 38.9706L64.7939 36.6694C65.1054 35.7836 65.2359 34.8443 65.1777 33.9071C65.1196 32.97 64.8739 32.054 64.4553 31.2135C64.0366 30.373 63.4536 29.6251 62.7406 29.014C62.0276 28.403 61.1993 27.9413 60.3046 27.6562C58.1883 26.9843 55.5378 26.4636 54.5263 24.219L53.1409 21.5384C52.2861 19.8964 50.8189 18.6573 49.0569 18.0895C47.295 17.5217 45.3803 17.6709 43.7277 18.5049C41.7144 19.5049 39.2106 21.231 36.8758 20.3097L34.2022 19.4582C32.429 18.8968 30.5056 19.0612 28.8533 19.9151C27.201 20.7691 25.9544 22.243 25.3867 24.0142L24.3381 27.307C23.7385 29.5699 21.4884 30.5255 19.5896 31.4727C17.9381 32.3287 16.6935 33.8048 16.1288 35.5771C15.5642 37.3495 15.7255 39.2735 16.5775 40.927L17.9994 43.6773C19.2121 45.7308 18.1938 48.1377 17.5235 50.1799C16.9589 51.953 17.1216 53.8777 17.9759 55.5309C18.8301 57.184 20.3059 58.4302 22.0788 58.9954C24.1159 59.6039 26.405 60.1771 27.3903 62.2829L28.8113 65.0339C29.4042 66.1785 30.3005 67.1378 31.4022 67.8069C32.5039 68.476 33.7685 68.829 35.0574 68.8274C37.0165 69.0087 39.5179 67.3449 41.2287 66.5146C43.3749 65.2355 46.0336 66.4605 48.1599 67.1276C49.9331 67.69 51.857 67.5262 53.5096 66.672C55.1621 65.8179 56.4085 64.3432 56.9753 62.5714C57.6706 60.4266 58.1741 57.6432 60.4678 56.6176L62.759 55.4336C64.4104 54.5772 65.6547 53.101 66.2194 51.3286C66.784 49.5562 66.6228 47.6322 65.7712 45.9785ZM61.9216 53.8121L59.6302 54.9961C58.8102 55.4172 58.0817 55.9966 57.487 56.701C56.8923 57.4053 56.4432 58.2206 56.1655 59.0996L55.2363 62.0173C54.8177 63.3287 53.8956 64.4203 52.6727 65.0524C51.4498 65.6845 50.026 65.8054 48.714 65.3884L45.742 64.4414C44.8645 64.1592 43.9398 64.0538 43.0214 64.1314C42.1029 64.2089 41.209 64.4678 40.3912 64.8931L37.429 66.4246C36.2054 67.0547 34.7819 67.174 33.4704 66.7564C32.159 66.3387 31.0666 65.4181 30.4328 64.1964L29.0118 61.4454C28.1532 59.7956 26.6788 58.551 24.9083 57.9815C22.901 57.3799 20.5581 56.7986 19.5969 54.694C18.389 52.6408 19.399 50.2335 20.0727 48.1914C20.3546 47.3138 20.4598 46.389 20.3822 45.4704C20.3046 44.5519 20.0459 43.6578 19.6208 42.8398L18.199 40.0896C17.5682 38.8662 17.4486 37.4426 17.8663 36.1311C18.2841 34.8196 19.205 33.7275 20.4271 33.0942L22.6125 31.9646C23.4327 31.5437 24.1613 30.9644 24.756 30.26C25.3507 29.5556 25.7998 28.7403 26.0772 27.8611L27.1258 24.5684C27.5467 23.2585 28.4691 22.1686 29.6913 21.5369C30.9135 20.9052 32.336 20.7831 33.648 21.1972L36.3216 22.0489C38.0786 22.6122 39.9871 22.4575 41.6305 21.6186L44.5544 20.1317C45.7772 19.5145 47.1939 19.404 48.4976 19.8241C49.8013 20.2441 50.887 21.1609 51.5195 22.3759L52.9048 25.0566C53.3259 25.8766 53.9054 26.605 54.6097 27.1997C55.314 27.7944 56.1293 28.2436 57.0083 28.5213L59.7504 29.3953C60.4135 29.6039 61.0276 29.9447 61.5555 30.397C62.0834 30.8492 62.5143 31.4037 62.8223 32.027C63.9765 34.1004 63.0138 36.3477 62.2635 38.3648C61.9478 39.2674 61.8192 40.2249 61.8855 41.1788C61.9519 42.1327 62.2118 43.0631 62.6494 43.9133L64.1497 46.8159C64.7801 48.0394 64.8996 49.4631 64.4819 50.7746C64.0643 52.0861 63.1435 53.1785 61.9216 53.8121ZM41.1743 25.943C36.5763 25.9483 32.168 27.7772 28.9167 31.0285C25.6654 34.2798 23.8365 38.6881 23.8312 43.2862C24.7841 66.2942 57.5681 66.2875 58.5175 43.286C58.5122 38.688 56.6833 34.2798 53.432 31.0284C50.1806 27.7771 45.7724 25.9483 41.1743 25.943ZM41.1743 58.8047C37.06 58.8001 33.1155 57.1637 30.2062 54.2544C27.2969 51.3451 25.6604 47.4005 25.6558 43.2862C26.508 22.6986 55.8438 22.7046 56.6929 43.2863C56.6883 47.4006 55.0518 51.3451 52.1425 54.2544C49.2332 57.1637 45.2887 58.8001 41.1743 58.8047ZM48.7853 35.1451C48.3651 35.1461 47.9494 35.231 47.5625 35.3948C47.1756 35.5587 46.8253 35.7982 46.5322 36.0993L38.4339 44.3722L35.4129 41.352C34.8549 40.8083 34.1047 40.5071 33.3257 40.5141C32.5467 40.521 31.802 40.8354 31.2538 41.389C30.7056 41.9425 30.3983 42.6902 30.3989 43.4692C30.3995 44.2483 30.7079 44.9955 31.2569 45.5482L36.2887 50.4828C36.908 51.0837 37.7369 51.4198 38.5997 51.4202C39.4626 51.4205 40.2917 51.085 40.9115 50.4847L51.0224 40.5903C51.4666 40.145 51.7693 39.5784 51.8925 38.9617C52.0157 38.3449 51.954 37.7054 51.715 37.1236C51.4759 36.5419 51.0703 36.0437 50.5491 35.6917C50.0279 35.3397 49.4142 35.1495 48.7853 35.1451ZM49.7466 39.286L39.6358 49.1804C39.3585 49.4495 38.9874 49.6 38.601 49.6C38.2146 49.6 37.8434 49.4495 37.5662 49.1804L32.5344 44.2457C32.4269 44.1408 32.3415 44.0153 32.2834 43.8768C32.2252 43.7384 32.1955 43.5896 32.1959 43.4394C32.1993 43.2177 32.2676 43.0019 32.3922 42.8185C32.5169 42.6351 32.6925 42.4922 32.8974 42.4075C33.1022 42.3227 33.3275 42.2997 33.5452 42.3414C33.763 42.3831 33.9638 42.4876 34.1229 42.6421L37.7961 46.3143C37.8811 46.4 37.9824 46.468 38.094 46.5141C38.2057 46.5602 38.3254 46.5836 38.4461 46.583C38.5669 46.5823 38.6863 46.5576 38.7974 46.5102C38.9085 46.4629 39.0091 46.3938 39.0932 46.3072L47.8365 37.375C48.0901 37.1228 48.4334 36.9815 48.7911 36.9821C49.1488 36.9826 49.4917 37.125 49.7445 37.378C49.9974 37.631 50.1396 37.9739 50.14 38.3316C50.1404 38.6893 49.9989 39.0325 49.7466 39.286Z" fill="url(#paint0_linear_729_196)"/>
<defs>
<linearGradient id="paint0_linear_729_196" x1="15.7956" y1="43.2944" x2="66.5531" y2="43.2944" gradientUnits="userSpaceOnUse">
<stop stop-color="#FFA68D"/>
<stop offset="1" stop-color="#FD3A84"/>
</linearGradient>
</defs>
</svg>
