<svg width="83" height="85" viewBox="0 0 83 85" fill="none" xmlns="http://www.w3.org/2000/svg">
<rect y="0.181885" width="82.3482" height="84.7904" rx="10" fill="white"/>
<g clip-path="url(#clip0_729_204)">
<path d="M51.7196 66.81H59.6291C59.8621 66.81 60.0857 66.7174 60.2505 66.5526C60.4153 66.3878 60.5079 66.1643 60.5079 65.9312V48.3547C60.5079 48.1216 60.4153 47.8981 60.2505 47.7333C60.0857 47.5684 59.8621 47.4759 59.6291 47.4759H51.7196C51.5061 47.476 51.2999 47.554 51.1396 47.6951C50.9793 47.8362 50.8759 48.0308 50.8487 48.2426L48.4449 46.2395C47.3588 45.3356 45.9908 44.8403 44.5778 44.8394C44.3212 44.8394 44.0648 44.8554 43.8102 44.8875V39.0515L45.0269 37.8348C45.9728 36.8889 46.6612 35.7169 47.0267 34.4302C47.3923 33.1434 47.4228 31.7845 47.1155 30.4826C46.8082 29.1807 46.1732 27.979 45.2708 26.9916C44.3684 26.0041 43.2285 25.2637 41.9595 24.8407L41.4516 24.6714C41.3195 24.6274 41.1788 24.6153 41.0412 24.6363C40.9035 24.6573 40.7728 24.7108 40.6598 24.7922C40.5469 24.8736 40.4548 24.9807 40.3914 25.1047C40.3279 25.2287 40.2949 25.3659 40.2949 25.5052V32.0655L38.5372 33.2372L36.7796 32.0655V25.5052C36.7796 25.3659 36.7465 25.2287 36.683 25.1047C36.6196 24.9807 36.5276 24.8736 36.4146 24.7922C36.3016 24.7108 36.1709 24.6573 36.0333 24.6363C35.8956 24.6153 35.7549 24.6274 35.6228 24.6714L35.115 24.8407C33.8459 25.2637 32.7061 26.0041 31.8037 26.9916C30.9013 27.979 30.2663 29.1807 29.9589 30.4826C29.6516 31.7845 29.6821 33.1434 30.0477 34.4302C30.4132 35.7169 31.1016 36.8889 32.0475 37.8348L33.2643 39.0515V45.7182H32.3854C31.6711 45.7177 30.9737 45.935 30.386 46.341C29.7984 46.7471 29.3485 47.3226 29.0963 47.9909C28.8441 48.6592 28.8016 49.3885 28.9745 50.0815C29.1474 50.7746 29.5275 51.3985 30.064 51.87C29.6889 52.1992 29.3884 52.6047 29.1825 53.0594C28.9766 53.514 28.8701 54.0074 28.8701 54.5065C28.8701 55.0056 28.9766 55.4989 29.1825 55.9536C29.3884 56.4082 29.6889 56.8137 30.064 57.1429C29.6487 57.5077 29.3254 57.9655 29.1205 58.4788C28.9155 58.9922 28.8346 59.5467 28.8845 60.0972C28.9343 60.6477 29.1134 61.1787 29.4072 61.6469C29.701 62.1151 30.1012 62.5073 30.5753 62.7916C30.1439 63.3036 29.8679 63.9282 29.7796 64.5918C29.6913 65.2555 29.7946 65.9305 30.0771 66.5375C30.3597 67.1444 30.8098 67.658 31.3744 68.0176C31.9391 68.3773 32.5948 68.5682 33.2643 68.5677H39.5828C43.6036 68.5646 47.529 67.3424 50.8408 65.0623V65.9312C50.8408 66.1643 50.9334 66.3878 51.0982 66.5526C51.263 66.7174 51.4865 66.81 51.7196 66.81ZM52.5984 49.2335H58.7502V65.0524H52.5984V49.2335ZM47.3197 47.5897L50.8408 50.524V56.2641H48.9323C47.6946 56.2673 46.4983 55.8187 45.5678 55.0027V51.87C45.5678 51.6369 45.4752 51.4134 45.3104 51.2486C45.1456 51.0837 44.9221 50.9912 44.689 50.9912C44.4559 50.9912 44.2324 51.0837 44.0676 51.2486C43.9028 51.4134 43.8102 51.6369 43.8102 51.87V56.2641C43.8103 56.6879 43.6574 57.0974 43.3794 57.4173C43.1014 57.7372 42.7172 57.9458 42.2976 58.0047C41.8779 58.0637 41.4511 57.969 41.0958 57.738C40.7404 57.5071 40.4805 57.1556 40.364 56.7481C40.9479 56.0451 41.2345 55.142 41.1627 54.2309C41.0909 53.3199 40.6664 52.4728 39.9795 51.87C40.4599 51.4486 40.816 50.9039 41.0093 50.2948C41.2025 49.6857 41.2256 49.0354 41.0759 48.4141C41.5915 47.6783 42.3265 47.1243 43.176 46.8316C43.203 46.8237 43.2295 46.8145 43.2554 46.8042C43.9441 46.5822 44.6778 46.5378 45.3882 46.6751C46.0987 46.8124 46.7629 47.127 47.3193 47.5897H47.3197ZM42.0525 63.2947C42.0527 63.5912 42.0153 63.8865 41.9412 64.1736C41.709 63.2816 41.1369 62.5159 40.3474 62.0402C40.8815 61.4081 41.1743 60.607 41.1737 59.7794C41.1737 59.7414 41.1721 59.7037 41.1708 59.6659C41.4587 59.7411 41.755 59.7793 42.0525 59.7794V63.2947ZM34.7645 38.0661L33.2903 36.5919C32.5981 35.8996 32.083 35.0507 31.7885 34.1171C31.4941 33.1834 31.4291 32.1925 31.599 31.2284C31.769 30.2643 32.1688 29.3553 32.7646 28.5786C33.3604 27.8018 34.1348 27.1801 35.0219 26.7662V32.5358C35.0219 32.6805 35.0576 32.8229 35.1259 32.9504C35.1942 33.078 35.2928 33.1867 35.4132 33.267L38.0497 35.0246C38.1941 35.1209 38.3637 35.1723 38.5372 35.1723C38.7107 35.1723 38.8804 35.1209 39.0247 35.0246L41.6612 33.267C41.7816 33.1867 41.8803 33.078 41.9485 32.9504C42.0168 32.8229 42.0525 32.6805 42.0525 32.5358V26.7662C42.9397 27.1801 43.714 27.8018 44.3098 28.5786C44.9057 29.3553 45.3055 30.2643 45.4754 31.2284C45.6453 32.1925 45.5803 33.1834 45.2859 34.1171C44.9915 35.0507 44.4764 35.8996 43.7841 36.5919L42.3099 38.0661C42.2283 38.1478 42.1636 38.2446 42.1194 38.3513C42.0752 38.4579 42.0525 38.5722 42.0525 38.6876V45.3886C41.3361 45.7171 40.6914 46.1838 40.1556 46.7618C39.71 46.3108 39.1508 45.9887 38.5372 45.8295V39.5664H39.416C39.6491 39.5664 39.8727 39.4738 40.0375 39.309C40.2023 39.1442 40.2949 38.9207 40.2949 38.6876C40.2949 38.4545 40.2023 38.231 40.0375 38.0662C39.8727 37.9013 39.6491 37.8088 39.416 37.8088H38.5372C38.0712 37.8093 37.6245 37.9947 37.295 38.3242C36.9655 38.6537 36.7801 39.1004 36.7796 39.5664V45.7182H35.0219V38.6876C35.0219 38.5722 34.9992 38.4579 34.955 38.3513C34.9109 38.2446 34.8461 38.1478 34.7645 38.0661ZM30.6278 49.2335C30.6283 48.7675 30.8137 48.3208 31.1432 47.9913C31.4727 47.6618 31.9194 47.4764 32.3854 47.4759H37.6584C38.1246 47.4759 38.5716 47.661 38.9012 47.9907C39.2309 48.3203 39.416 48.7673 39.416 49.2335C39.416 49.6997 39.2309 50.1467 38.9012 50.4764C38.5716 50.806 38.1246 50.9912 37.6584 50.9912H32.3854C31.9194 50.9906 31.4727 50.8052 31.1432 50.4757C30.8137 50.1462 30.6283 49.6995 30.6278 49.2335ZM30.6278 54.5065C30.6283 54.0405 30.8137 53.5937 31.1432 53.2642C31.4727 52.9347 31.9194 52.7494 32.3854 52.7488H37.6584C38.1246 52.7488 38.5716 52.934 38.9012 53.2636C39.2309 53.5932 39.416 54.0403 39.416 54.5065C39.416 54.9726 39.2309 55.4197 38.9012 55.7493C38.5716 56.0789 38.1246 56.2641 37.6584 56.2641H32.3854C31.9194 56.2636 31.4727 56.0782 31.1432 55.7487C30.8137 55.4192 30.6283 54.9725 30.6278 54.5065ZM37.6584 58.0218C38.1246 58.0218 38.5716 58.207 38.9012 58.5366C39.2309 58.8662 39.416 59.3133 39.416 59.7794C39.416 60.2456 39.2309 60.6926 38.9012 61.0223C38.5716 61.3519 38.1246 61.5371 37.6584 61.5371H32.3854C31.9193 61.5371 31.4722 61.3519 31.1426 61.0223C30.813 60.6926 30.6278 60.2456 30.6278 59.7794C30.6278 59.3133 30.813 58.8662 31.1426 58.5366C31.4722 58.207 31.9193 58.0218 32.3854 58.0218H37.6584ZM31.5066 65.0524C31.5072 64.5864 31.6925 64.1396 32.022 63.8101C32.3515 63.4806 32.7983 63.2953 33.2643 63.2947H38.5372C39.0034 63.2947 39.4504 63.4799 39.7801 63.8095C40.1097 64.1392 40.2949 64.5862 40.2949 65.0524C40.2949 65.5185 40.1097 65.9656 39.7801 66.2952C39.4504 66.6249 39.0034 66.81 38.5372 66.81H33.2643C32.7983 66.8095 32.3515 66.6241 32.022 66.2946C31.6925 65.9651 31.5072 65.5184 31.5066 65.0524ZM42.6897 66.5394C43.4166 65.6141 43.8112 64.4713 43.8102 63.2947V59.3071C44.222 59.0686 44.5813 58.7494 44.8665 58.3684C45.1517 57.9875 45.3569 57.5528 45.4697 57.0905C46.5206 57.7034 47.7158 58.0248 48.9323 58.0218H50.8408V62.8773C48.4721 64.7593 45.6698 66.0183 42.6897 66.5394ZM24.476 20.6716C24.2429 20.6716 24.0194 20.7642 23.8546 20.929C23.6898 21.0939 23.5972 21.3174 23.5972 21.5505C23.5972 21.7835 23.6898 22.0071 23.8546 22.1719C24.0194 22.3367 24.2429 22.4293 24.476 22.4293H26.2336C26.2623 22.4293 26.291 22.4278 26.3196 22.4249C26.2976 22.443 26.2763 22.4621 26.2557 22.4826L25.0128 23.7256C24.8511 23.891 24.7611 24.1135 24.7624 24.3449C24.7637 24.5763 24.8562 24.7978 25.0198 24.9614C25.1834 25.125 25.4049 25.2175 25.6363 25.2188C25.8676 25.2201 26.0902 25.1301 26.2556 24.9683L27.4986 23.7256C27.519 23.705 27.5382 23.6837 27.5562 23.6617C27.5534 23.6903 27.552 23.7189 27.5519 23.7475V25.5052C27.5519 25.7383 27.6445 25.9618 27.8093 26.1266C27.9741 26.2914 28.1976 26.384 28.4307 26.384C28.6638 26.384 28.8873 26.2914 29.0521 26.1266C29.217 25.9618 29.3095 25.7383 29.3095 25.5052V23.7475C29.3095 23.7185 29.3079 23.69 29.3053 23.6617C29.3233 23.6837 29.3424 23.705 29.3628 23.7256L30.6058 24.9683C30.7712 25.1301 30.9938 25.2201 31.2252 25.2188C31.4565 25.2175 31.6781 25.125 31.8417 24.9614C32.0053 24.7978 32.0978 24.5763 32.0991 24.3449C32.1003 24.1135 32.0103 23.891 31.8486 23.7256L30.6058 22.4826C30.5854 22.4624 30.5641 22.4431 30.542 22.4249C30.5702 22.4276 30.5989 22.4293 30.6279 22.4293H32.3855C32.6186 22.4293 32.8422 22.3367 33.007 22.1719C33.1718 22.0071 33.2644 21.7835 33.2644 21.5505C33.2644 21.3174 33.1718 21.0939 33.007 20.929C32.8422 20.7642 32.6186 20.6716 32.3855 20.6716H30.6278C30.5988 20.6716 30.5701 20.6733 30.5419 20.676C30.5638 20.6579 30.5852 20.6388 30.6057 20.6184L31.8486 19.3754C32.0103 19.2099 32.1003 18.9874 32.0991 18.756C32.0978 18.5246 32.0053 18.3031 31.8417 18.1395C31.6781 17.9759 31.4565 17.8834 31.2252 17.8821C30.9938 17.8808 30.7712 17.9708 30.6058 18.1326L29.3628 19.3754C29.3424 19.3959 29.3233 19.4172 29.3053 19.4392C29.3079 19.411 29.3095 19.3824 29.3095 19.3534V17.5957C29.3095 17.3627 29.217 17.1391 29.0521 16.9743C28.8873 16.8095 28.6638 16.7169 28.4307 16.7169C28.1976 16.7169 27.9741 16.8095 27.8093 16.9743C27.6445 17.1391 27.5519 17.3627 27.5519 17.5957V19.3534C27.5519 19.3824 27.5535 19.411 27.5562 19.4392C27.538 19.417 27.5188 19.3957 27.4986 19.3754L26.2556 18.1326C26.0902 17.9708 25.8676 17.8808 25.6363 17.8821C25.4049 17.8834 25.1834 17.9759 25.0198 18.1395C24.8562 18.3031 24.7637 18.5246 24.7624 18.756C24.7611 18.9874 24.8511 19.2099 25.0128 19.3754L26.2556 20.6184C26.2762 20.6388 26.2975 20.6579 26.3194 20.676C26.2909 20.6732 26.2622 20.6717 26.2335 20.6716H24.476ZM26.8772 20.8756C26.9998 20.8756 27.121 20.85 27.2331 20.8003C27.3453 20.7506 27.4457 20.6781 27.5281 20.5872C27.6105 20.4964 27.6729 20.3894 27.7115 20.273C27.75 20.1566 27.7637 20.0334 27.7518 19.9113C27.8343 20.0116 27.9379 20.0924 28.0553 20.1479C28.1727 20.2033 28.3009 20.2321 28.4307 20.2321C28.5605 20.2321 28.6888 20.2033 28.8061 20.1479C28.9235 20.0924 29.0272 20.0116 29.1096 19.9113C29.0977 20.0334 29.1114 20.1566 29.15 20.273C29.1885 20.3894 29.2509 20.4964 29.3333 20.5872C29.4157 20.6781 29.5162 20.7506 29.6283 20.8003C29.7404 20.85 29.8616 20.8756 29.9843 20.8756C30.0128 20.8756 30.0415 20.8742 30.0699 20.8715C29.9696 20.9539 29.8888 21.0576 29.8333 21.175C29.7778 21.2924 29.7491 21.4206 29.7491 21.5505C29.7491 21.6803 29.7778 21.8086 29.8333 21.926C29.8888 22.0434 29.9696 22.147 30.0699 22.2295C29.9407 22.2168 29.8103 22.2329 29.688 22.2767C29.5658 22.3205 29.4547 22.3908 29.3629 22.4826C29.2711 22.5744 29.2007 22.6854 29.1569 22.8077C29.1131 22.9299 29.097 23.0604 29.1096 23.1896C29.0272 23.0893 28.9235 23.0085 28.8061 22.9531C28.6888 22.8976 28.5605 22.8688 28.4307 22.8688C28.3009 22.8688 28.1727 22.8976 28.0553 22.9531C27.9379 23.0085 27.8343 23.0893 27.7518 23.1896C27.7644 23.0603 27.7483 22.9299 27.7044 22.8077C27.6606 22.6854 27.5903 22.5744 27.4984 22.4826C27.4066 22.3908 27.2956 22.3205 27.1733 22.2768C27.051 22.233 26.9206 22.2169 26.7914 22.2296C26.8917 22.1471 26.9726 22.0435 27.0281 21.9261C27.0835 21.8086 27.1123 21.6804 27.1123 21.5505C27.1123 21.4206 27.0835 21.2924 27.0281 21.175C26.9726 21.0576 26.8917 20.9539 26.7914 20.8715C26.8199 20.8742 26.8488 20.8756 26.8772 20.8756ZM52.5984 37.8088C52.5984 38.0418 52.5059 38.2654 52.341 38.4302C52.1762 38.595 51.9527 38.6876 51.7196 38.6876C51.4865 38.6876 51.263 38.595 51.0982 38.4302C50.9334 38.2654 50.8408 38.0418 50.8408 37.8088V36.9299C50.8408 36.6969 50.9334 36.4733 51.0982 36.3085C51.263 36.1437 51.4865 36.0511 51.7196 36.0511C51.9527 36.0511 52.1762 36.1437 52.341 36.3085C52.5059 36.4733 52.5984 36.6969 52.5984 36.9299V37.8088ZM52.5984 43.0817V43.9605C52.5984 44.1936 52.5059 44.4172 52.341 44.582C52.1762 44.7468 51.9527 44.8394 51.7196 44.8394C51.4865 44.8394 51.263 44.7468 51.0982 44.582C50.9334 44.4172 50.8408 44.1936 50.8408 43.9605V43.0817C50.8408 42.8486 50.9334 42.6251 51.0982 42.4603C51.263 42.2955 51.4865 42.2029 51.7196 42.2029C51.9527 42.2029 52.1762 42.2955 52.341 42.4603C52.5059 42.6251 52.5984 42.8486 52.5984 43.0817ZM50.4768 39.2024C50.3952 39.284 50.2984 39.3487 50.1917 39.3929C50.0851 39.437 49.9708 39.4598 49.8554 39.4598C49.74 39.4598 49.6257 39.437 49.5191 39.3929C49.4125 39.3487 49.3156 39.284 49.234 39.2024L48.6125 38.5809C48.5301 38.4995 48.4646 38.4026 48.4198 38.2957C48.3749 38.1889 48.3517 38.0743 48.3513 37.9584C48.351 37.8426 48.3735 37.7278 48.4177 37.6207C48.4619 37.5136 48.5268 37.4162 48.6087 37.3343C48.6906 37.2524 48.7879 37.1875 48.895 37.1433C49.0021 37.0991 49.1169 37.0765 49.2328 37.0769C49.3486 37.0772 49.4633 37.1005 49.5701 37.1453C49.6769 37.1901 49.7739 37.2556 49.8553 37.338L50.4767 37.9594C50.5584 38.041 50.6231 38.1379 50.6673 38.2445C50.7115 38.3511 50.7343 38.4654 50.7343 38.5808C50.7343 38.6963 50.7115 38.8106 50.6674 38.9172C50.6232 39.0238 50.5585 39.1207 50.4768 39.2024ZM52.9624 41.6881C53.044 41.6065 53.1409 41.5418 53.2475 41.4976C53.3541 41.4534 53.4684 41.4307 53.5838 41.4307C53.6992 41.4307 53.8135 41.4534 53.9201 41.4976C54.0268 41.5418 54.1237 41.6065 54.2053 41.6881L54.8267 42.3096C54.9091 42.391 54.9746 42.4879 55.0195 42.5947C55.0643 42.7016 55.0876 42.8162 55.0879 42.9321C55.0883 43.0479 55.0657 43.1627 55.0215 43.2698C54.9774 43.3769 54.9125 43.4742 54.8305 43.5562C54.7486 43.6381 54.6513 43.703 54.5442 43.7472C54.4371 43.7914 54.3223 43.8139 54.2065 43.8136C54.0906 43.8132 53.976 43.79 53.8691 43.7452C53.7623 43.7004 53.6654 43.6349 53.5839 43.5524L52.9625 42.9311C52.8809 42.8495 52.8161 42.7526 52.7719 42.646C52.7277 42.5394 52.705 42.4251 52.705 42.3096C52.705 42.1942 52.7277 42.0799 52.7719 41.9733C52.816 41.8666 52.8808 41.7697 52.9624 41.6881ZM49.0831 41.3241H48.2043C47.9712 41.3241 47.7477 41.2315 47.5829 41.0667C47.4181 40.9018 47.3255 40.6783 47.3255 40.4452C47.3255 40.2122 47.4181 39.9886 47.5829 39.8238C47.7477 39.659 47.9712 39.5664 48.2043 39.5664H49.0831C49.3162 39.5664 49.5397 39.659 49.7046 39.8238C49.8694 39.9886 49.962 40.2122 49.962 40.4452C49.962 40.6783 49.8694 40.9018 49.7046 41.0667C49.5397 41.2315 49.3162 41.3241 49.0831 41.3241ZM54.3561 39.5664H55.2349C55.468 39.5664 55.6915 39.659 55.8563 39.8238C56.0212 39.9886 56.1137 40.2122 56.1137 40.4452C56.1137 40.6783 56.0212 40.9018 55.8563 41.0667C55.6915 41.2315 55.468 41.3241 55.2349 41.3241H54.3561C54.123 41.3241 53.8995 41.2315 53.7347 41.0667C53.5699 40.9018 53.4773 40.6783 53.4773 40.4452C53.4773 40.2122 53.5699 39.9886 53.7347 39.8238C53.8995 39.659 54.123 39.5664 54.3561 39.5664ZM48.6124 43.5522C48.4476 43.3874 48.3551 43.1639 48.3551 42.9308C48.3551 42.6978 48.4476 42.4743 48.6124 42.3094L49.2339 41.688C49.3155 41.6064 49.4124 41.5417 49.519 41.4975C49.6256 41.4534 49.7399 41.4306 49.8553 41.4307C49.9707 41.4307 50.085 41.4534 50.1916 41.4976C50.2983 41.5418 50.3951 41.6065 50.4767 41.6881C50.5583 41.7697 50.6231 41.8666 50.6672 41.9733C50.7114 42.0799 50.7341 42.1942 50.7341 42.3096C50.7341 42.425 50.7113 42.5393 50.6672 42.6459C50.623 42.7525 50.5582 42.8494 50.4766 42.931L49.8552 43.5523C49.7736 43.6339 49.6767 43.6987 49.5701 43.7428C49.4634 43.787 49.3492 43.8097 49.2337 43.8097C49.1183 43.8097 49.0041 43.787 48.8974 43.7428C48.7908 43.6987 48.6939 43.6339 48.6123 43.5523L48.6124 43.5522ZM54.8268 37.3383C54.9916 37.5031 55.0842 37.7266 55.0842 37.9596C55.0842 38.1927 54.9916 38.4162 54.8268 38.581L54.2054 39.2025C54.0405 39.3673 53.817 39.4598 53.5839 39.4598C53.3508 39.4598 53.1273 39.3672 52.9625 39.2024C52.7977 39.0375 52.7051 38.814 52.7051 38.5809C52.7052 38.3478 52.7978 38.1243 52.9626 37.9595L53.584 37.3381C53.7489 37.1734 53.9724 37.0808 54.2055 37.0808C54.4385 37.0809 54.662 37.1735 54.8268 37.3383Z" fill="#F71E36"/>
</g>
<defs>
<clipPath id="clip0_729_204">
<rect width="38.9388" height="53" fill="white" transform="translate(21.7047 16.0771)"/>
</clipPath>
</defs>
</svg>
