<svg width="83" height="87" viewBox="0 0 83 87" fill="none" xmlns="http://www.w3.org/2000/svg">
<rect y="0.181885" width="82.3482" height="86.2275" rx="10" fill="white"/>
<path d="M29.0754 37.4742C29.6313 38.2305 30.4283 38.7747 31.3351 39.017C32.2418 39.2593 33.2041 39.1853 34.0631 38.8072C34.9222 38.429 35.6266 37.7693 36.0603 36.937C36.4939 36.1046 36.6309 35.1492 36.4485 34.2285C36.9842 33.8487 37.4211 33.346 37.7226 32.7626C38.0241 32.1791 38.1814 31.532 38.1814 30.8753C38.1814 30.2186 38.0241 29.5714 37.7226 28.988C37.4211 28.4046 36.9842 27.9019 36.4485 27.522C36.6273 26.6025 36.4884 25.6494 36.0546 24.8192C35.6207 23.9889 34.9176 23.3307 34.0606 22.9525C33.2036 22.5743 32.2435 22.4985 31.3377 22.7375C30.4319 22.9765 29.6342 23.5162 29.0754 24.2681C28.5174 23.515 27.7197 22.9742 26.8136 22.7345C25.9074 22.4949 24.9466 22.5707 24.0893 22.9495C23.2319 23.3283 22.5289 23.9875 22.0959 24.8188C21.6628 25.6501 21.5255 26.604 21.7065 27.5237C21.1708 27.9035 20.734 28.4062 20.4325 28.9896C20.131 29.5731 19.9736 30.2202 19.9736 30.8769C19.9736 31.5336 20.131 32.1808 20.4325 32.7642C20.734 33.3476 21.1708 33.8503 21.7065 34.2302C21.5277 35.1493 21.6666 36.102 22.1007 36.9317C22.5347 37.7614 23.2379 38.4189 24.095 38.7962C24.952 39.1735 25.9118 39.2481 26.8169 39.0079C27.7219 38.7677 28.5184 38.2268 29.0754 37.4742ZM29.9862 26.1128C30.1404 25.5307 30.5007 25.0244 31.0003 24.6881C31.4998 24.3519 32.1045 24.2085 32.7018 24.2847C33.2991 24.361 33.8484 24.6516 34.2475 25.1026C34.6466 25.5535 34.8682 26.1341 34.8712 26.7363C34.8712 26.7669 34.8646 26.795 34.8629 26.8257C33.8751 26.6289 32.8494 26.795 31.9742 27.2935L32.8021 28.7292C33.152 28.5212 33.5485 28.4046 33.9553 28.3901C34.362 28.3756 34.7658 28.4638 35.1296 28.6464C35.5502 28.8488 35.9049 29.1663 36.1525 29.5621C36.4001 29.9578 36.5305 30.4157 36.5285 30.8825C36.5265 31.3494 36.3922 31.8061 36.1413 32.1997C35.8903 32.5934 35.5329 32.9078 35.1105 33.1066C34.7482 33.2829 34.348 33.3671 33.9453 33.3518C33.5427 33.3365 33.15 33.2221 32.8021 33.0189L31.9742 34.4546C32.8457 34.9644 33.8755 35.1323 34.8638 34.9257C34.8638 34.9547 34.8712 34.9828 34.8712 35.0085C34.8712 35.6673 34.6095 36.2991 34.1437 36.7649C33.6779 37.2307 33.0461 37.4924 32.3873 37.4924C31.7285 37.4924 31.0968 37.2307 30.6309 36.7649C30.1651 36.2991 29.9034 35.6673 29.9034 35.0085V26.7363C29.9015 26.5256 29.9294 26.3157 29.9862 26.1128ZM23.2797 35.0159C23.2797 34.9861 23.2863 34.958 23.2871 34.929C23.557 34.9857 23.8319 35.0148 24.1076 35.0159C24.8344 35.0143 25.5481 34.8222 26.1776 34.4587L25.3496 33.023C24.9992 33.2299 24.6026 33.3456 24.1959 33.3593C23.7893 33.373 23.3857 33.2845 23.0222 33.1017C22.6013 32.8993 22.2464 32.5817 21.9987 32.1858C21.7511 31.7899 21.6207 31.3319 21.6228 30.8649C21.6248 30.3979 21.7593 29.941 22.0105 29.5473C22.2617 29.1536 22.6194 28.8392 23.042 28.6406C23.4042 28.4638 23.8045 28.3792 24.2072 28.3945C24.61 28.4099 25.0027 28.5245 25.3504 28.7284L26.1784 27.2927C25.302 26.7974 24.2775 26.6315 23.2896 26.8249C23.2896 26.795 23.2813 26.7661 23.2813 26.7354C23.2838 26.1311 23.5064 25.5483 23.9077 25.0964C24.3089 24.6444 24.8612 24.3543 25.461 24.2802C26.0608 24.2062 26.667 24.3534 27.1661 24.6943C27.6651 25.0351 28.0228 25.5462 28.1721 26.1318C28.2254 26.3288 28.2508 26.5323 28.2475 26.7363V35.0159C28.2475 35.6747 27.9858 36.3065 27.52 36.7723C27.0541 37.2382 26.4223 37.4999 25.7636 37.4999C25.1048 37.4999 24.473 37.2382 24.0072 36.7723C23.5414 36.3065 23.2797 35.6747 23.2797 35.0159Z" fill="#F71E36"/>
<path d="M60.5382 46.6075H58.0543V42.4676C58.0543 40.4913 57.2692 38.5959 55.8718 37.1985C54.4743 35.801 52.5789 35.0159 50.6026 35.0159C48.6263 35.0159 46.7309 35.801 45.3335 37.1985C43.936 38.5959 43.1509 40.4913 43.1509 42.4676V59.855C43.1509 61.6117 42.453 63.2965 41.2108 64.5387C39.9687 65.7809 38.2839 66.4787 36.5271 66.4787C34.7704 66.4787 33.0856 65.7809 31.8434 64.5387C30.6013 63.2965 29.9034 61.6117 29.9034 59.855V54.8209C31.164 54.6372 32.3291 54.0441 33.2194 53.1329C34.1096 52.2217 34.6755 51.0431 34.8298 49.7786C35.3202 49.6172 35.7476 49.3062 36.0521 48.8893C36.3566 48.4725 36.5228 47.9706 36.5274 47.4544C36.532 46.9382 36.3747 46.4335 36.0776 46.0113C35.7805 45.5891 35.3586 45.2706 34.8712 45.1006V44.3802C34.8626 43.7651 34.9955 43.1563 35.2597 42.6007C35.5239 42.0451 35.9122 41.5576 36.3947 41.176C37.9805 39.9678 39.2659 38.4097 40.1506 36.6231C41.0353 34.8365 41.4953 32.8697 41.495 30.8761C41.494 28.0061 40.4997 25.2249 38.6809 23.0048C36.8621 20.7847 34.331 19.2626 31.5173 18.6969C28.7036 18.1312 25.7808 18.5569 23.2454 19.9016C20.7099 21.2464 18.7181 23.4272 17.6081 26.0739C16.5406 28.6856 16.3636 31.5764 17.1045 34.2989C17.8454 37.0214 19.4628 39.4239 21.7065 41.1346C22.1995 41.5193 22.5976 42.0119 22.8703 42.5746C23.143 43.1373 23.2831 43.755 23.2796 44.3802V45.1006C22.7922 45.2706 22.3703 45.5891 22.0733 46.0113C21.7762 46.4335 21.6189 46.9382 21.6235 47.4544C21.628 47.9706 21.7942 48.4725 22.0987 48.8893C22.4032 49.3062 22.8307 49.6172 23.321 49.7786C23.4754 51.0431 24.0413 52.2217 24.9315 53.1329C25.8217 54.0441 26.9869 54.6372 28.2475 54.8209V59.855C28.2475 62.0509 29.1198 64.1569 30.6725 65.7096C32.2253 67.2623 34.3312 68.1347 36.5271 68.1347C38.7231 68.1347 40.829 67.2623 42.3818 65.7096C43.9345 64.1569 44.8068 62.0509 44.8068 59.855V42.4676C44.8068 40.9305 45.4175 39.4563 46.5044 38.3694C47.5913 37.2825 49.0655 36.6719 50.6026 36.6719C52.1398 36.6719 53.6139 37.2825 54.7009 38.3694C55.7878 39.4563 56.3984 40.9305 56.3984 42.4676V46.6075H53.9145C52.3779 46.6092 50.9047 47.2204 49.8182 48.307C48.7317 49.3935 48.1205 50.8667 48.1187 52.4033V62.3389C48.1205 63.8755 48.7317 65.3486 49.8182 66.4352C50.9047 67.5217 52.3779 68.1329 53.9145 68.1347H60.5382C62.0748 68.1329 63.548 67.5217 64.6345 66.4352C65.7211 65.3486 66.3323 63.8755 66.334 62.3389V52.4033C66.3323 50.8667 65.7211 49.3935 64.6345 48.307C63.548 47.2204 62.0748 46.6092 60.5382 46.6075ZM22.7083 39.8181C20.775 38.3122 19.3821 36.22 18.7387 33.8553C18.0952 31.4906 18.236 28.981 19.1398 26.7031C19.8386 25.0171 20.9585 23.5386 22.3922 22.4093C23.826 21.28 25.5256 20.5376 27.3284 20.2532C28.8689 20.0019 30.4456 20.0881 31.9494 20.5061C33.4532 20.9241 34.8483 21.6638 36.0381 22.6741C37.2279 23.6844 38.184 24.941 38.8403 26.3572C39.4966 27.7734 39.8373 29.3152 39.839 30.8761C39.8292 32.6108 39.4244 34.3206 38.6555 35.8757C37.8866 37.4307 36.7736 38.7903 35.4011 39.8513C34.7128 40.387 34.1574 41.0744 33.7783 41.86C33.3991 42.6455 33.2065 43.508 33.2153 44.3802V44.9515H24.9356V44.3802C24.9379 43.5001 24.7383 42.6312 24.3522 41.8403C23.9661 41.0494 23.4037 40.3576 22.7083 39.8181ZM24.1076 48.2634C23.888 48.2634 23.6774 48.1762 23.5222 48.0209C23.3669 47.8656 23.2796 47.655 23.2796 47.4355C23.2796 47.2159 23.3669 47.0053 23.5222 46.85C23.6774 46.6947 23.888 46.6075 24.1076 46.6075H34.0432C34.2628 46.6075 34.4734 46.6947 34.6287 46.85C34.784 47.0053 34.8712 47.2159 34.8712 47.4355C34.8712 47.655 34.784 47.8656 34.6287 48.0209C34.4734 48.1762 34.2628 48.2634 34.0432 48.2634H24.1076ZM25.0184 49.9194H33.1325C32.9424 50.8552 32.4347 51.6966 31.6953 52.3009C30.9559 52.9052 30.0304 53.2354 29.0754 53.2354C28.1205 53.2354 27.1949 52.9052 26.4555 52.3009C25.7161 51.6966 25.2084 50.8552 25.0184 49.9194ZM49.7746 52.4033C49.7746 51.3053 50.2108 50.2523 50.9872 49.476C51.7635 48.6996 52.8165 48.2634 53.9145 48.2634H56.3984V53.2312H49.7746V52.4033ZM64.6781 62.3389C64.6781 63.4368 64.2419 64.4898 63.4656 65.2662C62.6892 66.0426 61.6362 66.4787 60.5382 66.4787H53.9145C52.8165 66.4787 51.7635 66.0426 50.9872 65.2662C50.2108 64.4898 49.7746 63.4368 49.7746 62.3389V54.8872H64.6781V62.3389ZM64.6781 53.2312H58.0543V48.2634H60.5382C61.6362 48.2634 62.6892 48.6996 63.4656 49.476C64.2419 50.2523 64.6781 51.3053 64.6781 52.4033V53.2312Z" fill="#F71E36"/>
<path d="M65.5062 18.4567H43.979C43.7594 18.4567 43.5488 18.5439 43.3935 18.6992C43.2382 18.8544 43.151 19.065 43.151 19.2846V32.5321C43.151 32.7517 43.2382 32.9623 43.3935 33.1176C43.5488 33.2729 43.7594 33.3601 43.979 33.3601H65.5062C65.7257 33.3601 65.9363 33.2729 66.0916 33.1176C66.2469 32.9623 66.3341 32.7517 66.3341 32.5321V19.2846C66.3341 19.065 66.2469 18.8544 66.0916 18.6992C65.9363 18.5439 65.7257 18.4567 65.5062 18.4567ZM64.6782 31.7042H44.8069V20.1126H64.6782V31.7042Z" fill="#F71E36"/>
<path d="M49.7746 21.7684H46.4628V23.4244H49.7746V21.7684Z" fill="#F71E36"/>
<path d="M63.0222 21.7684H51.4307V23.4244H63.0222V21.7684Z" fill="#F71E36"/>
<path d="M63.0221 25.0803H46.4628V26.7363H63.0221V25.0803Z" fill="#F71E36"/>
<path d="M48.1187 28.3922H46.4628V30.0481H48.1187V28.3922Z" fill="#F71E36"/>
<path d="M63.0222 28.3922H49.7747V30.0481H63.0222V28.3922Z" fill="#F71E36"/>
</svg>
