<svg width="459" height="101" viewBox="0 0 459 101" fill="none" xmlns="http://www.w3.org/2000/svg">
<rect y="0.181885" width="459" height="100" rx="10" fill="white"/>
<rect x="15" y="15.1819" width="429" height="70" rx="10" fill="white"/>
<rect x="15" y="15.1819" width="86.5789" height="70" rx="10" fill="#F7F7F7"/>
<path d="M55.9392 30.2895C49.5699 31.1725 44.8243 35.0797 43.8674 40.2294C43.7998 40.5654 43.7611 42.1205 43.7611 44.0975C43.7611 47.2467 43.7708 47.4186 43.9641 47.7546C44.2637 48.2938 44.602 48.5986 45.1722 48.8565L45.6941 49.0987V49.8098C45.6941 50.4037 45.7328 50.5991 45.9261 50.9273C46.4287 51.8025 47.3855 52.287 48.613 52.287H49.3476L49.7438 52.873C49.9661 53.2013 50.4301 53.7404 50.7683 54.0843L51.3966 54.7094L50.5847 56.0222L49.7728 57.3272L47.1826 58.0227C43.2875 59.0698 41.8764 59.7184 39.9917 61.3282C37.6044 63.3678 36.2126 65.9856 36.058 68.6972L36 69.7521L36.2706 69.9631L36.5412 70.1819H58.2588H79.9764L80.247 69.9631L80.5177 69.7521L80.4597 68.6972C80.305 65.9856 78.9132 63.3678 76.526 61.3282C74.6413 59.7184 73.2301 59.0698 69.3351 58.0227L66.7448 57.3272L65.933 56.0144L65.1211 54.7094L65.585 54.2484C66.7932 53.0762 67.5277 51.7947 67.9143 50.1927L68.1656 49.1612H69.3737C70.4369 49.1612 70.6399 49.1378 71.0748 48.9737C71.703 48.7392 72.2346 48.3095 72.5246 47.8015L72.7565 47.403V44.0975C72.7565 42.1283 72.7179 40.5654 72.6502 40.2294C72.1863 37.7132 70.8428 35.5173 68.6585 33.7044C66.4162 31.8368 63.5457 30.649 60.3175 30.2582C59.3993 30.141 56.8477 30.1645 55.9392 30.2895ZM60.3465 31.9305C65.2564 32.626 69.1611 35.572 70.3886 39.5105C70.5046 39.8934 70.6399 40.4169 70.6785 40.6592L70.7365 41.1124H69.828H68.9195L68.8615 40.4247C68.7648 39.2448 68.1656 37.8773 67.2861 36.7989C66.0103 35.2594 64.0966 34.1264 61.7866 33.5559C60.9264 33.3449 60.8781 33.3371 58.2588 33.3371C55.6396 33.3371 55.5913 33.3449 54.7311 33.5559C52.4211 34.1264 50.5074 35.2594 49.2316 36.7989C48.3521 37.8773 47.7528 39.2448 47.6562 40.4247L47.5982 41.1124H46.6993C46.0324 41.1124 45.7908 41.089 45.7908 41.0108C45.8101 40.2606 46.39 38.5806 46.9699 37.5803C47.6078 36.4863 48.3037 35.7049 49.4539 34.775C51.4352 33.1652 53.7259 32.2353 56.6158 31.868C57.273 31.7821 59.5636 31.8211 60.3465 31.9305ZM60.8104 35.0641C61.6706 35.2204 63.2557 35.8377 63.9806 36.2988C65.1984 37.0802 66.2712 38.4477 66.6675 39.7371C66.8995 40.4951 66.9381 41.8157 66.7255 41.8157C66.6578 41.8157 66.0876 41.7454 65.469 41.6594C62.5212 41.2453 59.7569 40.1591 57.5823 38.5649L56.7607 37.9632L55.6976 38.0101C53.6389 38.0961 51.6672 38.7994 50.2078 39.9871C49.5699 40.4951 49.5795 40.5107 49.9661 39.4323C50.8263 37.0099 53.5326 35.2047 56.7027 34.9312C57.7272 34.8453 59.9889 34.9156 60.8104 35.0641ZM56.1905 39.7918C56.5384 40.1122 58.0365 41.0108 58.9741 41.4562C60.8684 42.3705 62.9464 42.98 65.2081 43.2926C65.8653 43.3864 66.5129 43.4567 66.6385 43.4567C66.8608 43.4567 66.8705 43.4802 66.8221 43.7459C66.7932 43.91 66.7448 44.4101 66.7158 44.8633C66.5999 46.434 66.1263 49.2315 65.788 50.3724C65.5367 51.1773 64.7731 52.4198 64.1256 53.0684C62.6565 54.5297 60.6075 55.3346 58.3555 55.3502C56.7414 55.358 55.5526 55.0923 54.2478 54.4125C53.4939 54.0218 52.4694 53.2247 51.9862 52.6542L51.6769 52.287H52.5951H53.5036L53.8032 52.7089C54.1221 53.17 54.4991 53.4435 55.166 53.6857C55.5526 53.8264 55.8039 53.8498 57.2923 53.8498C58.8677 53.8498 59.0127 53.8342 59.4766 53.6623C60.5591 53.256 61.1584 52.4823 61.1584 51.5055C61.1584 50.5287 60.5591 49.7551 59.4766 49.3488C59.0127 49.1768 58.8677 49.1612 57.2923 49.1612C55.8039 49.1612 55.5526 49.1847 55.166 49.3253C54.4991 49.5676 54.1221 49.8411 53.8032 50.3021L53.5036 50.7241H52.1601H50.8263L50.72 50.4193C50.4301 49.5441 49.9178 46.2308 49.7052 43.8474L49.6472 43.1754L50.4107 42.3627C51.8218 40.8467 52.9913 40.1278 54.5957 39.784C55.5623 39.5808 55.9585 39.5886 56.1905 39.7918ZM47.6658 43.7068C47.7335 44.7305 47.9655 46.9576 48.0621 47.3952L48.1104 47.614L47.2599 47.5827C45.7328 47.5202 45.7521 47.5515 45.7135 44.8399L45.6845 42.6753H46.6413H47.5982L47.6658 43.7068ZM70.8042 44.8399C70.7655 47.5515 70.7849 47.5202 69.2578 47.5827L68.4072 47.614L68.4556 47.3952C68.5425 46.9576 68.7842 44.7383 68.8518 43.7068L68.9098 42.6753H69.8763H70.8332L70.8042 44.8399ZM48.4777 49.6848C48.5357 49.9817 48.613 50.3256 48.6517 50.4584C48.7097 50.6928 48.6903 50.7007 48.4584 50.6694C47.9268 50.5834 47.6272 50.1536 47.6272 49.466C47.6272 49.1612 47.6272 49.1612 48.0041 49.1612H48.3714L48.4777 49.6848ZM58.3458 50.771C59.38 50.9429 59.38 52.0682 58.3458 52.2401C57.9495 52.3026 56.6351 52.3026 56.2388 52.2401C55.5043 52.1151 55.195 51.4274 55.7072 51.0132C55.8425 50.9038 56.0455 50.7944 56.1615 50.7788C56.5094 50.7241 58.0172 50.7241 58.3458 50.771ZM64.8215 58.0774C64.8311 58.2572 63.9709 59.9919 63.3427 61.0781L62.7918 62.008L61.2067 60.7265L59.612 59.4449L59.9309 59.1636C60.1049 59.0151 61.0037 58.2415 61.9316 57.4601L63.6133 56.0222L64.2126 56.9912C64.5508 57.5148 64.8215 58.0071 64.8215 58.0774ZM54.7504 57.9289L56.7027 59.5153L55.2143 60.7656L53.7355 62.0159L53.1846 61.0781C52.5951 60.0779 51.6865 58.265 51.6865 58.093C51.6865 57.9758 52.6724 56.3504 52.7497 56.3504C52.7787 56.3504 53.6776 57.0616 54.7504 57.9289ZM58.3748 56.999H59.6023L58.9161 57.5929C58.5391 57.9211 58.2105 58.1946 58.1718 58.2103C58.1428 58.2181 57.7369 57.9211 57.2923 57.5539C56.4901 56.8974 56.4804 56.8818 56.8091 56.9443C56.9927 56.9756 57.6983 56.999 58.3748 56.999ZM50.3817 60.0388C51.4159 62.1409 52.8174 64.1961 55.079 66.9155C55.5913 67.5328 56.1035 68.1658 56.2195 68.3221L56.4418 68.619H47.2502C39.5374 68.619 38.0587 68.6034 38.0587 68.5096C38.0587 68.2205 38.3776 66.9936 38.5999 66.4154C39.5568 63.9773 41.6348 61.883 44.2927 60.6796C44.9016 60.4061 49.3862 59.1011 49.7632 59.0933C49.8695 59.0855 50.0531 59.3746 50.3817 60.0388ZM69.1418 59.7106C70.4466 60.0701 71.7707 60.4842 72.1766 60.664C74.8442 61.8439 76.9512 63.9616 77.9177 66.4154C78.14 66.9936 78.459 68.2205 78.459 68.5096C78.459 68.6034 76.9802 68.619 69.2674 68.619H60.0759L60.2982 68.3221C60.4142 68.1658 60.9264 67.5328 61.4387 66.9155C63.6713 64.2351 65.1307 62.1018 66.1359 60.0388C66.3969 59.5153 66.6578 59.0855 66.7158 59.0855C66.7738 59.0855 67.866 59.3668 69.1418 59.7106ZM59.9502 62.1331L61.69 63.5397L61.516 63.7975C61.4193 63.9382 60.9941 64.4618 60.5785 64.9541C60.1629 65.4464 59.4766 66.2747 59.0707 66.7983C58.6648 67.3296 58.2975 67.7594 58.2685 67.7594C58.2395 67.7594 57.8722 67.3296 57.4566 66.7983C57.041 66.2747 56.2871 65.3526 55.7846 64.7587C55.282 64.1648 54.876 63.6256 54.876 63.5709C54.876 63.4772 58.0365 60.7265 58.1525 60.7265C58.1815 60.7265 58.9934 61.3595 59.9502 62.1331Z" fill="#FF3E54"/>
<path d="M68.1754 61.3204C67.9724 61.4845 67.9241 61.6017 67.9241 61.8986C67.9241 62.1956 67.9724 62.3128 68.1754 62.4769C68.3783 62.641 68.5233 62.6801 68.8906 62.6801C69.5285 62.6801 69.8571 62.4144 69.8571 61.8986C69.8571 61.6017 69.8088 61.4845 69.6058 61.3204C69.2385 61.0313 68.5426 61.0313 68.1754 61.3204Z" fill="#FF3E54"/>
<path d="M71.5871 62.8286C71.3648 63.0083 71.3068 63.1255 71.3068 63.3834C71.3068 63.696 71.3648 63.7585 72.1186 64.3914C73.0851 65.1885 73.2108 65.3057 73.6747 65.9465C74.071 66.4935 74.2256 66.5873 74.7862 66.5873C75.2985 66.5873 75.7527 66.2434 75.7527 65.8449C75.7527 65.212 73.984 63.2818 72.9015 62.7426C72.4472 62.5238 71.9253 62.5551 71.5871 62.8286Z" fill="#FF3E54"/>
<path d="M127.959 44.2819C127.039 44.2819 126.166 44.0952 125.339 43.7219C124.526 43.3486 123.806 42.8352 123.179 42.1819C122.566 41.5152 122.086 40.7419 121.739 39.8619C121.392 38.9819 121.219 38.0286 121.219 37.0019C121.219 36.0286 121.392 35.1152 121.739 34.2619C122.086 33.3952 122.572 32.6352 123.199 31.9819C123.826 31.3286 124.559 30.8152 125.399 30.4419C126.239 30.0686 127.152 29.8819 128.139 29.8819C129.472 29.8819 130.612 30.1686 131.559 30.7419C132.519 31.3019 133.239 32.0486 133.719 32.9819L131.659 34.5019C131.299 33.7952 130.792 33.2552 130.139 32.8819C129.499 32.5086 128.799 32.3219 128.039 32.3219C127.439 32.3219 126.892 32.4486 126.399 32.7019C125.906 32.9552 125.479 33.3019 125.119 33.7419C124.759 34.1819 124.479 34.6886 124.279 35.2619C124.092 35.8352 123.999 36.4419 123.999 37.0819C123.999 37.7619 124.099 38.3886 124.299 38.9619C124.512 39.5352 124.806 40.0352 125.179 40.4619C125.566 40.8886 126.012 41.2286 126.519 41.4819C127.026 41.7219 127.586 41.8419 128.199 41.8419C128.919 41.8419 129.606 41.6552 130.259 41.2819C130.926 40.9086 131.546 40.3619 132.119 39.6419V42.3619C130.932 43.6419 129.546 44.2819 127.959 44.2819ZM131.919 38.9019H129.059V36.8819H134.199V44.1819H131.919V38.9019ZM141.151 44.3819C140.311 44.3819 139.551 44.2419 138.871 43.9619C138.191 43.6686 137.611 43.2752 137.131 42.7819C136.651 42.2752 136.278 41.7019 136.011 41.0619C135.758 40.4086 135.631 39.7219 135.631 39.0019C135.631 38.0019 135.851 37.0886 136.291 36.2619C136.745 35.4352 137.385 34.7752 138.211 34.2819C139.051 33.7752 140.038 33.5219 141.171 33.5219C142.318 33.5219 143.298 33.7752 144.111 34.2819C144.925 34.7752 145.545 35.4352 145.971 36.2619C146.411 37.0752 146.631 37.9552 146.631 38.9019C146.631 39.0619 146.625 39.2286 146.611 39.4019C146.598 39.5619 146.585 39.6952 146.571 39.8019H138.471C138.525 40.3352 138.678 40.8019 138.931 41.2019C139.198 41.6019 139.531 41.9086 139.931 42.1219C140.345 42.3219 140.785 42.4219 141.251 42.4219C141.785 42.4219 142.285 42.2952 142.751 42.0419C143.231 41.7752 143.558 41.4286 143.731 41.0019L146.031 41.6419C145.778 42.1752 145.411 42.6486 144.931 43.0619C144.465 43.4752 143.911 43.8019 143.271 44.0419C142.631 44.2686 141.925 44.3819 141.151 44.3819ZM138.411 38.1019H143.891C143.838 37.5686 143.685 37.1086 143.431 36.7219C143.191 36.3219 142.871 36.0152 142.471 35.8019C142.071 35.5752 141.625 35.4619 141.131 35.4619C140.651 35.4619 140.211 35.5752 139.811 35.8019C139.425 36.0152 139.105 36.3219 138.851 36.7219C138.611 37.1086 138.465 37.5686 138.411 38.1019ZM154.446 43.6419C154.22 43.7352 153.946 43.8419 153.626 43.9619C153.306 44.0819 152.96 44.1752 152.586 44.2419C152.226 44.3219 151.86 44.3619 151.486 44.3619C150.993 44.3619 150.54 44.2752 150.126 44.1019C149.713 43.9286 149.38 43.6552 149.126 43.2819C148.886 42.8952 148.766 42.3952 148.766 41.7819V35.7619H147.386V33.7019H148.766V30.3019H151.446V33.7019H153.646V35.7619H151.446V40.8819C151.46 41.2419 151.56 41.5019 151.746 41.6619C151.933 41.8219 152.166 41.9019 152.446 41.9019C152.726 41.9019 153 41.8552 153.266 41.7619C153.533 41.6686 153.746 41.5886 153.906 41.5219L154.446 43.6419ZM160.907 44.1819V29.9819H163.667V44.1819H160.907ZM176.109 44.1819H173.429V38.3019C173.429 37.4619 173.283 36.8486 172.989 36.4619C172.696 36.0752 172.289 35.8819 171.769 35.8819C171.409 35.8819 171.043 35.9752 170.669 36.1619C170.309 36.3486 169.983 36.6086 169.689 36.9419C169.396 37.2619 169.183 37.6352 169.049 38.0619V44.1819H166.369V33.7019H168.789V35.6419C169.056 35.1886 169.396 34.8086 169.809 34.5019C170.223 34.1819 170.696 33.9419 171.229 33.7819C171.776 33.6086 172.349 33.5219 172.949 33.5219C173.603 33.5219 174.136 33.6419 174.549 33.8819C174.976 34.1086 175.296 34.4219 175.509 34.8219C175.736 35.2086 175.889 35.6486 175.969 36.1419C176.063 36.6352 176.109 37.1352 176.109 37.6419V44.1819ZM182.3 44.3819C181.406 44.3819 180.553 44.2352 179.74 43.9419C178.926 43.6486 178.226 43.2152 177.64 42.6419L178.6 40.9019C179.226 41.4086 179.84 41.7819 180.44 42.0219C181.053 42.2619 181.64 42.3819 182.2 42.3819C182.72 42.3819 183.133 42.2886 183.44 42.1019C183.76 41.9152 183.92 41.6352 183.92 41.2619C183.92 41.0086 183.833 40.8152 183.66 40.6819C183.486 40.5352 183.233 40.4086 182.9 40.3019C182.58 40.1952 182.186 40.0752 181.72 39.9419C180.946 39.6886 180.3 39.4419 179.78 39.2019C179.26 38.9619 178.866 38.6619 178.6 38.3019C178.346 37.9286 178.22 37.4552 178.22 36.8819C178.22 36.1886 178.393 35.5952 178.74 35.1019C179.1 34.5952 179.593 34.2019 180.22 33.9219C180.86 33.6419 181.606 33.5019 182.46 33.5019C183.206 33.5019 183.913 33.6219 184.58 33.8619C185.246 34.0886 185.853 34.4619 186.4 34.9819L185.32 36.6819C184.786 36.2686 184.28 35.9686 183.8 35.7819C183.32 35.5819 182.833 35.4819 182.34 35.4819C182.06 35.4819 181.793 35.5152 181.54 35.5819C181.3 35.6486 181.1 35.7619 180.94 35.9219C180.793 36.0686 180.72 36.2819 180.72 36.5619C180.72 36.8152 180.786 37.0152 180.92 37.1619C181.066 37.2952 181.28 37.4152 181.56 37.5219C181.853 37.6286 182.206 37.7486 182.62 37.8819C183.46 38.1219 184.166 38.3686 184.74 38.6219C185.326 38.8752 185.766 39.1886 186.06 39.5619C186.353 39.9219 186.5 40.4219 186.5 41.0619C186.5 42.1019 186.12 42.9152 185.36 43.5019C184.6 44.0886 183.58 44.3819 182.3 44.3819ZM194.544 43.6419C194.317 43.7352 194.044 43.8419 193.724 43.9619C193.404 44.0819 193.057 44.1752 192.684 44.2419C192.324 44.3219 191.957 44.3619 191.584 44.3619C191.09 44.3619 190.637 44.2752 190.224 44.1019C189.81 43.9286 189.477 43.6552 189.224 43.2819C188.984 42.8952 188.864 42.3952 188.864 41.7819V35.7619H187.484V33.7019H188.864V30.3019H191.544V33.7019H193.744V35.7619H191.544V40.8819C191.557 41.2419 191.657 41.5019 191.844 41.6619C192.03 41.8219 192.264 41.9019 192.544 41.9019C192.824 41.9019 193.097 41.8552 193.364 41.7619C193.63 41.6686 193.844 41.5886 194.004 41.5219L194.544 43.6419ZM195.22 41.0819C195.22 40.4019 195.406 39.8086 195.78 39.3019C196.166 38.7819 196.7 38.3819 197.38 38.1019C198.06 37.8219 198.84 37.6819 199.72 37.6819C200.16 37.6819 200.606 37.7152 201.06 37.7819C201.513 37.8486 201.906 37.9552 202.24 38.1019V37.5419C202.24 36.8752 202.04 36.3619 201.64 36.0019C201.253 35.6419 200.673 35.4619 199.9 35.4619C199.326 35.4619 198.78 35.5619 198.26 35.7619C197.74 35.9619 197.193 36.2552 196.62 36.6419L195.76 34.8819C196.453 34.4286 197.16 34.0886 197.88 33.8619C198.613 33.6352 199.38 33.5219 200.18 33.5219C201.673 33.5219 202.833 33.8952 203.66 34.6419C204.5 35.3886 204.92 36.4552 204.92 37.8419V41.1819C204.92 41.4619 204.966 41.6619 205.06 41.7819C205.166 41.9019 205.333 41.9752 205.56 42.0019V44.1819C205.32 44.2219 205.1 44.2552 204.9 44.2819C204.713 44.3086 204.553 44.3219 204.42 44.3219C203.886 44.3219 203.48 44.2019 203.2 43.9619C202.933 43.7219 202.766 43.4286 202.7 43.0819L202.64 42.5419C202.186 43.1286 201.62 43.5819 200.94 43.9019C200.26 44.2219 199.566 44.3819 198.86 44.3819C198.166 44.3819 197.54 44.2419 196.98 43.9619C196.433 43.6686 196 43.2752 195.68 42.7819C195.373 42.2752 195.22 41.7086 195.22 41.0819ZM201.74 41.6219C201.886 41.4619 202.006 41.3019 202.1 41.1419C202.193 40.9819 202.24 40.8352 202.24 40.7019V39.6419C201.92 39.5086 201.573 39.4086 201.2 39.3419C200.826 39.2619 200.473 39.2219 200.14 39.2219C199.446 39.2219 198.873 39.3752 198.42 39.6819C197.98 39.9752 197.76 40.3686 197.76 40.8619C197.76 41.1286 197.833 41.3819 197.98 41.6219C198.126 41.8619 198.34 42.0552 198.62 42.2019C198.9 42.3486 199.233 42.4219 199.62 42.4219C200.02 42.4219 200.413 42.3486 200.8 42.2019C201.186 42.0419 201.5 41.8486 201.74 41.6219ZM217.164 44.1819H214.484V38.3019C214.484 37.4619 214.337 36.8486 214.044 36.4619C213.751 36.0752 213.344 35.8819 212.824 35.8819C212.464 35.8819 212.097 35.9752 211.724 36.1619C211.364 36.3486 211.037 36.6086 210.744 36.9419C210.451 37.2619 210.237 37.6352 210.104 38.0619V44.1819H207.424V33.7019H209.844V35.6419C210.111 35.1886 210.451 34.8086 210.864 34.5019C211.277 34.1819 211.751 33.9419 212.284 33.7819C212.831 33.6086 213.404 33.5219 214.004 33.5219C214.657 33.5219 215.191 33.6419 215.604 33.8819C216.031 34.1086 216.351 34.4219 216.564 34.8219C216.791 35.2086 216.944 35.6486 217.024 36.1419C217.117 36.6352 217.164 37.1352 217.164 37.6419V44.1819ZM225.716 43.6419C225.489 43.7352 225.216 43.8419 224.896 43.9619C224.576 44.0819 224.229 44.1752 223.856 44.2419C223.496 44.3219 223.129 44.3619 222.756 44.3619C222.262 44.3619 221.809 44.2752 221.396 44.1019C220.982 43.9286 220.649 43.6552 220.396 43.2819C220.156 42.8952 220.036 42.3952 220.036 41.7819V35.7619H218.656V33.7019H220.036V30.3019H222.716V33.7019H224.916V35.7619H222.716V40.8819C222.729 41.2419 222.829 41.5019 223.016 41.6619C223.202 41.8219 223.436 41.9019 223.716 41.9019C223.996 41.9019 224.269 41.8552 224.536 41.7619C224.802 41.6686 225.016 41.5886 225.176 41.5219L225.716 43.6419ZM232.176 44.1819V29.9819H238.196C238.85 29.9819 239.45 30.1152 239.996 30.3819C240.543 30.6486 241.016 31.0086 241.416 31.4619C241.83 31.9152 242.15 32.4219 242.376 32.9819C242.603 33.5419 242.716 34.1152 242.716 34.7019C242.716 35.5019 242.53 36.2619 242.156 36.9819C241.783 37.7019 241.27 38.2886 240.616 38.7419C239.963 39.1952 239.19 39.4219 238.296 39.4219H234.936V44.1819H232.176ZM234.936 37.0019H238.136C238.47 37.0019 238.77 36.9086 239.036 36.7219C239.303 36.5352 239.516 36.2686 239.676 35.9219C239.836 35.5619 239.916 35.1552 239.916 34.7019C239.916 34.2086 239.823 33.7886 239.636 33.4419C239.463 33.0952 239.23 32.8352 238.936 32.6619C238.656 32.4886 238.35 32.4019 238.016 32.4019H234.936V37.0019ZM250.617 36.0219C249.804 36.0219 249.077 36.1819 248.437 36.5019C247.797 36.8086 247.337 37.2552 247.057 37.8419V44.1819H244.377V33.7019H246.837V35.9419C247.21 35.2219 247.684 34.6552 248.257 34.2419C248.83 33.8286 249.437 33.6019 250.077 33.5619C250.224 33.5619 250.337 33.5619 250.417 33.5619C250.497 33.5619 250.564 33.5686 250.617 33.5819V36.0219ZM256.815 44.3819C255.961 44.3819 255.195 44.2419 254.515 43.9619C253.835 43.6686 253.255 43.2686 252.775 42.7619C252.308 42.2552 251.948 41.6752 251.695 41.0219C251.441 40.3686 251.315 39.6819 251.315 38.9619C251.315 38.2286 251.441 37.5352 251.695 36.8819C251.948 36.2286 252.308 35.6486 252.775 35.1419C253.255 34.6352 253.835 34.2419 254.515 33.9619C255.195 33.6686 255.961 33.5219 256.815 33.5219C257.668 33.5219 258.428 33.6686 259.095 33.9619C259.775 34.2419 260.355 34.6352 260.835 35.1419C261.315 35.6486 261.675 36.2286 261.915 36.8819C262.168 37.5352 262.295 38.2286 262.295 38.9619C262.295 39.6819 262.168 40.3686 261.915 41.0219C261.675 41.6752 261.315 42.2552 260.835 42.7619C260.368 43.2686 259.795 43.6686 259.115 43.9619C258.435 44.2419 257.668 44.3819 256.815 44.3819ZM254.075 38.9619C254.075 39.5752 254.195 40.1219 254.435 40.6019C254.675 41.0686 255.001 41.4352 255.415 41.7019C255.828 41.9686 256.295 42.1019 256.815 42.1019C257.321 42.1019 257.781 41.9686 258.195 41.7019C258.608 41.4219 258.935 41.0486 259.175 40.5819C259.428 40.1019 259.555 39.5552 259.555 38.9419C259.555 38.3419 259.428 37.8019 259.175 37.3219C258.935 36.8419 258.608 36.4686 258.195 36.2019C257.781 35.9352 257.321 35.8019 256.815 35.8019C256.295 35.8019 255.828 35.9419 255.415 36.2219C255.001 36.4886 254.675 36.8619 254.435 37.3419C254.195 37.8086 254.075 38.3486 254.075 38.9619ZM264.646 44.1819V36.3019H263.266V34.2619H264.646V33.6219C264.646 32.7552 264.786 32.0086 265.066 31.3819C265.359 30.7419 265.766 30.2486 266.286 29.9019C266.819 29.5552 267.439 29.3819 268.146 29.3819C268.573 29.3819 268.999 29.4352 269.426 29.5419C269.866 29.6486 270.299 29.8019 270.726 30.0019L270.186 32.0219C269.986 31.9152 269.753 31.8286 269.486 31.7619C269.219 31.6819 268.966 31.6419 268.726 31.6419C268.273 31.6419 267.926 31.8019 267.686 32.1219C267.446 32.4419 267.326 32.9086 267.326 33.5219V34.2619H269.886V36.3019H267.326V44.1819H264.646ZM276.132 44.3819C275.292 44.3819 274.532 44.2419 273.852 43.9619C273.172 43.6686 272.592 43.2752 272.112 42.7819C271.632 42.2752 271.258 41.7019 270.992 41.0619C270.738 40.4086 270.612 39.7219 270.612 39.0019C270.612 38.0019 270.832 37.0886 271.272 36.2619C271.725 35.4352 272.365 34.7752 273.192 34.2819C274.032 33.7752 275.018 33.5219 276.152 33.5219C277.298 33.5219 278.278 33.7752 279.092 34.2819C279.905 34.7752 280.525 35.4352 280.952 36.2619C281.392 37.0752 281.612 37.9552 281.612 38.9019C281.612 39.0619 281.605 39.2286 281.592 39.4019C281.578 39.5619 281.565 39.6952 281.552 39.8019H273.452C273.505 40.3352 273.658 40.8019 273.912 41.2019C274.178 41.6019 274.512 41.9086 274.912 42.1219C275.325 42.3219 275.765 42.4219 276.232 42.4219C276.765 42.4219 277.265 42.2952 277.732 42.0419C278.212 41.7752 278.538 41.4286 278.712 41.0019L281.012 41.6419C280.758 42.1752 280.392 42.6486 279.912 43.0619C279.445 43.4752 278.892 43.8019 278.252 44.0419C277.612 44.2686 276.905 44.3819 276.132 44.3819ZM273.392 38.1019H278.872C278.818 37.5686 278.665 37.1086 278.412 36.7219C278.172 36.3219 277.852 36.0152 277.452 35.8019C277.052 35.5752 276.605 35.4619 276.112 35.4619C275.632 35.4619 275.192 35.5752 274.792 35.8019C274.405 36.0152 274.085 36.3219 273.832 36.7219C273.592 37.1086 273.445 37.5686 273.392 38.1019ZM287.104 44.3819C286.211 44.3819 285.358 44.2352 284.544 43.9419C283.731 43.6486 283.031 43.2152 282.444 42.6419L283.404 40.9019C284.031 41.4086 284.644 41.7819 285.244 42.0219C285.858 42.2619 286.444 42.3819 287.004 42.3819C287.524 42.3819 287.938 42.2886 288.244 42.1019C288.564 41.9152 288.724 41.6352 288.724 41.2619C288.724 41.0086 288.638 40.8152 288.464 40.6819C288.291 40.5352 288.038 40.4086 287.704 40.3019C287.384 40.1952 286.991 40.0752 286.524 39.9419C285.751 39.6886 285.104 39.4419 284.584 39.2019C284.064 38.9619 283.671 38.6619 283.404 38.3019C283.151 37.9286 283.024 37.4552 283.024 36.8819C283.024 36.1886 283.198 35.5952 283.544 35.1019C283.904 34.5952 284.398 34.2019 285.024 33.9219C285.664 33.6419 286.411 33.5019 287.264 33.5019C288.011 33.5019 288.718 33.6219 289.384 33.8619C290.051 34.0886 290.658 34.4619 291.204 34.9819L290.124 36.6819C289.591 36.2686 289.084 35.9686 288.604 35.7819C288.124 35.5819 287.638 35.4819 287.144 35.4819C286.864 35.4819 286.598 35.5152 286.344 35.5819C286.104 35.6486 285.904 35.7619 285.744 35.9219C285.598 36.0686 285.524 36.2819 285.524 36.5619C285.524 36.8152 285.591 37.0152 285.724 37.1619C285.871 37.2952 286.084 37.4152 286.364 37.5219C286.658 37.6286 287.011 37.7486 287.424 37.8819C288.264 38.1219 288.971 38.3686 289.544 38.6219C290.131 38.8752 290.571 39.1886 290.864 39.5619C291.158 39.9219 291.304 40.4219 291.304 41.0619C291.304 42.1019 290.924 42.9152 290.164 43.5019C289.404 44.0886 288.384 44.3819 287.104 44.3819ZM296.987 44.3819C296.094 44.3819 295.24 44.2352 294.427 43.9419C293.614 43.6486 292.914 43.2152 292.327 42.6419L293.287 40.9019C293.914 41.4086 294.527 41.7819 295.127 42.0219C295.74 42.2619 296.327 42.3819 296.887 42.3819C297.407 42.3819 297.82 42.2886 298.127 42.1019C298.447 41.9152 298.607 41.6352 298.607 41.2619C298.607 41.0086 298.52 40.8152 298.347 40.6819C298.174 40.5352 297.92 40.4086 297.587 40.3019C297.267 40.1952 296.874 40.0752 296.407 39.9419C295.634 39.6886 294.987 39.4419 294.467 39.2019C293.947 38.9619 293.554 38.6619 293.287 38.3019C293.034 37.9286 292.907 37.4552 292.907 36.8819C292.907 36.1886 293.08 35.5952 293.427 35.1019C293.787 34.5952 294.28 34.2019 294.907 33.9219C295.547 33.6419 296.294 33.5019 297.147 33.5019C297.894 33.5019 298.6 33.6219 299.267 33.8619C299.934 34.0886 300.54 34.4619 301.087 34.9819L300.007 36.6819C299.474 36.2686 298.967 35.9686 298.487 35.7819C298.007 35.5819 297.52 35.4819 297.027 35.4819C296.747 35.4819 296.48 35.5152 296.227 35.5819C295.987 35.6486 295.787 35.7619 295.627 35.9219C295.48 36.0686 295.407 36.2819 295.407 36.5619C295.407 36.8152 295.474 37.0152 295.607 37.1619C295.754 37.2952 295.967 37.4152 296.247 37.5219C296.54 37.6286 296.894 37.7486 297.307 37.8819C298.147 38.1219 298.854 38.3686 299.427 38.6219C300.014 38.8752 300.454 39.1886 300.747 39.5619C301.04 39.9219 301.187 40.4219 301.187 41.0619C301.187 42.1019 300.807 42.9152 300.047 43.5019C299.287 44.0886 298.267 44.3819 296.987 44.3819ZM303.01 44.1819V33.7019H305.69V44.1819H303.01ZM303.01 32.2419V29.5819H305.69V32.2419H303.01ZM312.948 44.3819C312.094 44.3819 311.328 44.2419 310.648 43.9619C309.968 43.6686 309.388 43.2686 308.908 42.7619C308.441 42.2552 308.081 41.6752 307.828 41.0219C307.574 40.3686 307.448 39.6819 307.448 38.9619C307.448 38.2286 307.574 37.5352 307.828 36.8819C308.081 36.2286 308.441 35.6486 308.908 35.1419C309.388 34.6352 309.968 34.2419 310.648 33.9619C311.328 33.6686 312.094 33.5219 312.948 33.5219C313.801 33.5219 314.561 33.6686 315.228 33.9619C315.908 34.2419 316.488 34.6352 316.968 35.1419C317.448 35.6486 317.808 36.2286 318.048 36.8819C318.301 37.5352 318.428 38.2286 318.428 38.9619C318.428 39.6819 318.301 40.3686 318.048 41.0219C317.808 41.6752 317.448 42.2552 316.968 42.7619C316.501 43.2686 315.928 43.6686 315.248 43.9619C314.568 44.2419 313.801 44.3819 312.948 44.3819ZM310.208 38.9619C310.208 39.5752 310.328 40.1219 310.568 40.6019C310.808 41.0686 311.134 41.4352 311.548 41.7019C311.961 41.9686 312.428 42.1019 312.948 42.1019C313.454 42.1019 313.914 41.9686 314.328 41.7019C314.741 41.4219 315.068 41.0486 315.308 40.5819C315.561 40.1019 315.688 39.5552 315.688 38.9419C315.688 38.3419 315.561 37.8019 315.308 37.3219C315.068 36.8419 314.741 36.4686 314.328 36.2019C313.914 35.9352 313.454 35.8019 312.948 35.8019C312.428 35.8019 311.961 35.9419 311.548 36.2219C311.134 36.4886 310.808 36.8619 310.568 37.3419C310.328 37.8086 310.208 38.3486 310.208 38.9619ZM329.976 44.1819H327.296V38.3019C327.296 37.4619 327.15 36.8486 326.856 36.4619C326.563 36.0752 326.156 35.8819 325.636 35.8819C325.276 35.8819 324.91 35.9752 324.536 36.1619C324.176 36.3486 323.85 36.6086 323.556 36.9419C323.263 37.2619 323.05 37.6352 322.916 38.0619V44.1819H320.236V33.7019H322.656V35.6419C322.923 35.1886 323.263 34.8086 323.676 34.5019C324.09 34.1819 324.563 33.9419 325.096 33.7819C325.643 33.6086 326.216 33.5219 326.816 33.5219C327.47 33.5219 328.003 33.6419 328.416 33.8819C328.843 34.1086 329.163 34.4219 329.376 34.8219C329.603 35.2086 329.756 35.6486 329.836 36.1419C329.93 36.6352 329.976 37.1352 329.976 37.6419V44.1819ZM331.587 41.0819C331.587 40.4019 331.773 39.8086 332.147 39.3019C332.533 38.7819 333.067 38.3819 333.747 38.1019C334.427 37.8219 335.207 37.6819 336.087 37.6819C336.527 37.6819 336.973 37.7152 337.427 37.7819C337.88 37.8486 338.273 37.9552 338.607 38.1019V37.5419C338.607 36.8752 338.407 36.3619 338.007 36.0019C337.62 35.6419 337.04 35.4619 336.267 35.4619C335.693 35.4619 335.147 35.5619 334.627 35.7619C334.107 35.9619 333.56 36.2552 332.987 36.6419L332.127 34.8819C332.82 34.4286 333.527 34.0886 334.247 33.8619C334.98 33.6352 335.747 33.5219 336.547 33.5219C338.04 33.5219 339.2 33.8952 340.027 34.6419C340.867 35.3886 341.287 36.4552 341.287 37.8419V41.1819C341.287 41.4619 341.333 41.6619 341.427 41.7819C341.533 41.9019 341.7 41.9752 341.927 42.0019V44.1819C341.687 44.2219 341.467 44.2552 341.267 44.2819C341.08 44.3086 340.92 44.3219 340.787 44.3219C340.253 44.3219 339.847 44.2019 339.567 43.9619C339.3 43.7219 339.133 43.4286 339.067 43.0819L339.007 42.5419C338.553 43.1286 337.987 43.5819 337.307 43.9019C336.627 44.2219 335.933 44.3819 335.227 44.3819C334.533 44.3819 333.907 44.2419 333.347 43.9619C332.8 43.6686 332.367 43.2752 332.047 42.7819C331.74 42.2752 331.587 41.7086 331.587 41.0819ZM338.107 41.6219C338.253 41.4619 338.373 41.3019 338.467 41.1419C338.56 40.9819 338.607 40.8352 338.607 40.7019V39.6419C338.287 39.5086 337.94 39.4086 337.567 39.3419C337.193 39.2619 336.84 39.2219 336.507 39.2219C335.813 39.2219 335.24 39.3752 334.787 39.6819C334.347 39.9752 334.127 40.3686 334.127 40.8619C334.127 41.1286 334.2 41.3819 334.347 41.6219C334.493 41.8619 334.707 42.0552 334.987 42.2019C335.267 42.3486 335.6 42.4219 335.987 42.4219C336.387 42.4219 336.78 42.3486 337.167 42.2019C337.553 42.0419 337.867 41.8486 338.107 41.6219ZM343.771 29.5819H346.451V40.8219C346.451 41.3019 346.531 41.6286 346.691 41.8019C346.851 41.9619 347.071 42.0419 347.351 42.0419C347.565 42.0419 347.785 42.0152 348.011 41.9619C348.238 41.9086 348.438 41.8419 348.611 41.7619L348.971 43.8019C348.611 43.9752 348.191 44.1086 347.711 44.2019C347.231 44.2952 346.798 44.3419 346.411 44.3419C345.571 44.3419 344.918 44.1219 344.451 43.6819C343.998 43.2286 343.771 42.5886 343.771 41.7619V29.5819ZM357.892 29.9819H360.692L365.912 44.1819H363.072L361.752 40.6419H356.792L355.492 44.1819H352.652L357.892 29.9819ZM361.252 38.7019L359.292 32.8419L357.252 38.7019H361.252ZM366.276 38.9419C366.276 37.9286 366.476 37.0152 366.876 36.2019C367.276 35.3752 367.83 34.7219 368.536 34.2419C369.243 33.7619 370.05 33.5219 370.956 33.5219C371.73 33.5219 372.423 33.7152 373.036 34.1019C373.663 34.4752 374.15 34.9552 374.496 35.5419V29.5819H377.176V41.1819C377.176 41.4619 377.223 41.6619 377.316 41.7819C377.41 41.9019 377.57 41.9752 377.796 42.0019V44.1819C377.33 44.2752 376.95 44.3219 376.656 44.3219C376.176 44.3219 375.776 44.2019 375.456 43.9619C375.15 43.7219 374.976 43.4086 374.936 43.0219L374.896 42.3619C374.51 43.0152 373.983 43.5152 373.316 43.8619C372.663 44.2086 371.976 44.3819 371.256 44.3819C370.536 44.3819 369.87 44.2419 369.256 43.9619C368.656 43.6819 368.13 43.2952 367.676 42.8019C367.236 42.3086 366.89 41.7352 366.636 41.0819C366.396 40.4152 366.276 39.7019 366.276 38.9419ZM374.496 40.3419V37.8419C374.363 37.4552 374.15 37.1086 373.856 36.8019C373.563 36.4952 373.236 36.2552 372.876 36.0819C372.516 35.8952 372.156 35.8019 371.796 35.8019C371.383 35.8019 371.01 35.8886 370.676 36.0619C370.343 36.2352 370.05 36.4686 369.796 36.7619C369.556 37.0552 369.37 37.3952 369.236 37.7819C369.116 38.1686 369.056 38.5752 369.056 39.0019C369.056 39.4286 369.123 39.8352 369.256 40.2219C369.403 40.5952 369.61 40.9219 369.876 41.2019C370.143 41.4819 370.45 41.7019 370.796 41.8619C371.156 42.0219 371.543 42.1019 371.956 42.1019C372.21 42.1019 372.463 42.0619 372.716 41.9819C372.983 41.8886 373.23 41.7686 373.456 41.6219C373.696 41.4619 373.903 41.2752 374.076 41.0619C374.263 40.8352 374.403 40.5952 374.496 40.3419ZM382.588 44.1819L378.728 33.7019H381.508L384.148 41.7419L386.808 33.7019H389.348L385.508 44.1819H382.588ZM390.764 44.1819V33.7019H393.444V44.1819H390.764ZM390.764 32.2419V29.5819H393.444V32.2419H390.764ZM400.741 44.3819C399.888 44.3819 399.121 44.2419 398.441 43.9619C397.761 43.6686 397.181 43.2686 396.701 42.7619C396.221 42.2419 395.848 41.6552 395.581 41.0019C395.328 40.3486 395.201 39.6619 395.201 38.9419C395.201 37.9552 395.421 37.0552 395.861 36.2419C396.315 35.4152 396.955 34.7552 397.781 34.2619C398.608 33.7686 399.588 33.5219 400.721 33.5219C401.855 33.5219 402.828 33.7686 403.641 34.2619C404.455 34.7552 405.061 35.4019 405.461 36.2019L402.841 37.0019C402.615 36.6152 402.315 36.3219 401.941 36.1219C401.568 35.9086 401.155 35.8019 400.701 35.8019C400.195 35.8019 399.728 35.9352 399.301 36.2019C398.888 36.4552 398.561 36.8219 398.321 37.3019C398.081 37.7686 397.961 38.3152 397.961 38.9419C397.961 39.5552 398.081 40.1019 398.321 40.5819C398.575 41.0486 398.908 41.4219 399.321 41.7019C399.735 41.9686 400.195 42.1019 400.701 42.1019C401.021 42.1019 401.321 42.0486 401.601 41.9419C401.895 41.8352 402.155 41.6886 402.381 41.5019C402.608 41.3152 402.775 41.1019 402.881 40.8619L405.501 41.6619C405.261 42.1819 404.908 42.6486 404.441 43.0619C403.988 43.4752 403.448 43.8019 402.821 44.0419C402.208 44.2686 401.515 44.3819 400.741 44.3819ZM411.913 44.3819C411.073 44.3819 410.313 44.2419 409.633 43.9619C408.953 43.6686 408.373 43.2752 407.893 42.7819C407.413 42.2752 407.04 41.7019 406.773 41.0619C406.52 40.4086 406.393 39.7219 406.393 39.0019C406.393 38.0019 406.613 37.0886 407.053 36.2619C407.506 35.4352 408.146 34.7752 408.973 34.2819C409.813 33.7752 410.8 33.5219 411.933 33.5219C413.08 33.5219 414.06 33.7752 414.873 34.2819C415.686 34.7752 416.306 35.4352 416.733 36.2619C417.173 37.0752 417.393 37.9552 417.393 38.9019C417.393 39.0619 417.386 39.2286 417.373 39.4019C417.36 39.5619 417.346 39.6952 417.333 39.8019H409.233C409.286 40.3352 409.44 40.8019 409.693 41.2019C409.96 41.6019 410.293 41.9086 410.693 42.1219C411.106 42.3219 411.546 42.4219 412.013 42.4219C412.546 42.4219 413.046 42.2952 413.513 42.0419C413.993 41.7752 414.32 41.4286 414.493 41.0019L416.793 41.6419C416.54 42.1752 416.173 42.6486 415.693 43.0619C415.226 43.4752 414.673 43.8019 414.033 44.0419C413.393 44.2686 412.686 44.3819 411.913 44.3819ZM409.173 38.1019H414.653C414.6 37.5686 414.446 37.1086 414.193 36.7219C413.953 36.3219 413.633 36.0152 413.233 35.8019C412.833 35.5752 412.386 35.4619 411.893 35.4619C411.413 35.4619 410.973 35.5752 410.573 35.8019C410.186 36.0152 409.866 36.3219 409.613 36.7219C409.373 37.1086 409.226 37.5686 409.173 38.1019Z" fill="#0E1F51"/>
<path d="M121.939 71.1819V59.8219H126.803C127.304 59.8219 127.763 59.9286 128.179 60.1419C128.595 60.3446 128.958 60.6219 129.267 60.9739C129.576 61.3152 129.816 61.7046 129.987 62.1419C130.158 62.5686 130.243 63.0059 130.243 63.4539C130.243 63.9766 130.142 64.4726 129.939 64.9419C129.747 65.4112 129.47 65.8112 129.107 66.1419C128.755 66.4726 128.339 66.7019 127.859 66.8299L130.611 71.1819H128.979L126.387 67.1019H123.379V71.1819H121.939ZM123.379 65.8219H126.819C127.214 65.8219 127.555 65.7152 127.843 65.5019C128.142 65.2779 128.371 64.9846 128.531 64.6219C128.702 64.2592 128.787 63.8699 128.787 63.4539C128.787 63.0272 128.691 62.6379 128.499 62.2859C128.307 61.9232 128.056 61.6352 127.747 61.4219C127.438 61.2086 127.096 61.1019 126.723 61.1019H123.379V65.8219ZM135.661 71.3419C135.032 71.3419 134.456 71.2299 133.933 71.0059C133.421 70.7712 132.973 70.4566 132.589 70.0619C132.216 69.6566 131.922 69.1926 131.709 68.6699C131.506 68.1472 131.405 67.5926 131.405 67.0059C131.405 66.2166 131.586 65.4966 131.949 64.8459C132.312 64.1952 132.813 63.6726 133.453 63.2779C134.104 62.8832 134.845 62.6859 135.677 62.6859C136.52 62.6859 137.25 62.8886 137.869 63.2939C138.498 63.6886 138.984 64.2112 139.325 64.8619C139.677 65.5019 139.853 66.1952 139.853 66.9419C139.853 67.0486 139.848 67.1552 139.837 67.2619C139.837 67.3579 139.832 67.4326 139.821 67.4859H132.893C132.936 68.0299 133.085 68.5152 133.341 68.9419C133.608 69.3579 133.949 69.6886 134.365 69.9339C134.781 70.1686 135.229 70.2859 135.709 70.2859C136.221 70.2859 136.701 70.1579 137.149 69.9019C137.608 69.6459 137.922 69.3099 138.093 68.8939L139.309 69.2299C139.128 69.6352 138.856 69.9979 138.493 70.3179C138.141 70.6379 137.72 70.8886 137.229 71.0699C136.749 71.2512 136.226 71.3419 135.661 71.3419ZM132.845 66.5099H138.541C138.498 65.9659 138.344 65.4859 138.077 65.0699C137.81 64.6539 137.469 64.3286 137.053 64.0939C136.637 63.8592 136.178 63.7419 135.677 63.7419C135.186 63.7419 134.733 63.8592 134.317 64.0939C133.901 64.3286 133.56 64.6539 133.293 65.0699C133.037 65.4859 132.888 65.9659 132.845 66.5099ZM140.762 68.7659C140.762 68.2326 140.911 67.7739 141.21 67.3899C141.519 66.9952 141.941 66.6912 142.474 66.4779C143.007 66.2646 143.626 66.1579 144.33 66.1579C144.703 66.1579 145.098 66.1899 145.514 66.2539C145.93 66.3072 146.298 66.3926 146.618 66.5099V65.9019C146.618 65.2619 146.426 64.7606 146.042 64.3979C145.658 64.0246 145.114 63.8379 144.41 63.8379C143.951 63.8379 143.509 63.9232 143.082 64.0939C142.666 64.2539 142.223 64.4886 141.754 64.7979L141.242 63.8059C141.786 63.4326 142.33 63.1552 142.874 62.9739C143.418 62.7819 143.983 62.6859 144.57 62.6859C145.637 62.6859 146.479 62.9846 147.098 63.5819C147.717 64.1686 148.026 64.9899 148.026 66.0459V69.5819C148.026 69.7526 148.058 69.8806 148.122 69.9659C148.197 70.0406 148.314 70.0832 148.474 70.0939V71.1819C148.335 71.2032 148.213 71.2192 148.106 71.2299C148.01 71.2406 147.93 71.2459 147.866 71.2459C147.535 71.2459 147.285 71.1552 147.114 70.9739C146.954 70.7926 146.863 70.6006 146.842 70.3979L146.81 69.8699C146.447 70.3392 145.973 70.7019 145.386 70.9579C144.799 71.2139 144.218 71.3419 143.642 71.3419C143.087 71.3419 142.591 71.2299 142.154 71.0059C141.717 70.7712 141.375 70.4619 141.13 70.0779C140.885 69.6832 140.762 69.2459 140.762 68.7659ZM146.202 69.3579C146.33 69.2086 146.431 69.0592 146.506 68.9099C146.581 68.7499 146.618 68.6166 146.618 68.5099V67.4699C146.287 67.3419 145.941 67.2459 145.578 67.1819C145.215 67.1072 144.858 67.0699 144.506 67.0699C143.791 67.0699 143.21 67.2139 142.762 67.5019C142.325 67.7792 142.106 68.1632 142.106 68.6539C142.106 68.9206 142.175 69.1819 142.314 69.4379C142.463 69.6832 142.677 69.8859 142.954 70.0459C143.242 70.2059 143.594 70.2859 144.01 70.2859C144.447 70.2859 144.863 70.2006 145.258 70.0299C145.653 69.8486 145.967 69.6246 146.202 69.3579ZM149.733 67.0219C149.733 66.2326 149.893 65.5126 150.213 64.8619C150.544 64.2006 150.992 63.6726 151.557 63.2779C152.133 62.8832 152.789 62.6859 153.525 62.6859C154.197 62.6859 154.8 62.8619 155.333 63.2139C155.867 63.5659 156.283 63.9926 156.581 64.4939V59.5019H157.989V69.5819C157.989 69.7526 158.021 69.8806 158.085 69.9659C158.16 70.0406 158.277 70.0832 158.437 70.0939V71.1819C158.171 71.2246 157.963 71.2459 157.813 71.2459C157.536 71.2459 157.291 71.1499 157.077 70.9579C156.875 70.7659 156.773 70.5526 156.773 70.3179V69.6139C156.443 70.1472 156 70.5686 155.445 70.8779C154.891 71.1872 154.315 71.3419 153.717 71.3419C153.141 71.3419 152.608 71.2299 152.117 71.0059C151.637 70.7712 151.216 70.4512 150.853 70.0459C150.501 69.6406 150.224 69.1819 150.021 68.6699C149.829 68.1472 149.733 67.5979 149.733 67.0219ZM156.581 68.2539V65.8539C156.453 65.4912 156.245 65.1659 155.957 64.8779C155.669 64.5792 155.344 64.3446 154.981 64.1739C154.629 63.9926 154.277 63.9019 153.925 63.9019C153.509 63.9019 153.131 63.9926 152.789 64.1739C152.459 64.3446 152.171 64.5792 151.925 64.8779C151.691 65.1659 151.509 65.4966 151.381 65.8699C151.253 66.2432 151.189 66.6326 151.189 67.0379C151.189 67.4539 151.259 67.8486 151.397 68.2219C151.547 68.5952 151.749 68.9259 152.005 69.2139C152.272 69.5019 152.576 69.7259 152.917 69.8859C153.269 70.0459 153.648 70.1259 154.053 70.1259C154.309 70.1259 154.571 70.0779 154.837 69.9819C155.115 69.8859 155.376 69.7526 155.621 69.5819C155.867 69.4112 156.075 69.2139 156.245 68.9899C156.416 68.7552 156.528 68.5099 156.581 68.2539ZM160.724 73.4539C160.863 73.4646 161.001 73.4752 161.14 73.4859C161.279 73.5072 161.385 73.5179 161.46 73.5179C161.631 73.5179 161.78 73.4592 161.908 73.3419C162.036 73.2246 162.175 72.9952 162.324 72.6539C162.484 72.3232 162.687 71.8326 162.932 71.1819L159.396 62.8299H160.884L163.7 69.7579L166.244 62.8299H167.636L163.572 73.3739C163.476 73.6192 163.332 73.8486 163.14 74.0619C162.959 74.2859 162.724 74.4619 162.436 74.5899C162.148 74.7179 161.801 74.7819 161.396 74.7819C161.3 74.7819 161.199 74.7766 161.092 74.7659C160.996 74.7552 160.873 74.7339 160.724 74.7019V73.4539ZM176.988 70.7659C176.871 70.8192 176.711 70.8886 176.508 70.9739C176.305 71.0592 176.071 71.1339 175.804 71.1979C175.537 71.2619 175.255 71.2939 174.956 71.2939C174.615 71.2939 174.3 71.2352 174.012 71.1179C173.724 70.9899 173.495 70.7979 173.324 70.5419C173.153 70.2752 173.068 69.9446 173.068 69.5499V63.9339H171.932V62.8299H173.068V60.0459H174.476V62.8299H176.348V63.9339H174.476V69.1179C174.497 69.4166 174.599 69.6406 174.78 69.7899C174.961 69.9286 175.175 69.9979 175.42 69.9979C175.697 69.9979 175.953 69.9499 176.188 69.8539C176.423 69.7579 176.577 69.6886 176.652 69.6459L176.988 70.7659ZM181.832 71.3419C181.202 71.3419 180.632 71.2299 180.12 71.0059C179.608 70.7712 179.165 70.4566 178.792 70.0619C178.418 69.6566 178.13 69.1926 177.928 68.6699C177.725 68.1472 177.624 67.5979 177.624 67.0219C177.624 66.4352 177.725 65.8806 177.928 65.3579C178.13 64.8352 178.418 64.3766 178.792 63.9819C179.165 63.5766 179.608 63.2619 180.12 63.0379C180.642 62.8032 181.213 62.6859 181.832 62.6859C182.461 62.6859 183.032 62.8032 183.544 63.0379C184.056 63.2619 184.498 63.5766 184.872 63.9819C185.256 64.3766 185.549 64.8352 185.752 65.3579C185.954 65.8806 186.056 66.4352 186.056 67.0219C186.056 67.5979 185.954 68.1472 185.752 68.6699C185.549 69.1926 185.261 69.6566 184.888 70.0619C184.514 70.4566 184.066 70.7712 183.544 71.0059C183.032 71.2299 182.461 71.3419 181.832 71.3419ZM179.064 67.0379C179.064 67.6139 179.186 68.1366 179.432 68.6059C179.688 69.0752 180.024 69.4486 180.44 69.7259C180.856 69.9926 181.32 70.1259 181.832 70.1259C182.344 70.1259 182.808 69.9872 183.224 69.7099C183.65 69.4326 183.986 69.0592 184.232 68.5899C184.488 68.1099 184.616 67.5819 184.616 67.0059C184.616 66.4299 184.488 65.9072 184.232 65.4379C183.986 64.9686 183.65 64.5952 183.224 64.3179C182.808 64.0406 182.344 63.9019 181.832 63.9019C181.32 63.9019 180.856 64.0459 180.44 64.3339C180.024 64.6112 179.688 64.9846 179.432 65.4539C179.186 65.9232 179.064 66.4512 179.064 67.0379ZM201.169 59.8219V71.1819H199.729V66.0139H193.473V71.1819H192.033V59.8219H193.473V64.7339H199.729V59.8219H201.169ZM207.223 71.3419C206.594 71.3419 206.018 71.2299 205.495 71.0059C204.983 70.7712 204.535 70.4566 204.151 70.0619C203.778 69.6566 203.485 69.1926 203.271 68.6699C203.069 68.1472 202.967 67.5926 202.967 67.0059C202.967 66.2166 203.149 65.4966 203.511 64.8459C203.874 64.1952 204.375 63.6726 205.015 63.2779C205.666 62.8832 206.407 62.6859 207.239 62.6859C208.082 62.6859 208.813 62.8886 209.431 63.2939C210.061 63.6886 210.546 64.2112 210.887 64.8619C211.239 65.5019 211.415 66.1952 211.415 66.9419C211.415 67.0486 211.41 67.1552 211.399 67.2619C211.399 67.3579 211.394 67.4326 211.383 67.4859H204.455C204.498 68.0299 204.647 68.5152 204.903 68.9419C205.17 69.3579 205.511 69.6886 205.927 69.9339C206.343 70.1686 206.791 70.2859 207.271 70.2859C207.783 70.2859 208.263 70.1579 208.711 69.9019C209.17 69.6459 209.485 69.3099 209.655 68.8939L210.871 69.2299C210.69 69.6352 210.418 69.9979 210.055 70.3179C209.703 70.6379 209.282 70.8886 208.791 71.0699C208.311 71.2512 207.789 71.3419 207.223 71.3419ZM204.407 66.5099H210.103C210.061 65.9659 209.906 65.4859 209.639 65.0699C209.373 64.6539 209.031 64.3286 208.615 64.0939C208.199 63.8592 207.741 63.7419 207.239 63.7419C206.749 63.7419 206.295 63.8592 205.879 64.0939C205.463 64.3286 205.122 64.6539 204.855 65.0699C204.599 65.4859 204.45 65.9659 204.407 66.5099ZM213.013 59.5019H214.421V69.0219C214.421 69.4806 214.485 69.7632 214.613 69.8699C214.741 69.9766 214.895 70.0299 215.077 70.0299C215.301 70.0299 215.514 70.0086 215.717 69.9659C215.919 69.9126 216.09 69.8592 216.229 69.8059L216.453 70.9579C216.218 71.0539 215.941 71.1339 215.621 71.1979C215.301 71.2619 215.018 71.2939 214.773 71.2939C214.229 71.2939 213.797 71.1392 213.477 70.8299C213.167 70.5206 213.013 70.0886 213.013 69.5339V59.5019ZM222.055 71.3419C221.372 71.3419 220.764 71.1712 220.231 70.8299C219.697 70.4886 219.276 70.0566 218.967 69.5339V74.5899H217.559V62.8299H218.807V64.3979C219.137 63.8859 219.569 63.4752 220.103 63.1659C220.636 62.8459 221.217 62.6859 221.847 62.6859C222.423 62.6859 222.951 62.8032 223.431 63.0379C223.911 63.2726 224.327 63.5926 224.679 63.9979C225.031 64.4032 225.303 64.8672 225.495 65.3899C225.697 65.9019 225.799 66.4406 225.799 67.0059C225.799 67.7952 225.639 68.5206 225.319 69.1819C225.009 69.8432 224.572 70.3712 224.007 70.7659C223.441 71.1499 222.791 71.3419 222.055 71.3419ZM221.623 70.1259C222.039 70.1259 222.412 70.0406 222.743 69.8699C223.084 69.6886 223.372 69.4539 223.607 69.1659C223.852 68.8672 224.039 68.5312 224.167 68.1579C224.295 67.7846 224.359 67.4006 224.359 67.0059C224.359 66.5899 224.284 66.1952 224.135 65.8219C223.996 65.4486 223.793 65.1179 223.527 64.8299C223.271 64.5419 222.967 64.3179 222.615 64.1579C222.273 63.9872 221.9 63.9019 221.495 63.9019C221.239 63.9019 220.972 63.9499 220.695 64.0459C220.428 64.1419 220.172 64.2806 219.927 64.4619C219.681 64.6326 219.473 64.8299 219.303 65.0539C219.132 65.2779 219.02 65.5179 218.967 65.7739V68.1579C219.127 68.5206 219.34 68.8512 219.607 69.1499C219.873 69.4486 220.183 69.6886 220.535 69.8699C220.887 70.0406 221.249 70.1259 221.623 70.1259ZM231.462 64.6859V62.8939H232.63V64.6859H231.462ZM231.462 71.1819V69.3899H232.63V71.1819H231.462Z" fill="black"/>
<path d="M252.563 64.6379V66.3659H250.915V68.1739H248.979V66.3659H247.331V64.6379H248.979V62.8299H250.915V64.6379H252.563ZM253.825 65.9979C253.825 65.2619 254.007 64.5952 254.369 63.9979C254.732 63.4006 255.228 62.9259 255.857 62.5739C256.487 62.2219 257.191 62.0459 257.969 62.0459C258.833 62.0459 259.575 62.2539 260.193 62.6699C260.823 63.0859 261.308 63.6832 261.649 64.4619C261.991 65.2299 262.161 66.1632 262.161 67.2619C262.161 68.6379 261.98 69.8006 261.617 70.7499C261.265 71.6992 260.759 72.4192 260.097 72.9099C259.436 73.4006 258.657 73.6459 257.761 73.6459C257.047 73.6459 256.385 73.4912 255.777 73.1819C255.169 72.8726 254.657 72.4299 254.241 71.8539L255.473 70.5099C255.729 70.9046 256.06 71.2139 256.465 71.4379C256.881 71.6726 257.324 71.7899 257.793 71.7899C258.273 71.7899 258.684 71.6619 259.025 71.4059C259.377 71.1499 259.649 70.7819 259.841 70.3019C260.044 69.8112 260.151 69.2246 260.161 68.5419C260.023 68.7872 259.831 69.0059 259.585 69.1979C259.351 69.3899 259.079 69.5392 258.769 69.6459C258.471 69.7419 258.14 69.7899 257.777 69.7899C257.041 69.7899 256.369 69.6246 255.761 69.2939C255.164 68.9526 254.689 68.4992 254.337 67.9339C253.996 67.3579 253.825 66.7126 253.825 65.9979ZM257.969 63.8539C257.596 63.8539 257.249 63.9552 256.929 64.1579C256.609 64.3499 256.353 64.6059 256.161 64.9259C255.969 65.2459 255.873 65.6032 255.873 65.9979C255.873 66.3819 255.964 66.7339 256.145 67.0539C256.337 67.3632 256.593 67.6139 256.913 67.8059C257.233 67.9872 257.585 68.0779 257.969 68.0779C258.353 68.0779 258.7 67.9872 259.009 67.8059C259.329 67.6139 259.585 67.3632 259.777 67.0539C259.969 66.7339 260.065 66.3819 260.065 65.9979C260.065 65.6139 259.969 65.2619 259.777 64.9419C259.585 64.6112 259.329 64.3499 259.009 64.1579C258.689 63.9552 258.343 63.8539 257.969 63.8539ZM263.343 71.1819C263.343 70.7019 263.381 70.2699 263.455 69.8859C263.53 69.5019 263.658 69.1446 263.839 68.8139C264.031 68.4832 264.287 68.1739 264.607 67.8859C264.938 67.5872 265.354 67.2992 265.855 67.0219C266.293 66.7872 266.677 66.5846 267.007 66.4139C267.338 66.2326 267.615 66.0672 267.839 65.9179C268.074 65.7686 268.25 65.6192 268.367 65.4699C268.485 65.3099 268.543 65.1286 268.543 64.9259C268.543 64.7126 268.485 64.5206 268.367 64.3499C268.25 64.1686 268.085 64.0246 267.871 63.9179C267.658 63.8112 267.391 63.7579 267.071 63.7579C266.815 63.7579 266.575 63.7899 266.351 63.8539C266.138 63.9179 265.935 64.0086 265.743 64.1259C265.562 64.2432 265.391 64.3766 265.231 64.5259C265.071 64.6646 264.927 64.8139 264.799 64.9739L263.439 63.4059C263.589 63.2566 263.786 63.0966 264.031 62.9259C264.287 62.7446 264.586 62.5792 264.927 62.4299C265.279 62.2699 265.663 62.1419 266.079 62.0459C266.506 61.9392 266.959 61.8859 267.439 61.8859C268.165 61.8859 268.783 62.0032 269.295 62.2379C269.807 62.4619 270.197 62.7766 270.463 63.1819C270.741 63.5872 270.879 64.0619 270.879 64.6059C270.879 64.9792 270.81 65.3099 270.671 65.5979C270.533 65.8859 270.357 66.1419 270.143 66.3659C269.93 66.5792 269.695 66.7712 269.439 66.9419C269.194 67.1126 268.954 67.2619 268.719 67.3899C268.389 67.5606 268.09 67.7206 267.823 67.8699C267.557 68.0086 267.322 68.1526 267.119 68.3019C266.917 68.4406 266.735 68.5846 266.575 68.7339C266.426 68.8832 266.293 69.0539 266.175 69.2459H271.055V71.1819H263.343ZM281.706 67.4059C282.154 67.4806 282.544 67.6512 282.874 67.9179C283.205 68.1739 283.461 68.5046 283.642 68.9099C283.834 69.3152 283.93 69.7632 283.93 70.2539C283.93 70.9152 283.76 71.4912 283.418 71.9819C283.077 72.4726 282.592 72.8512 281.962 73.1179C281.344 73.3952 280.613 73.5339 279.77 73.5339C278.96 73.5339 278.24 73.4006 277.61 73.1339C276.992 72.8779 276.474 72.4992 276.058 71.9979L277.274 70.4779C277.552 70.8192 277.882 71.0859 278.266 71.2779C278.661 71.4806 279.141 71.5819 279.706 71.5819C280.357 71.5819 280.853 71.4486 281.194 71.1819C281.536 70.9259 281.706 70.5366 281.706 70.0139C281.706 69.4592 281.509 69.0326 281.114 68.7339C280.72 68.4352 280.122 68.2859 279.322 68.2859H278.874V66.6859H279.37C280.021 66.6859 280.528 66.5366 280.89 66.2379C281.264 65.9392 281.45 65.5659 281.45 65.1179C281.45 64.8299 281.381 64.5899 281.242 64.3979C281.104 64.2059 280.912 64.0619 280.666 63.9659C280.432 63.8699 280.154 63.8219 279.834 63.8219C279.354 63.8219 278.917 63.9339 278.522 64.1579C278.128 64.3819 277.808 64.6966 277.562 65.1019L276.218 63.5979C276.442 63.2672 276.746 62.9846 277.13 62.7499C277.525 62.5046 277.973 62.3126 278.474 62.1739C278.986 62.0352 279.52 61.9659 280.074 61.9659C280.8 61.9659 281.434 62.0832 281.978 62.3179C282.533 62.5526 282.965 62.8832 283.274 63.3099C283.584 63.7366 283.738 64.2326 283.738 64.7979C283.738 65.2139 283.653 65.6086 283.482 65.9819C283.312 66.3552 283.072 66.6699 282.762 66.9259C282.464 67.1712 282.112 67.3312 281.706 67.4059ZM289.524 73.2139V70.8299H284.852V68.9259L290.212 62.0459H291.668V68.9099H293.076V70.8299H291.668V73.2139H289.524ZM286.996 68.9099H289.764V65.2939L286.996 68.9099ZM299.289 63.8059H294.121V61.8539H302.665L297.033 73.2139H294.601L299.289 63.8059ZM307.093 71.1819C307.093 70.7019 307.131 70.2699 307.205 69.8859C307.28 69.5019 307.408 69.1446 307.589 68.8139C307.781 68.4832 308.037 68.1739 308.357 67.8859C308.688 67.5872 309.104 67.2992 309.605 67.0219C310.043 66.7872 310.427 66.5846 310.757 66.4139C311.088 66.2326 311.365 66.0672 311.589 65.9179C311.824 65.7686 312 65.6192 312.117 65.4699C312.235 65.3099 312.293 65.1286 312.293 64.9259C312.293 64.7126 312.235 64.5206 312.117 64.3499C312 64.1686 311.835 64.0246 311.621 63.9179C311.408 63.8112 311.141 63.7579 310.821 63.7579C310.565 63.7579 310.325 63.7899 310.101 63.8539C309.888 63.9179 309.685 64.0086 309.493 64.1259C309.312 64.2432 309.141 64.3766 308.981 64.5259C308.821 64.6646 308.677 64.8139 308.549 64.9739L307.189 63.4059C307.339 63.2566 307.536 63.0966 307.781 62.9259C308.037 62.7446 308.336 62.5792 308.677 62.4299C309.029 62.2699 309.413 62.1419 309.829 62.0459C310.256 61.9392 310.709 61.8859 311.189 61.8859C311.915 61.8859 312.533 62.0032 313.045 62.2379C313.557 62.4619 313.947 62.7766 314.213 63.1819C314.491 63.5872 314.629 64.0619 314.629 64.6059C314.629 64.9792 314.56 65.3099 314.421 65.5979C314.283 65.8859 314.107 66.1419 313.893 66.3659C313.68 66.5792 313.445 66.7712 313.189 66.9419C312.944 67.1126 312.704 67.2619 312.469 67.3899C312.139 67.5606 311.84 67.7206 311.573 67.8699C311.307 68.0086 311.072 68.1526 310.869 68.3019C310.667 68.4406 310.485 68.5846 310.325 68.7339C310.176 68.8832 310.043 69.0539 309.925 69.2459H314.805V71.1819H307.093ZM324.588 67.3899C324.588 68.1259 324.402 68.7926 324.028 69.3899C323.666 69.9872 323.17 70.4619 322.54 70.8139C321.922 71.1659 321.218 71.3419 320.428 71.3419C319.575 71.3419 318.834 71.1339 318.204 70.7179C317.586 70.3019 317.106 69.7046 316.764 68.9259C316.423 68.1472 316.252 67.2139 316.252 66.1259C316.252 64.7499 316.428 63.5872 316.78 62.6379C317.143 61.6779 317.655 60.9579 318.316 60.4779C318.978 59.9872 319.756 59.7419 320.652 59.7419C321.367 59.7419 322.023 59.8966 322.62 60.2059C323.228 60.5152 323.74 60.9579 324.156 61.5339L322.924 62.8779C322.668 62.4832 322.338 62.1739 321.932 61.9499C321.527 61.7152 321.09 61.5979 320.62 61.5979C320.14 61.5979 319.724 61.7259 319.372 61.9819C319.02 62.2379 318.748 62.6112 318.556 63.1019C318.364 63.5819 318.258 64.1632 318.236 64.8459C318.386 64.5899 318.578 64.3712 318.812 64.1899C319.047 63.9979 319.319 63.8539 319.628 63.7579C319.938 63.6512 320.268 63.5979 320.62 63.5979C321.378 63.5979 322.055 63.7686 322.652 64.1099C323.25 64.4406 323.719 64.8939 324.06 65.4699C324.412 66.0352 324.588 66.6752 324.588 67.3899ZM320.428 69.5339C320.812 69.5339 321.164 69.4379 321.484 69.2459C321.804 69.0432 322.06 68.7819 322.252 68.4619C322.444 68.1312 322.54 67.7739 322.54 67.3899C322.54 67.0059 322.444 66.6592 322.252 66.3499C322.06 66.0299 321.804 65.7792 321.484 65.5979C321.175 65.4059 320.828 65.3099 320.444 65.3099C320.06 65.3099 319.708 65.4059 319.388 65.5979C319.068 65.7792 318.812 66.0299 318.62 66.3499C318.439 66.6592 318.348 67.0059 318.348 67.3899C318.348 67.7739 318.444 68.1312 318.636 68.4619C318.828 68.7819 319.084 69.0432 319.404 69.2459C319.724 69.4379 320.066 69.5339 320.428 69.5339ZM325.747 65.9979C325.747 65.2619 325.929 64.5952 326.291 63.9979C326.654 63.4006 327.15 62.9259 327.779 62.5739C328.409 62.2219 329.113 62.0459 329.891 62.0459C330.755 62.0459 331.497 62.2539 332.115 62.6699C332.745 63.0859 333.23 63.6832 333.571 64.4619C333.913 65.2299 334.083 66.1632 334.083 67.2619C334.083 68.6379 333.902 69.8006 333.539 70.7499C333.187 71.6992 332.681 72.4192 332.019 72.9099C331.358 73.4006 330.579 73.6459 329.683 73.6459C328.969 73.6459 328.307 73.4912 327.699 73.1819C327.091 72.8726 326.579 72.4299 326.163 71.8539L327.395 70.5099C327.651 70.9046 327.982 71.2139 328.387 71.4379C328.803 71.6726 329.246 71.7899 329.715 71.7899C330.195 71.7899 330.606 71.6619 330.947 71.4059C331.299 71.1499 331.571 70.7819 331.763 70.3019C331.966 69.8112 332.073 69.2246 332.083 68.5419C331.945 68.7872 331.753 69.0059 331.507 69.1979C331.273 69.3899 331.001 69.5392 330.691 69.6459C330.393 69.7419 330.062 69.7899 329.699 69.7899C328.963 69.7899 328.291 69.6246 327.683 69.2939C327.086 68.9526 326.611 68.4992 326.259 67.9339C325.918 67.3579 325.747 66.7126 325.747 65.9979ZM329.891 63.8539C329.518 63.8539 329.171 63.9552 328.851 64.1579C328.531 64.3499 328.275 64.6059 328.083 64.9259C327.891 65.2459 327.795 65.6032 327.795 65.9979C327.795 66.3819 327.886 66.7339 328.067 67.0539C328.259 67.3632 328.515 67.6139 328.835 67.8059C329.155 67.9872 329.507 68.0779 329.891 68.0779C330.275 68.0779 330.622 67.9872 330.931 67.8059C331.251 67.6139 331.507 67.3632 331.699 67.0539C331.891 66.7339 331.987 66.3819 331.987 65.9979C331.987 65.6139 331.891 65.2619 331.699 64.9419C331.507 64.6112 331.251 64.3499 330.931 64.1579C330.611 63.9552 330.265 63.8539 329.891 63.8539ZM343.729 67.3899C343.729 68.1259 343.542 68.7926 343.169 69.3899C342.806 69.9872 342.31 70.4619 341.681 70.8139C341.062 71.1659 340.358 71.3419 339.569 71.3419C338.716 71.3419 337.974 71.1339 337.345 70.7179C336.726 70.3019 336.246 69.7046 335.905 68.9259C335.564 68.1472 335.393 67.2139 335.393 66.1259C335.393 64.7499 335.569 63.5872 335.921 62.6379C336.284 61.6779 336.796 60.9579 337.457 60.4779C338.118 59.9872 338.897 59.7419 339.793 59.7419C340.508 59.7419 341.164 59.8966 341.761 60.2059C342.369 60.5152 342.881 60.9579 343.297 61.5339L342.065 62.8779C341.809 62.4832 341.478 62.1739 341.073 61.9499C340.668 61.7152 340.23 61.5979 339.761 61.5979C339.281 61.5979 338.865 61.7259 338.513 61.9819C338.161 62.2379 337.889 62.6112 337.697 63.1019C337.505 63.5819 337.398 64.1632 337.377 64.8459C337.526 64.5899 337.718 64.3712 337.953 64.1899C338.188 63.9979 338.46 63.8539 338.769 63.7579C339.078 63.6512 339.409 63.5979 339.761 63.5979C340.518 63.5979 341.196 63.7686 341.793 64.1099C342.39 64.4406 342.86 64.8939 343.201 65.4699C343.553 66.0352 343.729 66.6752 343.729 67.3899ZM339.569 69.5339C339.953 69.5339 340.305 69.4379 340.625 69.2459C340.945 69.0432 341.201 68.7819 341.393 68.4619C341.585 68.1312 341.681 67.7739 341.681 67.3899C341.681 67.0059 341.585 66.6592 341.393 66.3499C341.201 66.0299 340.945 65.7792 340.625 65.5979C340.316 65.4059 339.969 65.3099 339.585 65.3099C339.201 65.3099 338.849 65.4059 338.529 65.5979C338.209 65.7792 337.953 66.0299 337.761 66.3499C337.58 66.6592 337.489 67.0059 337.489 67.3899C337.489 67.7739 337.585 68.1312 337.777 68.4619C337.969 68.7819 338.225 69.0432 338.545 69.2459C338.865 69.4379 339.206 69.5339 339.569 69.5339ZM348.568 73.5659C347.747 73.5659 347.005 73.3899 346.344 73.0379C345.683 72.6859 345.181 72.2059 344.84 71.5979L346.072 70.3179C346.371 70.7339 346.744 71.0646 347.192 71.3099C347.64 71.5552 348.104 71.6779 348.584 71.6779C348.968 71.6779 349.304 71.5979 349.592 71.4379C349.891 71.2779 350.125 71.0539 350.296 70.7659C350.467 70.4779 350.552 70.1472 350.552 69.7739C350.552 69.4006 350.472 69.0752 350.312 68.7979C350.152 68.5206 349.933 68.3072 349.656 68.1579C349.379 67.9979 349.064 67.9179 348.712 67.9179C348.36 67.9179 348.029 67.9979 347.72 68.1579C347.421 68.3072 347.181 68.5259 347 68.8139H345.128L346.44 62.0459H352.04V63.9979H347.992L347.528 66.5419C347.667 66.4139 347.859 66.3072 348.104 66.2219C348.349 66.1259 348.653 66.0779 349.016 66.0779C349.731 66.0779 350.371 66.2326 350.936 66.5419C351.501 66.8512 351.944 67.2832 352.264 67.8379C352.584 68.3819 352.744 69.0112 352.744 69.7259C352.744 70.4832 352.563 71.1499 352.2 71.7259C351.837 72.3126 351.341 72.7659 350.712 73.0859C350.083 73.4059 349.368 73.5659 348.568 73.5659ZM358.851 63.8059H353.683V61.8539H362.227L356.595 73.2139H354.163L358.851 63.8059ZM371.276 67.3899C371.276 68.1259 371.089 68.7926 370.716 69.3899C370.353 69.9872 369.857 70.4619 369.228 70.8139C368.609 71.1659 367.905 71.3419 367.116 71.3419C366.263 71.3419 365.521 71.1339 364.892 70.7179C364.273 70.3019 363.793 69.7046 363.452 68.9259C363.111 68.1472 362.94 67.2139 362.94 66.1259C362.94 64.7499 363.116 63.5872 363.468 62.6379C363.831 61.6779 364.343 60.9579 365.004 60.4779C365.665 59.9872 366.444 59.7419 367.34 59.7419C368.055 59.7419 368.711 59.8966 369.308 60.2059C369.916 60.5152 370.428 60.9579 370.844 61.5339L369.612 62.8779C369.356 62.4832 369.025 62.1739 368.62 61.9499C368.215 61.7152 367.777 61.5979 367.308 61.5979C366.828 61.5979 366.412 61.7259 366.06 61.9819C365.708 62.2379 365.436 62.6112 365.244 63.1019C365.052 63.5819 364.945 64.1632 364.924 64.8459C365.073 64.5899 365.265 64.3712 365.5 64.1899C365.735 63.9979 366.007 63.8539 366.316 63.7579C366.625 63.6512 366.956 63.5979 367.308 63.5979C368.065 63.5979 368.743 63.7686 369.34 64.1099C369.937 64.4406 370.407 64.8939 370.748 65.4699C371.1 66.0352 371.276 66.6752 371.276 67.3899ZM367.116 69.5339C367.5 69.5339 367.852 69.4379 368.172 69.2459C368.492 69.0432 368.748 68.7819 368.94 68.4619C369.132 68.1312 369.228 67.7739 369.228 67.3899C369.228 67.0059 369.132 66.6592 368.94 66.3499C368.748 66.0299 368.492 65.7792 368.172 65.5979C367.863 65.4059 367.516 65.3099 367.132 65.3099C366.748 65.3099 366.396 65.4059 366.076 65.5979C365.756 65.7792 365.5 66.0299 365.308 66.3499C365.127 66.6592 365.036 67.0059 365.036 67.3899C365.036 67.7739 365.132 68.1312 365.324 68.4619C365.516 68.7819 365.772 69.0432 366.092 69.2459C366.412 69.4379 366.753 69.5339 367.116 69.5339Z" fill="#FF3E54"/>
</svg>
