<svg width="81" height="81" viewBox="0 0 81 81" fill="none" xmlns="http://www.w3.org/2000/svg">
<rect x="0.451782" y="0.19751" width="80" height="80" rx="10" fill="white"/>
<g clip-path="url(#clip0_709_378)">
<path d="M48.6033 59.8643C48.3003 59.8643 48.0503 60.1143 48.0503 60.4173V62.0158C48.0503 62.7203 47.4821 63.2885 46.7776 63.2885H18.9139C18.2094 63.2885 17.6412 62.7203 17.6412 62.0158V26.4552C17.6412 25.7506 18.2094 25.1824 18.9139 25.1824H24.3079V26.137C24.3079 26.7961 24.8458 27.3264 25.4973 27.3264H40.1942C40.8533 27.3264 41.3836 26.7885 41.3836 26.137V25.1824H46.7776C47.4821 25.1824 48.0503 25.7506 48.0503 26.4552V34.5158C48.0503 34.8188 48.3003 35.0688 48.6033 35.0688C48.9064 35.0688 49.1564 34.8188 49.1564 34.5158V26.4552C49.1564 25.1446 48.0882 24.0764 46.7776 24.0764H41.3836V22.94C41.3836 22.2809 40.8458 21.7506 40.1942 21.7506H37.1942V20.3415C37.1942 17.9476 35.2473 15.993 32.8458 15.993C30.4442 15.993 28.4973 17.94 28.4973 20.3415V21.743H25.4973C24.8382 21.743 24.3079 22.2809 24.3079 22.9324V24.0688H18.9139C17.6033 24.0688 16.5352 25.137 16.5352 26.4476V62.0158C16.5352 63.3264 17.6033 64.3946 18.9139 64.3946H46.7852C48.0958 64.3946 49.1639 63.3264 49.1639 62.0158V60.4173C49.1564 60.1143 48.9139 59.8643 48.6033 59.8643ZM29.6109 20.3415C29.6109 18.5536 31.0655 17.1067 32.8458 17.1067C34.6261 17.1067 36.0806 18.5612 36.0806 20.3415V21.743H29.6033V20.3415H29.6109ZM25.4139 22.94C25.4139 22.8946 25.4518 22.8567 25.4973 22.8567H29.0503H36.6336H40.1867C40.2321 22.8567 40.27 22.8946 40.27 22.94V26.137C40.27 26.1824 40.2321 26.2203 40.1867 26.2203H25.4897C25.4442 26.2203 25.4064 26.1824 25.4064 26.137V22.94H25.4139Z" fill="#F71E36"/>
<path d="M22.1033 37.0081H25.8609C26.7094 37.0081 27.3988 36.3187 27.3988 35.4778V31.7127C27.3988 30.8642 26.7094 30.1824 25.8609 30.1824H22.1033C21.2548 30.1824 20.5654 30.8718 20.5654 31.7127V35.4703C20.573 36.3187 21.2624 37.0081 22.1033 37.0081ZM21.6791 31.7127C21.6791 31.4778 21.8685 31.2884 22.1033 31.2884H25.8609C26.0957 31.2884 26.2851 31.4778 26.2851 31.7127V35.4703C26.2851 35.7051 26.0957 35.8945 25.8609 35.8945H22.1033C21.8685 35.8945 21.6791 35.7051 21.6791 35.4703V31.7127ZM45.1185 32.2203C45.1185 31.9172 44.8685 31.6672 44.5654 31.6672H31.2169C30.9139 31.6672 30.6639 31.9172 30.6639 32.2203C30.6639 32.5233 30.9139 32.7733 31.2169 32.7733H44.5654C44.8685 32.7809 45.1185 32.5309 45.1185 32.2203ZM41.2169 34.9627C41.2169 34.6596 40.9669 34.4096 40.6639 34.4096H31.2169C30.9139 34.4096 30.6639 34.6596 30.6639 34.9627C30.6639 35.2657 30.9139 35.5157 31.2169 35.5157H40.6639C40.9669 35.5157 41.2169 35.2733 41.2169 34.9627ZM20.573 44.7127C20.573 45.5612 21.2624 46.243 22.1109 46.243H25.8685C26.7169 46.243 27.4063 45.5536 27.4063 44.7127V40.9551C27.4063 40.1066 26.7169 39.4248 25.8685 39.4248H22.1033C21.2548 39.4248 20.5654 40.1142 20.5654 40.9551V44.7127H20.573ZM21.6791 40.9551C21.6791 40.7203 21.8685 40.5309 22.1033 40.5309H25.8609C26.0957 40.5309 26.2851 40.7203 26.2851 40.9551V44.7127C26.2851 44.9475 26.0957 45.1369 25.8609 45.1369H22.1033C21.8685 45.1369 21.6791 44.9475 21.6791 44.7127V40.9551ZM35.573 41.4627C35.573 41.1596 35.323 40.9096 35.02 40.9096H31.2094C30.9063 40.9096 30.6563 41.1596 30.6563 41.4627C30.6563 41.7657 30.9063 42.0157 31.2094 42.0157H35.02C35.3306 42.0157 35.573 41.7733 35.573 41.4627ZM33.9063 44.7581C34.2094 44.7581 34.4594 44.5081 34.4594 44.2051C34.4594 43.9021 34.2094 43.6521 33.9063 43.6521H31.2094C30.9063 43.6521 30.6563 43.9021 30.6563 44.2051C30.6563 44.5081 30.9063 44.7581 31.2094 44.7581H33.9063Z" fill="#F71E36"/>
<path d="M23.2169 34.493C23.323 34.6217 23.482 34.6824 23.6336 34.6824C23.7624 34.6824 23.8911 34.6369 23.9896 34.5536L25.2245 33.5005C25.4593 33.3036 25.482 32.9551 25.2851 32.7202C25.0881 32.4854 24.732 32.4627 24.5048 32.6596L23.6942 33.3566L23.5351 33.1748C23.3381 32.9399 22.982 32.9172 22.7548 33.1142C22.5199 33.3111 22.4972 33.6672 22.6942 33.8945L23.2169 34.493ZM23.2169 43.7202C23.323 43.849 23.482 43.9096 23.6411 43.9096C23.7699 43.9096 23.8987 43.8642 23.9972 43.7733L25.232 42.7202C25.4669 42.5233 25.4896 42.1748 25.2927 41.9399C25.0957 41.7051 24.7396 41.6824 24.5124 41.8793L23.7017 42.5763L23.5427 42.3945C23.3457 42.1596 22.9972 42.1369 22.7624 42.3339C22.5275 42.5308 22.5048 42.8793 22.7017 43.1142L23.2169 43.7202ZM53.1033 42.3793C50.1866 39.4627 45.4442 39.4627 42.5351 42.3793C39.6184 45.296 39.6184 50.0384 42.5351 52.9475C43.9896 54.4021 45.8987 55.1293 47.8154 55.1293C49.7321 55.1293 51.6487 54.4021 53.1033 52.9399C56.0199 50.0308 56.0199 45.2884 53.1033 42.3793ZM52.323 52.1596C49.8457 54.6445 45.8078 54.6445 43.323 52.1672C40.8381 49.6824 40.8381 45.6445 43.323 43.1672C44.5654 41.9248 46.1942 41.3111 47.823 41.3111C49.4517 41.3111 51.0881 41.9324 52.323 43.1748C54.8002 45.6445 54.8002 49.6748 52.323 52.1596Z" fill="#F71E36"/>
<path d="M63.0806 56.6823C62.2775 55.8793 59.8306 54.1217 57.4442 52.8793C59.6942 48.7278 59.0654 43.4247 55.5654 39.9247C51.2927 35.652 44.3382 35.652 40.073 39.9172C35.8003 44.1899 35.8003 51.1444 40.073 55.4172C42.2094 57.5535 45.0048 58.6141 47.8078 58.6141C49.6033 58.6141 51.4063 58.1672 53.0275 57.2884C54.27 59.6747 56.0351 62.1217 56.8382 62.9247C57.6942 63.7808 58.823 64.2126 59.9518 64.2126C61.0806 64.2126 62.2169 63.7808 63.0806 62.9172C64.8003 61.1975 64.8003 58.402 63.0806 56.6823ZM40.8609 54.6293C38.9972 52.7656 37.9745 50.2959 37.9745 47.6596C37.9745 45.0232 38.9972 42.5535 40.8609 40.6899C42.7775 38.7732 45.3003 37.8111 47.823 37.8111C50.3457 37.8111 52.8685 38.7732 54.7927 40.6899C58.626 44.5232 58.626 50.7732 54.7851 54.6066C50.9442 58.4626 44.6942 58.4626 40.8609 54.6293ZM62.3003 62.1369C61.0124 63.4247 58.9139 63.4323 57.626 62.1444C56.8685 61.3869 55.1715 59.0232 53.9821 56.7126C54.5427 56.3338 55.073 55.902 55.573 55.4096C56.0654 54.9172 56.4972 54.3869 56.876 53.8262C59.1791 55.0156 61.5427 56.7126 62.3078 57.4702C63.5881 58.7505 63.5882 60.849 62.3003 62.1369ZM20.573 59.2884C20.573 59.9853 21.1412 60.5611 21.8381 60.5611H33.8533C34.5503 60.5611 35.1185 59.9929 35.1185 59.2884V55.2959C35.1185 54.599 34.5503 54.0232 33.8533 54.0232H21.8381C21.1412 54.0232 20.573 54.5914 20.573 55.2959V59.2884ZM21.6791 55.2959C21.6791 55.205 21.7548 55.1369 21.8381 55.1369H33.8533C33.9442 55.1369 34.0124 55.2126 34.0124 55.2959V59.2884C34.0124 59.3793 33.9366 59.4475 33.8533 59.4475H21.8381C21.7472 59.4475 21.6791 59.3717 21.6791 59.2884V55.2959Z" fill="#F71E36"/>
<path d="M52.2472 44.5839C51.9593 44.2506 51.5503 44.046 51.1033 44.0157C50.6563 43.9779 50.2321 44.1294 49.8836 44.4324L46.8457 47.2657L46.7472 47.1445C46.4594 46.8036 46.0578 46.5991 45.6109 46.5612C45.1715 46.5233 44.7397 46.6597 44.3987 46.9475C44.0578 47.2354 43.8533 47.6369 43.8154 48.0763C43.7775 48.5157 43.9139 48.9475 44.2018 49.2885L45.3987 50.7203C45.6866 51.0536 46.1033 51.2657 46.5427 51.3036C46.5806 51.3036 46.626 51.3112 46.6639 51.3112C46.77 51.3112 46.876 51.3036 46.9821 51.2809C47.2624 51.2279 47.5275 51.0915 47.7624 50.8945L52.073 46.9324C52.7775 46.3263 52.8533 45.2733 52.2472 44.5839ZM51.3457 46.0991L47.0351 50.0612C46.9593 50.1218 46.876 50.1672 46.7775 50.19C46.7245 50.1975 46.679 50.2051 46.626 50.1975C46.4745 50.1824 46.3381 50.1142 46.2472 50.0082L45.0503 48.5763C44.9518 48.4627 44.9063 48.3188 44.9215 48.1748C44.9366 48.0309 45.0048 47.8945 45.1184 47.796C45.2169 47.7127 45.3457 47.6672 45.4745 47.6672C45.4897 47.6672 45.5048 47.6672 45.52 47.6672C45.6715 47.6824 45.8003 47.7506 45.8912 47.8566L46.3533 48.4248C46.4518 48.546 46.5957 48.6142 46.7472 48.6294C46.8987 48.6369 47.0503 48.5839 47.1639 48.4779L50.626 45.2506C50.7397 45.1521 50.8836 45.1066 51.0275 45.1142C51.179 45.1218 51.3078 45.19 51.4063 45.3036C51.6109 45.5385 51.5881 45.8945 51.3457 46.0991Z" fill="#F71E36"/>
</g>
<defs>
<clipPath id="clip0_709_378">
<rect width="50" height="50" fill="white" transform="translate(15.4518 15.1975)"/>
</clipPath>
</defs>
</svg>
