<svg width="83" height="92" viewBox="0 0 83 92" fill="none" xmlns="http://www.w3.org/2000/svg">
<rect y="4.97717" width="82.3482" height="86.2275" rx="10" fill="white"/>
<path d="M18.2862 25.1022V28.5757H17.4647H16.6431V27.2732V25.9706H15.8216H15V28.1415V30.3125H18.4197H21.8394L22.6302 31.7778C23.0615 32.5811 23.4209 33.2975 23.4209 33.3626C23.4209 33.4278 23.2566 33.7751 23.0615 34.1225C21.9011 36.1306 20.9871 39.1156 20.8022 41.4385C20.7714 41.851 20.7201 42.4588 20.6995 42.7628L20.6482 43.3381H24.797H28.9459L29.0075 43.0884C29.0383 42.9582 29.0691 42.6759 29.0691 42.4588C29.0691 41.7859 29.5415 40.0491 29.9728 39.1482C30.6609 37.7045 31.77 36.3368 32.8894 35.5444C33.105 35.4033 33.2796 35.2188 33.2796 35.1428C33.2796 35.0125 29.634 27.6205 29.4902 27.4577C29.2848 27.2406 26.204 29.8023 25.2078 31.0072C24.9408 31.3437 24.6841 31.615 24.6533 31.615C24.6225 31.615 24.2836 31.0397 23.9036 30.3342L23.2156 29.0533V26.6436V24.2338H22.394H21.5724V26.4048V28.5757H20.7509H19.9293V25.1022V21.6287H19.1078H18.2862V25.1022ZM30.1063 32.6571L31.0717 34.6326L30.3734 35.3707C29.0178 36.8036 28.0525 38.6489 27.5903 40.6461L27.3747 41.6013H24.9511H22.5275L22.661 40.7004C22.8356 39.5824 23.2361 38.117 23.6571 37.0532L23.9858 36.2283L24.0371 36.9338C24.1295 38.2581 24.8689 38.9962 26.091 38.9962C27.3541 38.9962 28.1449 38.1604 28.1449 36.8144C28.1449 36.2174 28.0935 36.022 27.8471 35.6095C27.5493 35.1102 26.8715 34.6543 26.4402 34.6543C26.3067 34.6543 26.1321 34.459 25.9164 34.0573L25.5878 33.4603L26.0807 32.8307C26.6147 32.1686 27.8676 30.8661 28.4427 30.3776L28.7919 30.0845L28.9664 30.3884C29.0589 30.5513 29.5723 31.5825 30.1063 32.6571ZM26.3477 36.8253C26.3477 37.0207 26.2861 37.1075 26.1115 37.1292C25.8651 37.1726 25.7213 36.9338 25.824 36.6516C25.8548 36.5539 25.978 36.4996 26.1115 36.5213C26.2861 36.543 26.3477 36.6299 26.3477 36.8253Z" fill="#FF3E54"/>
<path d="M35.2924 25.265C34.7892 25.3518 34.0293 25.5255 33.598 25.6449C32.5094 25.9488 30.8149 26.6327 30.8149 26.7521C30.8149 26.8606 34.5736 34.2201 34.7071 34.3504C34.7481 34.4046 35.2411 34.3178 35.7956 34.1658C41.3925 32.657 46.938 37.1509 46.938 43.1969V44.3041L46.6093 44.3584C46.4245 44.3909 45.9932 44.4452 45.6543 44.4778C44.7608 44.5646 43.549 44.9228 42.5324 45.3896C39.9034 46.5836 37.5825 49.1019 36.5145 51.9241L36.2475 52.6513L35.6621 52.4885C34.7481 52.2497 33.0948 51.3379 32.3348 50.6758C30.9484 49.4601 29.8599 47.7125 29.3567 45.878L29.141 45.0748H24.9408H20.7303L20.8022 45.5307C21.3465 49.1887 22.394 51.8698 24.3041 54.4966C24.6635 54.9851 24.9614 55.4084 24.9614 55.4301C24.9614 55.4627 24.2014 56.1465 23.2669 56.9715L21.5724 58.4586V61.3242V64.179H22.394H23.2156V61.8127V59.4572L24.4582 58.3718C25.1359 57.7747 25.8343 57.1777 25.9883 57.0366L26.2758 56.7978L26.8304 57.2971C27.6725 58.0678 29.3978 59.251 30.4555 59.7829C32.1089 60.6187 34.1628 61.2482 36.1756 61.5196C36.6583 61.5847 36.6583 61.5847 37.0998 62.4531C38.5478 65.3187 41.2076 67.4897 44.3603 68.3798C45.2332 68.6294 45.5516 68.662 47.1434 68.6728C48.6632 68.6728 49.074 68.6403 49.8442 68.434C50.7479 68.1952 52.2986 67.5657 52.7299 67.2726C52.9559 67.1206 53.0791 67.2183 56.5604 70.6701C58.5322 72.6348 60.3088 74.3064 60.5039 74.3933C61.0995 74.6538 62.0957 74.5886 62.7632 74.2521C63.4923 73.8722 64.5193 72.7433 64.8684 71.951C65.2176 71.1369 65.2278 70.1057 64.889 69.4327C64.7246 69.107 63.5539 67.8696 61.1303 65.4707C58.4295 62.8005 57.6182 61.9429 57.6798 61.8018C58.0084 61.0094 58.4603 59.3812 58.6041 58.5346C58.9429 56.483 58.6657 53.8671 57.9057 51.9349C57.2998 50.3936 56.1394 48.5591 55.2151 47.7016L54.8865 47.3977L55.0611 46.2579C55.3281 44.6406 55.3178 41.9161 55.0508 40.2336C54.4552 36.5756 52.7402 33.0804 50.2242 30.421L49.6388 29.8022L50.635 28.3477L51.6208 26.8932L57.9571 26.8606L64.2933 26.8389V25.9706V25.1022H57.4744H50.6452L49.4951 26.8064C48.8584 27.7507 48.3243 28.5431 48.3141 28.554C48.3038 28.5757 47.8314 28.2935 47.2769 27.9244C45.4797 26.7304 43.5182 25.8837 41.5157 25.417C40.1909 25.113 36.6685 25.0262 35.2924 25.265ZM39.4002 26.9909C41.033 27.0994 42.8199 27.6096 44.5555 28.478C45.7159 29.0533 47.2666 30.0845 47.1844 30.2256C47.1536 30.269 46.8764 30.3124 46.558 30.3124C45.377 30.3124 44.576 31.1917 44.576 32.4834C44.576 33.8185 45.3667 34.6543 46.6299 34.6543C47.4617 34.6543 48.0471 34.3178 48.4373 33.6122C48.694 33.1563 48.7043 33.0587 48.653 32.2337L48.6016 31.3436L49.2794 32.1034C51.4668 34.5457 52.8224 37.4331 53.3564 40.8197C53.5001 41.699 53.5207 42.3611 53.4899 43.8591C53.4591 44.912 53.4077 45.8672 53.3564 45.9649C53.2948 46.1277 53.2331 46.1168 52.7607 45.8346C51.7646 45.2485 50.5631 44.8251 48.92 44.4669C48.694 44.4235 48.6838 44.3801 48.6838 43.1644C48.6838 41.7207 48.4989 40.6461 48.0265 39.3001C47.472 37.737 46.825 36.7058 45.5516 35.3598C44.2885 34.0247 43.3026 33.33 41.8238 32.7439C40.3244 32.1577 39.4413 32.0166 37.603 32.0817C36.7199 32.1143 35.9086 32.1686 35.7956 32.2011C35.621 32.2554 35.4465 31.9732 34.4606 30.0411C33.8444 28.8145 33.3412 27.7724 33.3515 27.729C33.4131 27.4142 37.069 26.7955 38.2603 26.9149C38.4349 26.9258 38.9381 26.9583 39.4002 26.9909ZM46.8866 32.4834C46.8866 32.6787 46.825 32.7656 46.6504 32.7873C46.5169 32.809 46.3937 32.7547 46.3629 32.657C46.2602 32.3748 46.404 32.136 46.6504 32.1794C46.825 32.2011 46.8866 32.288 46.8866 32.4834ZM49.341 46.4425C52.4835 47.1914 55.287 49.764 56.3756 52.9119C56.8582 54.2904 56.9404 54.844 56.9404 56.5807C56.9404 58.5888 56.7658 59.403 55.9751 61.0854C54.7325 63.7557 52.391 65.7964 49.6594 66.5779C48.5503 66.9035 46.0034 66.9361 44.9868 66.643C42.9226 66.046 41.5054 65.1668 40.1293 63.6471C35.58 58.6106 36.9561 50.437 42.8815 47.2674C43.662 46.8549 45.0484 46.3991 45.911 46.2688C46.7839 46.1385 48.4065 46.2254 49.341 46.4425ZM27.8881 47.1046C28.0114 47.6473 28.7302 49.1344 29.2026 49.8508C30.6096 51.9458 32.9099 53.6608 35.1486 54.2687C35.8059 54.4532 35.8367 54.4641 35.7648 54.7354C35.6313 55.2348 35.7032 58.1221 35.8675 58.8819C36.0524 59.7503 36.1448 59.7069 34.7379 59.3921C32.9715 58.9796 31.1744 58.1981 29.634 57.1452C28.7405 56.5373 27.6006 55.593 27.6725 55.517C27.7033 55.4844 28.0627 55.4736 28.4632 55.4844C29.0794 55.5061 29.254 55.4627 29.634 55.2239C30.2912 54.8223 30.6096 54.1927 30.6096 53.3243C30.6096 51.9892 29.8188 51.1534 28.5557 51.1534C27.7238 51.1534 27.1385 51.4899 26.7585 52.1846C26.5326 52.5862 26.4915 52.7707 26.512 53.4003C26.5223 53.8128 26.4915 54.1384 26.4299 54.1601C26.204 54.247 24.8073 52.1195 24.0987 50.6215C23.6674 49.7314 23.0512 47.9513 22.8664 47.1046L22.8048 46.8115H25.3105H27.8163L27.8881 47.1046ZM28.8124 53.3243C28.8124 53.5197 28.7508 53.6066 28.5762 53.6283C28.3297 53.6717 28.186 53.4329 28.2887 53.1507C28.3195 53.053 28.4427 52.9987 28.5762 53.0204C28.7508 53.0421 28.8124 53.1289 28.8124 53.3243ZM60.2677 67.2075C61.9622 68.8899 63.3691 70.3553 63.3999 70.4639C63.5847 71.2128 62.0649 72.8953 61.3768 72.7108C61.2125 72.6674 56.5502 68.1627 54.8557 66.4042L54.5065 66.046L55.1946 65.373C55.5643 65.004 56.0367 64.4612 56.2421 64.1682L56.6118 63.6363L56.9096 63.8968C57.0636 64.0379 58.5835 65.525 60.2677 67.2075Z" fill="#FF3E54"/>
<path d="M45.7877 47.68C44.9148 47.8428 44.124 48.125 43.1895 48.6352C42.4296 49.0477 42.0804 49.3299 41.228 50.22C40.386 51.1209 40.1189 51.49 39.7287 52.2932C39.1023 53.5741 38.825 54.6378 38.7531 56.0055C38.5272 60.228 40.8994 63.8643 44.7299 65.156C45.6953 65.4816 47.8826 65.5793 48.9507 65.3405C52.011 64.6567 54.3935 62.3446 55.3588 59.1317C55.6772 58.0679 55.7593 55.8861 55.5231 54.6812C54.8351 51.1752 52.165 48.4072 48.8069 47.7234C47.9956 47.5606 46.5784 47.5389 45.7877 47.68ZM48.6323 49.5795C50.5116 49.992 52.3499 51.5117 53.1817 53.3244C53.7465 54.5293 53.9211 55.3217 53.9211 56.5591C53.9211 58.285 53.3973 59.8264 52.3601 61.1181C51.0251 62.7788 49.2896 63.6364 47.2254 63.6472C45.2434 63.6472 43.6516 62.9091 42.2447 61.3243C40.2524 59.0665 39.9136 55.6039 41.4129 52.9119C41.8442 52.1304 43.0355 50.8713 43.7646 50.4154C45.2229 49.5144 46.9584 49.2105 48.6323 49.5795Z" fill="#FF3E54"/>
<path d="M54.4349 29.4441V30.3124H56.4888H58.5427V29.4441V28.5757H56.4888H54.4349V29.4441Z" fill="#FF3E54"/>
<path d="M60.1857 29.4441V30.3124H62.2396H64.2934V29.4441V28.5757H62.2396H60.1857V29.4441Z" fill="#FF3E54"/>
<path d="M54.4349 32.9176V33.7859H59.3643H64.2936V32.9176V32.0492H59.3643H54.4349V32.9176Z" fill="#FF3E54"/>
<path d="M15 66.7842V67.6526H18.2862H21.5724V66.7842V65.9158H18.2862H15V66.7842Z" fill="#FF3E54"/>
<path d="M23.2155 66.7842V67.6525H27.734H32.2526V66.7842V65.9158H27.734H23.2155V66.7842Z" fill="#FF3E54"/>
<path d="M15 70.2576V71.126H23.6263H32.2527V70.2576V69.3892H23.6263H15V70.2576Z" fill="#FF3E54"/>
</svg>
