<svg width="81" height="86" viewBox="0 0 81 86" fill="none" xmlns="http://www.w3.org/2000/svg">
<rect x="0.45166" y="0.796387" width="80.5029" height="84.7904" rx="10" fill="white"/>
<path d="M22.7329 16.8056C22.0654 17.0111 21.4287 17.5736 21.1 18.2442L20.7919 18.8932L20.7611 21.3595L20.7201 23.8257H19.2104C17.0229 23.8257 16.3349 24.1394 15.7392 25.4265L15.4517 26.0431V44.3775V62.7118L15.6879 63.2202C15.8214 63.4906 16.1295 63.9125 16.3759 64.1613C17.1975 64.9617 16.7867 64.9292 26.923 64.9292H35.9399V67.0926C35.9399 69.1153 35.9501 69.2667 36.1452 69.4723C36.3506 69.6886 36.4841 69.6886 42.9233 69.6886C49.3624 69.6886 49.4959 69.6886 49.7013 69.4723C49.8965 69.2667 49.9067 69.1153 49.9067 67.0926V64.9292H53.5833C57.8042 64.9292 58.0301 64.8968 58.8106 64.1396C59.6322 63.35 59.7041 63.0796 59.7452 60.2564L59.7863 57.8118L61.45 57.7686C62.9185 57.7361 63.1547 57.7037 63.5245 57.4981C64.0996 57.1736 64.5822 56.6544 64.839 56.0595L65.0546 55.5728V37.2276V18.8932L64.7466 18.2442C64.4077 17.552 63.7709 17.0003 63.0726 16.7948C62.5899 16.6542 23.1951 16.665 22.7329 16.8056ZM62.8466 18.3632C63.0007 18.4498 63.2369 18.6553 63.3499 18.8067C63.5553 19.0879 63.5655 19.2177 63.5655 22.3762V25.6645H50.944H38.3224L36.6998 23.9338C35.488 22.6358 34.9848 22.1707 34.7177 22.095C34.2248 21.9544 27.991 21.9544 27.4981 22.095C27.2927 22.1599 27.0052 22.3546 26.8614 22.5385C26.6046 22.8522 26.5944 22.9279 26.5944 24.2692V25.6645H24.3761H22.1681L22.1989 22.4411C22.2297 18.8716 22.24 18.8608 22.9281 18.4173C23.2464 18.201 23.6059 18.201 42.9028 18.201C60.043 18.201 62.5899 18.2226 62.8466 18.3632ZM35.8063 25.1886C36.6382 26.1188 37.4495 26.9409 37.6036 27.0274C37.8398 27.1572 39.904 27.1789 50.7283 27.1789H63.5655V41.2839V55.3781L63.3499 55.6701C62.8775 56.2975 63.1239 56.2759 55.9967 56.265H49.4446L49.9889 56.0054C50.451 55.7783 50.564 55.6701 50.7489 55.2266C50.9234 54.8156 50.944 54.6425 50.8618 54.3288C50.8105 54.1125 49.1776 50.9324 47.2366 47.2547C43.9297 40.981 43.6935 40.5592 43.3444 40.4077C43.026 40.2671 42.9233 40.2563 42.5639 40.3861C42.1633 40.5375 42.112 40.6132 40.3764 43.8907C35.2518 53.5609 34.9642 54.1341 34.9745 54.6533C34.9848 55.3024 35.2518 55.7134 35.8885 56.0163L36.402 56.265H29.8293C23.4929 56.2759 23.2464 56.265 22.9281 56.0595C22.7432 55.9514 22.5173 55.7242 22.4146 55.5511C22.24 55.2699 22.2297 54.5452 22.1989 41.219L22.1784 27.1789H24.6842H27.19L27.5084 26.8976C27.9192 26.5407 28.0321 26.0647 28.0321 24.6586V23.5012H31.1541H34.2761L35.8063 25.1886ZM20.7611 40.4618L20.7919 55.5836L21.1 56.2326C21.4389 56.9249 22.0757 57.4765 22.774 57.682C23.0205 57.7469 25.8344 57.7902 30.5688 57.7902C37.9835 57.7902 37.9835 57.7902 38.0965 58.0173C38.1684 58.1363 38.2403 58.5041 38.2711 58.8286L38.3327 59.4127H37.8295C37.1106 59.4127 36.6382 59.5858 36.289 59.9644C35.9912 60.2889 35.9912 60.2889 35.9604 61.8573L35.9296 63.4149H26.9949C17.3002 63.4149 17.6186 63.4365 17.1667 62.82L16.9408 62.5171V44.4099C16.9408 27.5574 16.951 26.2703 17.1154 25.9782C17.4132 25.4482 17.7624 25.34 19.3234 25.34H20.7406L20.7611 40.4618ZM42.2044 45.3293V46.9194L41.8244 47.1357C41.085 47.5576 40.6229 48.7366 40.8591 49.6452C41.1466 50.7701 41.9066 51.3326 43.0363 51.2785C43.5806 51.2461 43.8065 51.1812 44.1249 50.9432C45.3675 50.0346 45.3367 48.0119 44.0632 47.1898L43.6525 46.9194L43.6422 45.3077C43.6422 44.4207 43.6627 43.7176 43.6833 43.7393C43.7449 43.8042 49.3932 54.5452 49.3932 54.5884C49.3932 54.6209 49.2187 54.6966 49.0133 54.7723C47.4933 55.2915 46.2404 56.9898 46.1275 58.6664L46.0761 59.4127H42.9233H39.7705L39.7191 58.6555C39.6062 57.0979 38.5586 55.562 37.1209 54.848L36.4431 54.5235L36.6382 54.1774C36.7409 53.9935 38.0246 51.5706 39.4829 48.7799C40.9412 46 42.1531 43.7285 42.1736 43.7285C42.1941 43.7285 42.2044 44.4424 42.2044 45.3293ZM43.4265 48.6609C43.5498 48.8231 43.6422 49.007 43.6422 49.0827C43.6422 49.364 43.2211 49.7858 42.9336 49.7858C42.3277 49.7858 42.0401 49.1693 42.4098 48.6717C42.7076 48.2823 43.139 48.2823 43.4265 48.6609ZM58.3074 60.105C58.2561 63.5988 58.5333 63.4149 53.532 63.4149H49.917L49.8862 61.8573C49.8554 60.3646 49.8451 60.278 49.5986 59.9968C49.2392 59.5966 48.7771 59.4127 48.0993 59.4127H47.5139L47.5755 58.8286C47.6885 57.682 47.1134 57.7902 53.1006 57.7902H58.3485L58.3074 60.105ZM48.469 64.5507V68.1743H42.9233H37.3776V64.5507V60.927H42.9233H48.469V64.5507Z" fill="#FF3E54"/>
<path d="M50.2669 20.1046C49.4966 20.5264 49.1475 21.1971 49.2091 22.1165C49.281 23.209 50.0512 23.9337 51.1193 23.9337C52.0846 23.9337 52.7316 23.4145 52.9884 22.441C53.204 21.554 52.783 20.5373 52.0333 20.1587C51.4992 19.8883 50.7085 19.8666 50.2669 20.1046ZM51.5095 21.7163C51.7868 22.1598 51.109 22.6682 50.7495 22.2896C50.575 22.1057 50.5955 21.8136 50.7906 21.6081C51.0063 21.381 51.3349 21.4351 51.5095 21.7163Z" fill="#FF3E54"/>
<path d="M54.6207 20.2344C53.3986 21.0564 53.4705 23.0359 54.7337 23.7173C55.1753 23.9553 55.9866 23.9986 56.4487 23.8147C57.4038 23.4361 57.8659 22.1057 57.4141 21.0564C57.106 20.3533 56.5822 19.9964 55.7709 19.9531C55.165 19.9207 55.0417 19.9531 54.6207 20.2344ZM56.0071 21.6189C56.346 21.965 56.1406 22.4193 55.6374 22.4193C55.2471 22.4193 55.0726 22.0624 55.2985 21.7054C55.4833 21.4026 55.7709 21.3701 56.0071 21.6189Z" fill="#FF3E54"/>
<path d="M59.4065 20.083C58.7389 20.3966 58.3281 21.0997 58.3281 21.9326C58.3281 22.5275 58.4719 22.9278 58.8211 23.3172C59.2319 23.7823 59.5913 23.9337 60.2383 23.9337C61.3782 23.9337 62.1279 23.1441 62.1279 21.9434C62.1279 21.6081 62.0663 21.1971 61.9842 21.0348C61.789 20.6454 61.3166 20.1911 60.9675 20.0505C60.5669 19.8883 59.7762 19.9099 59.4065 20.083ZM60.5669 21.5757C60.6388 21.6514 60.6902 21.8028 60.6902 21.9326C60.6902 22.0624 60.6388 22.2139 60.5669 22.2896C60.495 22.3653 60.3513 22.4194 60.228 22.4194C60.1048 22.4194 59.961 22.3653 59.8891 22.2896C59.8172 22.2139 59.7659 22.0624 59.7659 21.9326C59.7659 21.8028 59.8172 21.6514 59.8891 21.5757C59.961 21.5 60.1048 21.4459 60.228 21.4459C60.3513 21.4459 60.495 21.5 60.5669 21.5757Z" fill="#FF3E54"/>
<path d="M40.6851 32.4788C40.2538 32.76 40.0484 33.2684 40.0484 34.1013V34.7503H35.427H30.8159L30.6824 34.2852C30.4975 33.6362 29.6657 32.7817 29.0289 32.5978C27.4577 32.1327 25.9172 32.998 25.568 34.5448C25.0648 36.7622 26.9031 38.5902 28.9981 37.9521C29.6554 37.7465 30.2819 37.2165 30.5386 36.6432L30.7132 36.2646H33.7633H36.8032L36.0432 36.7514C33.2909 38.547 31.1342 41.4459 30.2305 44.5611L29.9738 45.4589H29.3473C28.4949 45.4589 28.0533 45.6968 27.8068 46.2918C27.6323 46.7136 27.6117 46.9732 27.6425 48.6498C27.6733 50.348 27.6939 50.5535 27.889 50.8348C28.3101 51.4297 28.6284 51.5162 30.5489 51.5162C33.3012 51.5162 33.3731 51.4297 33.3731 48.4335C33.3731 46.6703 33.3525 46.454 33.1677 46.1295C32.9315 45.7185 32.4282 45.4589 31.8839 45.4589C31.5348 45.4589 31.5245 45.4481 31.5861 45.156C31.8018 44.2366 32.6542 42.4194 33.3628 41.4134C34.3898 39.9315 35.807 38.6227 37.3064 37.779C38.0663 37.3463 39.6171 36.6973 39.8841 36.6973C39.9663 36.6973 40.0689 36.9028 40.1408 37.1733C40.2127 37.4761 40.3668 37.7465 40.5722 37.9304L40.8905 38.2117H42.8931C44.5979 38.2117 44.9368 38.1792 45.1936 38.0278C45.5222 37.8223 45.7995 37.2922 45.7995 36.8812V36.6108L46.3438 36.773C47.1654 37.011 49.2604 38.1359 50.0101 38.7417C51.8073 40.1695 53.2861 42.2571 54.0666 44.4421C54.3953 45.3723 54.3953 45.4589 54.0153 45.4589C53.5223 45.4589 53.0089 45.7401 52.7829 46.1295C52.5981 46.454 52.5775 46.6703 52.5775 48.4876C52.5775 51.4622 52.6289 51.5162 55.4223 51.5162C57.3222 51.5162 57.6508 51.4297 58.0616 50.8348C58.2567 50.5644 58.2773 50.348 58.3081 48.7688C58.3491 46.7785 58.267 46.2918 57.8151 45.8375C57.5276 45.5454 57.4146 45.513 56.706 45.4805L55.9152 45.4372L55.6277 44.507C54.6418 41.2512 52.4646 38.3739 49.7225 36.6865L49.0345 36.2646H52.1359C55.1963 36.2646 55.2374 36.2646 55.299 36.4918C55.412 36.8488 56.0693 37.5518 56.5109 37.8006C57.4146 38.2766 58.7086 38.1251 59.4994 37.4437C60.5982 36.481 60.6906 34.4258 59.6842 33.3117C58.9756 32.5221 57.5994 32.2408 56.6033 32.6951C55.9563 32.9872 55.3401 33.6903 55.1552 34.3068L55.032 34.7503H50.4209H45.7995V34.1013C45.7995 33.2684 45.5941 32.76 45.1628 32.4788C44.8547 32.2841 44.6493 32.2625 42.9239 32.2625C41.1986 32.2625 40.9932 32.2841 40.6851 32.4788ZM44.3617 35.2911V36.8055H42.9239H41.4862V35.2911V33.7768H42.9239H44.3617V35.2911ZM28.9673 34.296C29.3678 34.6746 29.4808 35.3993 29.2138 35.9293C29.0392 36.2971 28.5463 36.5891 28.1149 36.5891C27.5706 36.5891 26.9031 35.8752 26.9031 35.2911C26.9031 35.1613 26.975 34.9017 27.0572 34.707C27.3961 33.9607 28.382 33.7444 28.9673 34.296ZM58.3183 34.1554C58.4826 34.2419 58.688 34.4907 58.7907 34.707C59.4069 36.0808 57.7432 37.2382 56.7984 36.0916C56.5417 35.7887 56.48 35.6156 56.48 35.2262C56.48 34.8044 56.5314 34.6746 56.8292 34.3609C57.1168 34.058 57.2605 33.9931 57.5994 33.9931C57.8357 33.9931 58.1643 34.0689 58.3183 34.1554ZM31.9353 48.4876V50.0019H30.4975H29.0598V48.4876V46.9732H30.4975H31.9353V48.4876ZM56.8189 48.0224C56.86 48.6065 56.8908 49.288 56.8908 49.5368V50.0019H55.4531H54.0153V49.6449C54.0153 49.4394 53.9845 48.758 53.9434 48.1306L53.8818 46.9732H55.3196H56.7573L56.8189 48.0224Z" fill="#FF3E54"/>
</svg>
