<svg width="81" height="81" viewBox="0 0 81 81" fill="none" xmlns="http://www.w3.org/2000/svg">
<rect x="0.188232" y="0.796387" width="80" height="80" rx="10" fill="white"/>
<path d="M19.463 30.1355V45.9716H18.0872H16.7114V34.1929C16.7114 23.0352 16.7212 22.4038 16.8981 22.0105C17.0554 21.6275 17.5172 21.1204 17.93 20.8719C18.097 20.7684 18.0872 20.7167 17.8317 20.0439C17.6843 19.6402 17.5565 19.2987 17.5369 19.2883C17.5271 19.2676 17.2814 19.3815 17.0062 19.5367C16.397 19.8887 15.8368 20.5097 15.4634 21.2549L15.1882 21.8035V37.4326V53.0617L15.5125 53.7551C15.886 54.5625 16.4952 55.1835 17.301 55.5872L17.8415 55.8563L25.2413 55.8873L32.6312 55.908V58.6923V61.4662L31.2161 61.5179C29.9189 61.5697 29.742 61.6007 29.2507 61.8492C28.9461 62.0044 28.553 62.3149 28.3663 62.553C27.8159 63.2258 27.7177 63.6812 27.7177 65.6063V67.2935H40.2963H52.8748V65.6063C52.8748 63.6812 52.7766 63.2258 52.2263 62.553C52.0395 62.3149 51.6465 62.0044 51.3418 61.8492C50.8505 61.6007 50.6736 61.5697 49.3764 61.5179L47.9613 61.4662V58.6923V55.908L55.3611 55.8873L62.751 55.8563L63.2915 55.5872C64.0973 55.1835 64.7066 54.5625 65.08 53.7551L65.4043 53.0617V37.4843V21.907L65.0898 21.2239C64.7066 20.4062 64.0875 19.7748 63.3111 19.3918L62.751 19.1124L50.251 19.0813L37.7412 19.0606V19.8887V20.7167H50.0054C61.7192 20.7167 62.2793 20.727 62.6527 20.9133C62.8689 21.0168 63.1637 21.2342 63.3111 21.3998C63.9106 22.0829 63.8811 21.3584 63.8811 34.2239V45.9716H50.8112H37.7412V34.5448V23.118L35.9232 19.9197C34.9209 18.1705 34.0659 16.7214 34.0168 16.7007C33.9677 16.68 33.1029 18.1084 32.1005 19.8783L30.2727 23.0766V34.5241V45.9716H29.0935H27.9142V30.1355V14.2994H23.6886H19.463V30.1355ZM26.3419 30.9636V45.9716H23.6886H21.0353V45.0919V44.2121H22.8042H24.573V43.384V42.556H22.8042H21.0353V41.8315V41.107H22.018H23.0007V40.2789V39.4509H22.018H21.0353V38.7264V38.0018H22.8042H24.573V37.1738V36.3458H22.8042H21.0353V35.6213V34.8967H22.018H23.0007V34.0687V33.2407H22.018H21.0353V32.5161V31.7916H22.8042H24.573V30.9636V30.1355H22.8042H21.0353V29.411V28.6865H22.018H23.0007V27.8585V27.0304H22.018H21.0353V26.3059V25.5814H22.8042H24.573V24.7533V23.9253H22.8042H21.0353V23.2008V22.4763H22.018H23.0007V21.6482V20.8202H22.018H21.0353V20.0957V19.3711H22.8042H24.573V18.5431V17.7151H22.8042H21.0353V16.8353V15.9555H23.6886H26.3419V30.9636ZM34.9602 21.493L35.8544 23.0869L34.9209 23.6665L33.9971 24.2565L33.0636 23.6665L32.1398 23.0869L32.3855 22.6522C32.5231 22.4142 32.926 21.6896 33.2896 21.0479C33.6532 20.4165 33.9775 19.8887 34.007 19.8887C34.0365 19.8887 34.459 20.6132 34.9602 21.493ZM34.8619 25.6745C35.3336 25.3744 35.825 25.0639 35.9527 24.981L36.1689 24.8361V33.3338V41.8315H34.007H31.845V33.3442V24.8672L32.9162 25.54L33.9971 26.2231L34.8619 25.6745ZM36.1689 44.7296V45.9716H34.007H31.845V44.7296V43.4876H34.007H36.1689V44.7296ZM63.8811 50.0808C63.8811 52.8443 63.8221 53.1031 63.1834 53.6723C62.4857 54.2934 64.1071 54.252 40.2963 54.252C16.4854 54.252 18.1069 54.2934 17.4091 53.6723C16.7704 53.1031 16.7114 52.8443 16.7114 50.0808V47.6277H40.2963H63.8811V50.0808ZM46.389 58.7026V61.4972H40.2963H34.2035V58.7026V55.908H40.2963H46.389V58.7026ZM50.7424 63.4017C51.1551 63.7019 51.3025 64.0848 51.3025 64.9129V65.6374H40.2963H29.29V64.9129C29.29 63.9089 29.575 63.4121 30.2236 63.2258C30.3317 63.1947 34.9307 63.1844 40.4437 63.1947C50.1134 63.2051 50.4771 63.2154 50.7424 63.4017Z" fill="#FF3E54"/>
<path d="M33.2208 30.3941V33.0334H34.007H34.7931V30.3941V27.7547H34.007H33.2208V30.3941Z" fill="#FF3E54"/>
<path d="M33.2208 35.3106V36.1387H34.007H34.7931V35.3106V34.4826H34.007H33.2208V35.3106Z" fill="#FF3E54"/>
<path d="M33.2208 38.9333V40.2788H34.007H34.7931V38.9333V37.5877H34.007H33.2208V38.9333Z" fill="#FF3E54"/>
<path d="M36.5621 50.9398V51.7678H37.3483H38.1345V50.9398V50.1118H37.3483H36.5621V50.9398Z" fill="#FF3E54"/>
<path d="M39.5101 50.9398V51.7678H40.2963H41.0825V50.9398V50.1118H40.2963H39.5101V50.9398Z" fill="#FF3E54"/>
<path d="M42.4581 50.9398V51.7678H43.2443H44.0305V50.9398V50.1118H43.2443H42.4581V50.9398Z" fill="#FF3E54"/>
<path d="M39.1172 22.9936V23.8217H39.9033H40.6895V33.344V42.8664H39.9033H39.1172V43.6944V44.5225H41.4265H43.7359V43.6944V42.8664H42.9989H42.2618V33.344V23.8217H42.9989H43.7359V22.9936V22.1656H41.4265H39.1172V22.9936Z" fill="#FF3E54"/>
<path d="M45.2097 26.6162V31.0669H53.8575H62.5053V26.6162V22.1656H53.8575H45.2097V26.6162ZM60.9329 26.6162V29.4108H53.8575H46.782V26.6162V23.8216H53.8575H60.9329V26.6162Z" fill="#FF3E54"/>
<path d="M45.2097 35.4141V38.3123H49.1897H53.1696V35.4141V32.516H49.1897H45.2097V35.4141ZM51.5973 35.4141V36.6562H49.1897H46.782V35.4141V34.1721H49.1897H51.5973V35.4141Z" fill="#FF3E54"/>
<path d="M54.5455 35.4141V38.3123H58.5255H62.5054V35.4141V32.516H58.5255H54.5455V35.4141ZM60.9331 35.4141V36.6562H58.5255H56.1179V35.4141V34.1721H58.5255H60.9331V35.4141Z" fill="#FF3E54"/>
<path d="M45.9958 41.1068V41.9348H47.7647H49.5336V41.1068V40.2788H47.7647H45.9958V41.1068Z" fill="#FF3E54"/>
<path d="M50.9095 41.1068V41.9348H51.6957H52.4819V41.1068V40.2788H51.6957H50.9095V41.1068Z" fill="#FF3E54"/>
<path d="M55.3317 41.1068V41.9348H57.1005H58.8694V41.1068V40.2788H57.1005H55.3317V41.1068Z" fill="#FF3E54"/>
<path d="M60.2451 41.1068V41.9348H61.0313H61.8174V41.1068V40.2788H61.0313H60.2451V41.1068Z" fill="#FF3E54"/>
</svg>
