<svg width="81" height="81" viewBox="0 0 81 81" fill="none" xmlns="http://www.w3.org/2000/svg">
<rect x="0.714966" y="0.796387" width="80" height="80" rx="10" fill="white"/>
<path d="M32.4124 14.5289C29.3517 15.2134 26.5531 17.1454 24.7188 19.8502C23.8802 21.0867 23.0207 23.1291 22.7272 24.5643C22.6748 24.8182 22.591 24.8623 21.7524 25.0279C18.9957 25.5799 16.6583 27.9094 15.956 30.8129C15.673 31.9721 15.673 33.7164 15.956 34.8756C16.6164 37.6135 18.7651 39.8767 21.3646 40.5722C22.1298 40.782 22.5595 40.793 29.8653 40.793H37.5484V42.5484V44.3148L34.8546 44.3479L32.1503 44.381L31.5214 44.7012C30.7143 45.1207 29.9177 45.9597 29.5194 46.8098L29.2154 47.4722L29.163 54.0962C29.1106 60.5656 29.1001 60.7312 28.8905 61.217C28.618 61.8242 28.1044 62.3541 27.5384 62.619C27.1925 62.7736 26.7208 62.8178 24.7502 62.8509L22.3709 62.895L22.2975 62.5638C22.1298 61.7248 21.0292 60.6098 20.0963 60.3338C19.3207 60.1019 18.0943 60.2344 17.434 60.6098C16.3439 61.239 15.715 62.3982 15.715 63.7562C15.715 65.1141 16.3439 66.2733 17.434 66.9025C18.0943 67.2779 19.3207 67.4104 20.0963 67.1785C21.0187 66.9025 22.1298 65.7875 22.2975 64.9706L22.3604 64.6504L25.1066 64.6173L27.8528 64.5842L28.4817 64.264C29.2888 63.8445 30.0854 63.0054 30.4837 62.1554L30.7877 61.493L30.8401 54.869C30.903 47.5274 30.8715 47.8034 31.6053 46.9864C32.2866 46.2357 32.6115 46.1584 35.2215 46.1143L37.5484 46.0701V49.0288C37.5484 51.9655 37.5484 51.9765 37.8104 52.4402C38.083 52.937 38.8901 53.5883 39.6133 53.8864L40.064 54.0631V59.7928V65.5225H38.8062H37.5484V66.4057V67.2889H39.4351C41.1856 67.2889 41.3323 67.2779 41.5315 67.0681C41.7411 66.8473 41.7411 66.7038 41.7411 60.7202C41.7411 57.353 41.7725 54.593 41.8249 54.593C41.8669 54.593 42.37 54.6703 42.9465 54.7586C43.523 54.8469 44.2462 54.9242 44.5502 54.9242H45.0952V59.561C45.0952 64.0542 45.1057 64.2088 45.3049 64.4186C45.504 64.6283 45.6508 64.6394 49.5395 64.6394H53.5645L53.6378 64.9595C53.8055 65.7875 54.9166 66.9025 55.839 67.1785C56.5203 67.3773 57.82 67.2779 58.3861 66.9688C59.0254 66.6265 59.6439 65.931 59.9478 65.2245C60.3042 64.4075 60.3252 63.171 59.9898 62.3762C59.4238 61.0403 58.4699 60.3227 57.1283 60.2454C56.143 60.1792 55.535 60.3448 54.8852 60.8306C54.3401 61.239 53.7322 62.0781 53.6378 62.5528L53.5645 62.873H50.1684H46.7723V58.8986V54.9242H47.3278C48.0196 54.9242 49.833 54.6482 50.682 54.4274C52.4115 53.9527 53.6064 53.2571 54.0571 52.4512C54.2877 52.0317 54.3192 51.8551 54.3192 50.8063V49.625H55.5141C56.1639 49.625 56.8557 49.6802 57.0444 49.7464C57.6419 49.9672 57.6733 50.177 57.6733 54.317C57.6733 57.8719 57.6838 58.0264 57.8829 58.2362C58.0821 58.4459 58.2288 58.457 60.3986 58.457H62.7045V57.5738V56.6906H61.0275H59.3504V53.2682C59.3504 49.4815 59.3294 49.36 58.69 48.6424C58.0821 47.969 57.7152 47.8586 55.9229 47.8586H54.3192V44.3258V40.793H56.971C59.277 40.793 59.7382 40.7599 60.4405 40.5722C63.0399 39.8767 65.1887 37.6135 65.849 34.8756C66.1321 33.7164 66.1321 31.9721 65.849 30.8129C65.1887 28.075 63.0399 25.8118 60.4405 25.1163C59.8325 24.9507 59.277 24.8955 58.2498 24.8955H56.8662L56.688 24.0123C56.1115 21.175 53.8999 18.7683 51.2166 18.0507C49.225 17.5097 46.5627 17.9624 45.1476 19.0774C44.959 19.232 44.8961 19.1878 44.2253 18.426C42.4329 16.4057 39.9802 14.9926 37.3283 14.4627C36.0914 14.2198 33.6806 14.2529 32.4124 14.5289ZM37.9048 16.5492C41.5524 17.7084 44.2881 20.5015 45.3573 24.1447C45.5145 24.6857 45.6822 25.1163 45.7346 25.1163C45.787 25.1163 46.1749 25.039 46.6151 24.9286C47.3803 24.7519 47.3907 24.7409 47.3278 24.4649C47.1497 23.67 46.7304 22.4887 46.353 21.6939L45.9338 20.8107L46.374 20.5126C47.4851 19.7729 49.4032 19.4969 50.7449 19.8723C52.0656 20.2366 53.271 21.1308 54.0361 22.3121C54.7175 23.3609 54.969 24.1668 55.0319 25.4364C55.1053 26.9379 54.8223 28.0419 54.099 29.179C53.9313 29.4439 53.7951 29.6758 53.816 29.6868C53.837 29.7089 54.12 29.9407 54.4554 30.2278C54.8013 30.5148 55.1158 30.7466 55.1577 30.7466C55.4931 30.7466 56.4469 28.7374 56.6985 27.5009L56.8767 26.6287L58.145 26.706C60.0527 26.8164 61.0065 27.1476 62.1909 28.1412C62.8932 28.7263 63.7317 29.9959 64.0147 30.9122C64.3082 31.8396 64.3082 33.8489 64.0147 34.7762C63.5745 36.2004 62.3796 37.6356 61.0694 38.3201C60.0317 38.85 59.56 38.9273 56.8662 38.9935L54.3192 39.0597V38.1545V37.2602H55.7866C57.7886 37.2602 57.6733 37.4037 57.6733 34.8314V32.8442H58.0926H58.5118V31.961V31.0778H57.4637C55.9543 31.0778 55.9962 31.0006 55.9962 33.5066V35.4938H55.1577C54.3192 35.4938 54.3192 35.4938 54.3192 35.1958C54.3192 34.4009 53.271 33.3742 51.9503 32.8774C50.661 32.3806 48.5437 31.9721 47.3278 31.961H46.7723V30.7466C46.7723 29.3777 46.6465 28.9361 46.112 28.3289C45.4516 27.6003 45.2315 27.5451 42.4538 27.5451H39.9802L39.9068 27.2249C39.7391 26.3969 38.628 25.2819 37.7056 25.0059C36.93 24.774 35.7036 24.9065 35.0433 25.2819C33.9532 25.9111 33.3243 27.0703 33.3243 28.4282C33.3243 29.7862 33.9532 30.9454 35.0433 31.5746C35.7036 31.95 36.93 32.0825 37.7056 31.8506C38.628 31.5746 39.7391 30.4596 39.9068 29.6316L39.9802 29.3114H42.0451C43.3238 29.3114 44.2567 29.3556 44.4663 29.4329C44.917 29.5985 45.0952 30.0842 45.0952 31.111V31.9279L44.0575 31.9942C41.0703 32.2039 38.4918 33.2086 37.8104 34.434C37.5589 34.8866 37.5484 34.975 37.5484 36.9732V39.0377L29.9806 38.9935C21.742 38.9493 21.9935 38.9714 20.7357 38.3201C19.4255 37.6356 18.2306 36.2004 17.7903 34.7762C17.4969 33.8489 17.4969 31.8396 17.7903 30.9122C18.0734 29.9959 18.9119 28.7263 19.6142 28.1412C20.7462 27.1918 21.9097 26.7612 23.3352 26.7612C25.8718 26.7723 28.1463 28.6159 28.8905 31.2876C28.9848 31.6188 29.0582 32.1046 29.0582 32.3695V32.8442H29.9491H30.8401V32.2591C30.8296 30.3602 29.6766 28.0087 28.0624 26.6287C27.3182 25.9995 25.9975 25.3039 25.159 25.0942C24.4462 24.9286 24.4358 24.9065 24.8236 23.7694C25.9556 20.4684 28.3559 17.9513 31.469 16.7921C32.884 16.2622 33.4815 16.1739 35.2948 16.218C36.7413 16.2512 37.0977 16.2953 37.9048 16.5492ZM37.5274 26.9931C38.8901 27.8652 38.3031 30.0842 36.7099 30.0842C35.8189 30.0842 35.1376 29.3666 35.1376 28.4282C35.1376 27.8321 35.4206 27.3022 35.8923 26.9931C36.1019 26.8606 36.4269 26.7723 36.7099 26.7723C36.9929 26.7723 37.3178 26.8606 37.5274 26.9931ZM48.8058 34.0145C50.4304 34.2574 52.0446 34.8425 52.422 35.3172C52.5373 35.4607 52.5373 35.527 52.422 35.6705C52.0446 36.1452 50.1998 36.7965 48.5018 37.0394C48.0406 37.1057 46.8876 37.1609 45.9338 37.1609C44.9799 37.1609 43.8269 37.1057 43.3658 37.0394C41.6677 36.7965 39.8229 36.1452 39.4456 35.6705C39.2569 35.4386 39.4246 35.2289 40.085 34.8756C41.8878 33.9151 45.6508 33.5398 48.8058 34.0145ZM40.1688 38.1545C41.9402 38.8169 43.4601 39.0487 45.9338 39.0487C48.659 39.0487 50.4514 38.7285 52.4639 37.8674C52.6316 37.7901 52.6421 37.9005 52.6421 39.2695C52.6421 40.6716 52.6316 40.7709 52.4115 40.9807C52.0237 41.345 51.3423 41.6652 50.3047 41.9522C48.9001 42.3386 47.8834 42.4601 45.9338 42.4601C43.9842 42.4601 42.9674 42.3386 41.5629 41.9522C40.5252 41.6652 39.8439 41.345 39.4666 40.9807C39.236 40.7709 39.2255 40.6716 39.2255 39.2695C39.2255 37.9005 39.236 37.7901 39.4141 37.8674C39.5085 37.9116 39.8544 38.0441 40.1688 38.1545ZM40.1688 43.4536C41.9402 44.116 43.4601 44.3479 45.9338 44.3479C48.659 44.3479 50.4514 44.0277 52.4639 43.1666C52.6316 43.0893 52.6421 43.1997 52.6421 44.5687C52.6421 45.9708 52.6316 46.0701 52.4115 46.2799C52.0237 46.6442 51.3423 46.9644 50.3047 47.2514C48.9001 47.6378 47.8834 47.7592 45.9338 47.7592C43.9842 47.7592 42.9674 47.6378 41.5629 47.2514C40.5252 46.9644 39.8439 46.6442 39.4666 46.2799C39.236 46.0701 39.2255 45.9708 39.2255 44.5687C39.2255 43.1997 39.236 43.0893 39.4141 43.1666C39.5085 43.2108 39.8544 43.3432 40.1688 43.4536ZM40.1688 48.7528C41.9402 49.4152 43.4601 49.6471 45.9338 49.6471C48.659 49.6471 50.4514 49.3269 52.4639 48.4658C52.6316 48.3885 52.6421 48.4989 52.6421 49.8679C52.6421 51.2699 52.6316 51.3693 52.4115 51.5791C52.0237 51.9434 51.3423 52.2635 50.3047 52.5506C48.9001 52.937 47.8834 53.0584 45.9338 53.0584C43.9842 53.0584 42.9674 52.937 41.5629 52.5506C40.5252 52.2635 39.8439 51.9434 39.4666 51.5791C39.236 51.3693 39.2255 51.2699 39.2255 49.8679C39.2255 48.4989 39.236 48.3885 39.4141 48.4658C39.5085 48.51 39.8544 48.6424 40.1688 48.7528ZM19.9181 62.321C20.6414 62.7846 20.9034 63.8555 20.4632 64.6173C19.6351 66.0525 17.5283 65.4342 17.5283 63.7562C17.5283 62.4755 18.8804 61.6586 19.9181 62.321ZM57.6523 62.321C59.015 63.1931 58.428 65.4122 56.8348 65.4122C55.2415 65.4122 54.6546 63.1931 56.0172 62.321C56.4679 62.0339 57.2016 62.0339 57.6523 62.321Z" fill="#FF3E54"/>
<path d="M21.9625 28.5937C20.9144 28.9359 19.971 29.8302 19.4364 30.9673C19.1744 31.5193 19.1534 31.6849 19.1534 32.8441C19.1534 34.0254 19.1744 34.1578 19.4574 34.7761C19.8557 35.6262 20.6523 36.4652 21.4594 36.8847L22.0883 37.2049L26.0504 37.238L30.002 37.2711V36.3879V35.5047L26.4173 35.4716C23.0212 35.4385 22.8011 35.4274 22.3504 35.2066C20.4217 34.2572 20.3798 31.5303 22.2665 30.5147C22.4761 30.4043 22.8011 30.3049 22.9793 30.3049H23.2937V29.3665V28.4281L22.8535 28.4391C22.6019 28.4391 22.2036 28.5054 21.9625 28.5937Z" fill="#FF3E54"/>
<path d="M60.1892 31.961V32.8442H61.0277H61.8663V31.961V31.0778H61.0277H60.1892V31.961Z" fill="#FF3E54"/>
<path d="M64.3822 57.5737V58.4569H65.2207H66.0593V57.5737V56.6905H65.2207H64.3822V57.5737Z" fill="#FF3E54"/>
<path d="M34.1942 66.406V67.2892H35.0328H35.8713V66.406V65.5228H35.0328H34.1942V66.406Z" fill="#FF3E54"/>
</svg>
